<?xml version="1.0" standalone="no"?>
<!DOCTYPE svg PUBLIC "-//W3C//DTD SVG 1.1//EN" "http://www.w3.org/Graphics/SVG/1.1/DTD/svg11.dtd" >
<svg xmlns="http://www.w3.org/2000/svg">
<metadata></metadata>
<defs>
<font id="centermedium" horiz-adv-x="1063" >
<font-face units-per-em="2048" ascent="1621" descent="-427" />
<missing-glyph horiz-adv-x="459" />
<glyph unicode="&#xfb01;" horiz-adv-x="1186" d="M44 946v62q0 63 64 63h98v125q0 141 83.5 214t244.5 73h80q65 0 65 -64v-55q0 -34 -15.5 -49t-49.5 -15h-77q-56 0 -81 -24.5t-25 -75.5v-129h189q32 0 45.5 -15t13.5 -48v-63q0 -34 -13.5 -49t-45.5 -15h-189v-818q0 -63 -65 -63h-96q-64 0 -64 63v818h-98q-64 0 -64 65 zM825 64q0 -64 65 -64h96q64 0 64 64v944q0 63 -64 63h-96q-65 0 -65 -63v-944zM825 1283v135q0 65 65 65h96q64 0 64 -65v-135q0 -65 -64 -65h-96q-65 0 -65 65z" />
<glyph unicode="&#xfb02;" horiz-adv-x="1197" d="M44 946v62q0 63 64 63h98v125q0 141 83.5 214t244.5 73h80q65 0 65 -64v-55q0 -34 -15.5 -49t-49.5 -15h-77q-56 0 -81 -24.5t-25 -75.5v-129h189q32 0 45.5 -15t13.5 -48v-63q0 -34 -13.5 -49t-45.5 -15h-189v-818q0 -63 -65 -63h-96q-64 0 -64 63v818h-98q-64 0 -64 65 zM835 64v1354q0 65 65 65h97q64 0 64 -65v-1354q0 -64 -64 -64h-97q-65 0 -65 64z" />
<glyph unicode="&#xfb03;" horiz-adv-x="1805" d="M44 946v62q0 63 64 63h98v125q0 141 83.5 214t244.5 73h80q65 0 65 -64v-55q0 -34 -15.5 -49t-49.5 -15h-77q-56 0 -81 -24.5t-25 -75.5v-129h189q32 0 45.5 -15t13.5 -48v-63q0 -34 -13.5 -49t-45.5 -15h-189v-818q0 -63 -65 -63h-96q-64 0 -64 63v818h-98q-64 0 -64 65 zM825 63v1133q0 141 84 214t246 73h81q64 0 64 -64v-55q0 -34 -15.5 -49t-48.5 -15h-79q-56 0 -81.5 -24.5t-25.5 -75.5v-129h189q33 0 47 -15t14 -48v-63q0 -33 -14 -48.5t-47 -15.5h-189v-818q0 -63 -64 -63h-96q-65 0 -65 63zM1445 64q0 -64 65 -64h96q64 0 64 64v944 q0 63 -64 63h-96q-65 0 -65 -63v-944zM1445 1283v135q0 65 65 65h96q64 0 64 -65v-135q0 -65 -64 -65h-96q-65 0 -65 65z" />
<glyph unicode="&#xfb04;" horiz-adv-x="1817" d="M44 946v62q0 63 64 63h98v125q0 141 83.5 214t244.5 73h80q65 0 65 -64v-55q0 -34 -15.5 -49t-49.5 -15h-77q-56 0 -81 -24.5t-25 -75.5v-129h189q32 0 45.5 -15t13.5 -48v-63q0 -34 -13.5 -49t-45.5 -15h-189v-818q0 -63 -65 -63h-96q-64 0 -64 63v818h-98q-64 0 -64 65 zM826 63v1133q0 141 83.5 214t245.5 73h81q64 0 64 -64v-55q0 -34 -15.5 -49t-48.5 -15h-78q-56 0 -81.5 -24.5t-25.5 -75.5v-129h189q33 0 46.5 -15t13.5 -48v-63q0 -34 -14 -49t-46 -15h-189v-818q0 -63 -65 -63h-96q-64 0 -64 63zM1457 64v1354q0 65 64 65h97 q65 0 65 -65v-1354q0 -64 -65 -64h-97q-64 0 -64 64z" />
<glyph horiz-adv-x="0" />
<glyph horiz-adv-x="0" />
<glyph horiz-adv-x="682" />
<glyph unicode="&#xd;" horiz-adv-x="459" />
<glyph unicode=" "  horiz-adv-x="459" />
<glyph unicode="&#x09;" horiz-adv-x="459" />
<glyph unicode="&#xa0;" horiz-adv-x="459" />
<glyph unicode="!" horiz-adv-x="529" d="M126 71v89q0 76 78 76h120q79 0 79 -76v-89q0 -77 -79 -77h-120q-78 0 -78 77zM152 423v913q0 63 66 63h94q65 0 65 -63v-913q0 -64 -65 -64h-94q-66 0 -66 64z" />
<glyph unicode="&#x22;" horiz-adv-x="708" d="M88 984v447q0 37 17 53t53 16h54q36 0 53 -16.5t17 -53.5v-445q0 -38 -16.5 -55.5t-53.5 -17.5h-54q-70 0 -70 72zM426 984v447q0 37 17 53t53 16h54q36 0 53 -16.5t17 -53.5v-445q0 -38 -16.5 -55.5t-53.5 -17.5h-54q-70 0 -70 72z" />
<glyph unicode="#" horiz-adv-x="1187" d="M87 443l6 45q3 24 19.5 39t41.5 15h137l49 311h-135q-24 0 -37 15t-10 39l6 44q3 24 19.5 39t40.5 15h138l52 336q3 24 19.5 38.5t40.5 14.5h53q24 0 37.5 -15t10.5 -39l-52 -335h218l52 336q3 24 19.5 38.5t40.5 14.5h53q24 0 37.5 -15t9.5 -39l-52 -335h152 q24 0 37 -15t11 -39l-7 -44q-3 -24 -20 -39t-41 -15h-154l-48 -311h152q24 0 37 -15t9 -39l-6 -45q-3 -24 -19.5 -39t-40.5 -15h-155l-52 -336q-3 -24 -19.5 -38.5t-40.5 -14.5h-53q-25 0 -38 15t-9 40l52 334h-219l-52 -336q-2 -24 -19 -38.5t-41 -14.5h-53q-25 0 -37.5 15 t-8.5 40l51 334h-135q-24 0 -37.5 15t-9.5 39zM452 542h218l49 311h-219z" />
<glyph unicode="$" horiz-adv-x="1170" d="M115 349v42q0 66 67 66h94q66 0 66 -66v-55q0 -153 169 -153h150q169 0 169 153v46q0 64 -31 104.5t-100 63.5l-301 102q-144 49 -210.5 134.5t-66.5 224.5v35q0 164 96 257t275 100v113q0 64 64 64h58q64 0 64 -64v-113q179 -8 274.5 -99t95.5 -258v-46q0 -66 -67 -66 h-93q-66 0 -66 66v56q0 153 -168 153h-137q-170 0 -170 -152v-47q0 -63 31 -103t100 -64l301 -101q150 -51 213.5 -136t63.5 -225v-31q0 -171 -96.5 -263t-281.5 -96v-128q0 -64 -64 -64h-58q-64 0 -64 64v128q-185 5 -281 96t-96 262z" />
<glyph unicode="%" horiz-adv-x="1719" d="M95 847v333q0 104 69 164t189 60h73q119 0 188.5 -60t69.5 -164v-333q0 -105 -69.5 -164t-188.5 -59h-73q-120 0 -189 59.5t-69 163.5zM268 846q0 -33 23 -51.5t62 -18.5h73q39 0 62 18.5t23 51.5v336q0 33 -23 51.5t-62 18.5h-73q-39 0 -62 -18.5t-23 -51.5v-336z M486 32q0 15 5 26l571 1301q11 26 26 37t45 11h54q22 0 35.5 -12.5t13.5 -32.5q0 -10 -8 -29l-568 -1298q-12 -26 -26.5 -37t-42.5 -11h-56q-23 0 -36 12.5t-13 32.5zM1037 214v333q0 104 69 164t189 60h73q119 0 188 -60t69 -164v-333q0 -105 -69 -164t-188 -59h-73 q-120 0 -189 59.5t-69 163.5zM1210 212q0 -33 23 -51t62 -18h73q39 0 61.5 18t22.5 51v337q0 33 -22.5 51.5t-61.5 18.5h-73q-39 0 -62 -18.5t-23 -51.5v-337z" />
<glyph unicode="&#x26;" horiz-adv-x="1240" d="M101 355v60q0 117 53.5 192.5t155.5 98.5q-82 30 -124.5 103.5t-42.5 177.5v58q0 175 101.5 268t292.5 93h67q186 0 290.5 -93.5t104.5 -262.5v-29q0 -24 -17 -40t-44 -16h-109q-29 0 -46 16t-17 44v33q0 72 -39.5 110t-116.5 38h-78q-77 0 -117 -38t-40 -110v-102 q0 -79 32 -117.5t87 -38.5h5q36 0 51.5 -16t15.5 -51v-65q0 -35 -15.5 -50.5t-51.5 -15.5h-22q-76 0 -109.5 -34t-33.5 -116v-108q0 -75 43 -115t125 -40h153q82 0 125 40t43 115v258h-67q-67 0 -67 66v65q0 67 67 67h360q68 0 68 -67v-65q0 -66 -68 -66h-60v-247 q0 -176 -105.5 -271.5t-300.5 -95.5h-142q-195 0 -301 95.5t-106 271.5z" />
<glyph unicode="'" horiz-adv-x="372" d="M88 984v447q0 37 17 53t53 16h56q37 0 54 -16.5t17 -53.5v-445q0 -38 -17 -55.5t-54 -17.5h-56q-70 0 -70 72z" />
<glyph unicode="(" horiz-adv-x="582" d="M140 -7v1317q0 286 311 286h57q34 0 50.5 -14.5t16.5 -47.5v-30q0 -67 -67 -67h-51q-59 0 -91 -33t-32 -94v-1317q0 -61 32 -92.5t91 -31.5h51q67 0 67 -67v-26q0 -66 -67 -66h-57q-146 0 -228.5 68t-82.5 215z" />
<glyph unicode=")" horiz-adv-x="582" d="M8 -198q0 67 67 67h50q59 0 91.5 31.5t32.5 92.5v1317q0 61 -32.5 94t-91.5 33h-50q-67 0 -67 67v30q0 33 16.5 47.5t50.5 14.5h56q312 0 312 -286v-1317q0 -147 -82.5 -215t-229.5 -68h-56q-67 0 -67 66v26z" />
<glyph unicode="*" horiz-adv-x="782" d="M55.5 1002q4.5 15 17.5 23l168 106l-168 105q-13 8 -17.5 23.5t3.5 28.5l30 50q9 14 24.5 17.5t25.5 -3.5l168 -105v215q0 15 11.5 26t26.5 11h59q15 0 26 -11t11 -26v-215l167 104q15 8 30 4t22 -17l29 -50q8 -13 4 -28.5t-17 -23.5l-170 -105l170 -106 q13 -8 16.5 -22.5t-3.5 -28.5l-29 -51q-7 -13 -22 -16.5t-30 4.5l-167 103v-214q0 -16 -11 -27.5t-26 -11.5h-59q-15 0 -26.5 11.5t-11.5 27.5v215l-168 -105q-9 -7 -25.5 -4.5t-24.5 17.5l-30 51q-8 13 -3.5 28z" />
<glyph unicode="+" horiz-adv-x="961" d="M64 676v43q0 65 65 65h264v265q0 65 66 65h43q65 0 65 -65v-265h266q65 0 65 -65v-43q0 -67 -65 -67h-266v-264q0 -66 -65 -66h-43q-66 0 -66 66v264h-264q-65 0 -65 67z" />
<glyph unicode="," horiz-adv-x="433" d="M37 -271q0 15 3 24l108 431q15 61 75 61h71q62 0 62 -59q0 -9 -3 -21l-114 -436q-15 -58 -75 -58h-68q-59 0 -59 58z" />
<glyph unicode="-" horiz-adv-x="649" d="M98 526v70q0 64 65 64h323q65 0 65 -64v-70q0 -65 -65 -65h-323q-65 0 -65 65z" />
<glyph unicode="." horiz-adv-x="528" d="M125 71v112q0 76 78 76h121q80 0 80 -76v-112q0 -37 -21 -57t-59 -20h-121q-78 0 -78 77z" />
<glyph unicode="/" horiz-adv-x="738" d="M44 -125q0 5 4 17l488 1610q13 44 63 44h46q21 0 35.5 -12t14.5 -32q0 -5 -4 -21l-488 -1606q-13 -45 -63 -45h-48q-20 0 -34 12.5t-14 32.5z" />
<glyph unicode="0" horiz-adv-x="1177" d="M124 366v662q0 187 101.5 282.5t296.5 95.5h133q195 0 297 -95.5t102 -282.5v-662q0 -187 -102 -282.5t-297 -95.5h-133q-195 0 -296.5 95.5t-101.5 282.5zM352 355q0 -167 164 -167h145q165 0 165 167v684q0 168 -165 168h-145q-164 0 -164 -168v-684z" />
<glyph unicode="1" horiz-adv-x="958" d="M101 66v62q0 66 66 66h237v968l-226 -70q-12 -4 -24 -4q-22 0 -37.5 16t-15.5 49v73q0 54 52 68l363 104q22 5 33 5q38 0 60 -22.5t22 -65.5v-1121h203q67 0 67 -66v-62q0 -66 -67 -66h-667q-66 0 -66 66z" />
<glyph unicode="2" horiz-adv-x="1175" d="M125 981v47q0 187 101.5 282.5t296.5 95.5h119q195 0 296.5 -95.5t101.5 -282.5v-43q0 -140 -58 -227.5t-191 -151.5l-325 -156q-105 -50 -105 -166v-90h623q66 0 66 -65v-63q0 -66 -67 -66h-783q-67 0 -67 66v212q0 132 57 217t192 150l325 156q56 27 80.5 72.5 t24.5 121.5v48q0 167 -164 167h-131q-164 0 -164 -167v-62q0 -65 -66 -65h-96q-66 0 -66 65z" />
<glyph unicode="3" horiz-adv-x="1177" d="M124 355v19q0 66 66 66h95q67 0 67 -66v-34q0 -77 41 -118t122 -41h146q80 0 122.5 41.5t42.5 117.5v112q0 81 -39.5 118.5t-128.5 37.5h-154q-65 0 -65 68v61q0 67 65 67h130q89 0 127.5 37t38.5 118v95q0 77 -41.5 118t-122.5 41h-116q-80 0 -121.5 -40t-43.5 -113v-31 q0 -65 -66 -65h-97q-66 0 -66 65v15q1 177 104 269.5t295 92.5h106q194 0 296 -93.5t102 -273.5v-52q0 -109 -52 -181t-152 -98q113 -21 170.5 -96.5t57.5 -192.5v-64q0 -180 -102 -273.5t-296 -93.5h-134q-194 0 -295.5 93.5t-101.5 273.5z" />
<glyph unicode="4" horiz-adv-x="1192" d="M73 541q0 18 3 29l156 769q12 55 67 55h98q29 0 44 -15t15 -38q0 -8 -3 -20l-140 -689h406v697q0 65 66 65h97q65 0 65 -65v-697h109q66 0 66 -65v-63q0 -65 -66 -65h-109v-373q0 -66 -65 -66h-97q-66 0 -66 66v373h-536q-51 0 -80.5 29.5t-29.5 72.5z" />
<glyph unicode="5" horiz-adv-x="1175" d="M132 361v9q0 66 61 66h105q33 0 47 -16t14 -50v-24q0 -164 165 -164h128q165 0 165 170v143q0 168 -165 168h-420q-65 0 -65 66v600q0 65 65 65h705q65 0 65 -65v-63q0 -65 -65 -65h-543v-337h253q398 0 398 -376v-122q0 -187 -101.5 -282.5t-296.5 -95.5h-118 q-194 0 -295.5 94.5t-101.5 278.5z" />
<glyph unicode="6" horiz-adv-x="1177" d="M124 366v662q0 187 101.5 282.5t296.5 95.5h131q191 0 294.5 -89t103.5 -256v-5q0 -58 -59 -58h-110q-59 0 -59 63v7q0 66 -43.5 105t-120.5 39h-143q-164 0 -164 -169v-295l211 61q90 26 180 26q149 0 230 -85.5t81 -238.5v-145q0 -187 -102 -282.5t-297 -95.5h-133 q-195 0 -296.5 95.5t-101.5 282.5zM352 352q0 -170 164 -170h145q165 0 165 170v155q0 137 -131 137q-47 0 -94 -14l-249 -70v-208z" />
<glyph unicode="7" horiz-adv-x="1104" d="M89 971v358q0 65 65 65h782q66 0 66 -65v-292q0 -140 -39 -227t-135 -164l-110 -89q-61 -50 -84.5 -102.5t-23.5 -137.5v-251q0 -66 -65 -66h-97q-67 0 -67 66v251q0 134 38.5 222t132.5 164l112 91q63 52 86.5 102t23.5 141v164h-457v-230q0 -66 -66 -66h-97 q-65 0 -65 66z" />
<glyph unicode="8" horiz-adv-x="1177" d="M125 349v26q0 81 38.5 151t106.5 113l100 63l-98 63q-141 90 -141 264v22q0 175 101.5 265t295.5 90h120q195 0 296.5 -90t101.5 -265v-22q0 -174 -141 -264l-98 -63l101 -63q68 -43 106 -111.5t38 -149.5v-29q0 -179 -101.5 -270t-296.5 -91h-131q-194 0 -296 91 t-102 270zM354 335q0 -152 164 -152h142q164 0 164 152v51q0 95 -91 146l-144 80l-144 -80q-91 -50 -91 -146v-51zM358 1017q0 -52 22 -85.5t71 -61.5l138 -77l139 77q48 27 69 60.5t21 86.5v49q0 75 -41 110.5t-123 35.5h-131q-83 0 -124 -35.5t-41 -110.5v-49z" />
<glyph unicode="9" horiz-adv-x="1177" d="M124 883v145q0 187 101.5 282.5t296.5 95.5h133q195 0 297 -95.5t102 -282.5v-662q0 -187 -102 -282.5t-297 -95.5h-131q-190 0 -294 89.5t-104 256.5v4q0 26 14.5 42t45.5 16h108q60 0 60 -62v-8q0 -66 44 -104.5t121 -38.5h142q164 0 164 169v294l-211 -61 q-86 -25 -180 -25q-150 0 -230 85t-80 238zM352 887q0 -137 129 -137q46 0 96 15l248 70v208q0 170 -164 170h-145q-164 0 -164 -170v-156z" />
<glyph unicode=":" horiz-adv-x="533" d="M128 71v112q0 76 78 76h121q79 0 79 -76v-112q0 -77 -79 -77h-121q-78 0 -78 77zM128 888v113q0 77 78 77h121q79 0 79 -77v-113q0 -76 -79 -76h-121q-78 0 -78 76z" />
<glyph unicode=";" horiz-adv-x="495" d="M59 -271q0 15 3 24l109 431q15 61 74 61h71q62 0 62 -59q0 -9 -3 -21l-115 -436q-15 -58 -74 -58h-68q-29 0 -44 15.5t-15 42.5zM132 888v113q0 77 78 77h121q79 0 79 -77v-113q0 -76 -79 -76h-121q-78 0 -78 76z" />
<glyph unicode="&#x3c;" horiz-adv-x="981" d="M62 655v83q0 50 57 73l709 278q15 5 24 5q19 0 32 -12.5t13 -35.5v-60q0 -25 -11 -40t-39 -26l-575 -224l575 -222q28 -11 39 -26t11 -40v-61q0 -23 -13 -35t-32 -12q-12 0 -25 5l-708 277q-57 22 -57 73z" />
<glyph unicode="=" horiz-adv-x="977" d="M72 504v42q0 66 64 66h705q64 0 64 -66v-42q0 -66 -64 -66h-705q-64 0 -64 66zM72 850v42q0 65 64 65h705q64 0 64 -65v-42q0 -67 -64 -67h-705q-64 0 -64 67z" />
<glyph unicode="&#x3e;" horiz-adv-x="981" d="M84 347v61q0 25 11.5 40t39.5 26l574 222l-574 224q-28 11 -39.5 26t-11.5 40v60q0 23 13 35.5t32 12.5q10 0 25 -5l708 -278q57 -23 57 -73v-83q0 -51 -57 -73l-708 -277q-13 -5 -24 -5q-19 0 -32.5 12t-13.5 35z" />
<glyph unicode="?" horiz-adv-x="992" d="M75 998v55q0 172 98.5 262.5t287.5 90.5h71q189 0 286.5 -90.5t97.5 -262.5v-64q0 -110 -34.5 -178.5t-111.5 -110.5l-90 -49q-48 -26 -61.5 -57t-13.5 -96v-69q0 -65 -66 -65h-88q-67 0 -67 65v105q0 105 30.5 164t112.5 104l89 49q41 23 57 58t16 94v64q0 74 -38 113 t-113 39h-83q-75 0 -114 -39t-39 -113v-69q0 -65 -66 -65h-93q-68 0 -68 65zM357 71v89q0 76 77 76h122q77 0 77 -76v-89q0 -77 -77 -77h-122q-77 0 -77 77z" />
<glyph unicode="@" horiz-adv-x="1644" d="M123 381v308q0 280 176.5 445.5t468.5 165.5h108q295 0 470 -165t175 -446v-297q0 -124 -77.5 -201.5t-198.5 -77.5q-145 0 -224 108l-158 -69q-92 -39 -144 -39q-109 0 -170.5 61.5t-61.5 183.5v326q0 135 71 201t215 66h97q144 0 212 -65.5t68 -201.5v-298 q0 -42 26 -67t69 -25t68.5 25t25.5 67v303q0 208 -120 327t-343 119h-108q-219 0 -341 -119.5t-122 -326.5v-308q0 -215 118 -330t340 -115h408q29 0 41.5 -13t12.5 -41v-58q0 -28 -12.5 -41t-41.5 -13h-408q-295 0 -467.5 161.5t-172.5 449.5zM670 385q0 -98 89 -98 q33 0 62 13l149 64q-1 9 -1 28v297q0 55 -22.5 75.5t-75.5 20.5h-99q-54 0 -78 -21t-24 -75v-304z" />
<glyph unicode="A" horiz-adv-x="1239" d="M66 55q0 9 3 20l378 1258q19 61 78 61h190q59 0 77 -61l376 -1256q4 -12 4 -22q0 -23 -15.5 -39t-45.5 -16h-94q-32 0 -48.5 15t-26.5 46l-88 281h-471l-87 -281q-19 -61 -76 -61h-92q-30 0 -46 15.5t-16 39.5zM431 527h375l-94 311q-36 115 -92 342q-48 -194 -94 -342z " />
<glyph unicode="B" horiz-adv-x="1204" d="M161 66v1263q0 65 67 65h439q392 0 392 -347v-43q0 -250 -205 -295q116 -17 173.5 -95.5t57.5 -202.5v-53q0 -358 -399 -358h-458q-67 0 -67 66zM394 193h295q85 0 124 39.5t39 117.5v104q0 85 -39 122t-124 37h-295v-420zM394 800h271q83 0 122.5 39t39.5 122v90 q0 78 -37.5 114t-119.5 36h-276v-401z" />
<glyph unicode="C" horiz-adv-x="1247" d="M138 366v662q0 187 105 282.5t302 95.5h157q197 0 302 -95.5t105 -282.5v-67q0 -67 -67 -67h-98q-67 0 -67 67v78q0 83 -43.5 125.5t-125.5 42.5h-169q-167 0 -167 -168v-684q0 -167 167 -167h169q169 0 169 167v78q0 67 67 67h98q67 0 67 -67v-67q0 -187 -105 -282.5 t-302 -95.5h-157q-197 0 -302 95.5t-105 282.5z" />
<glyph unicode="D" horiz-adv-x="1233" d="M161 66v1263q0 65 67 65h460q199 0 303 -94.5t104 -281.5v-639q0 -188 -104.5 -283.5t-302.5 -95.5h-460q-67 0 -67 66zM393 194h301q82 0 125 43t43 127v669q0 168 -168 168h-301v-1007z" />
<glyph unicode="E" horiz-adv-x="1094" d="M161 66v1263q0 65 67 65h657q67 0 67 -65v-63q0 -65 -67 -65h-491v-398h491q67 0 67 -66v-61q0 -68 -67 -68h-491v-414h491q67 0 67 -66v-62q0 -66 -67 -66h-657q-67 0 -67 66z" />
<glyph unicode="F" horiz-adv-x="1049" d="M161 66v1263q0 65 67 65h657q67 0 67 -65v-63q0 -65 -67 -65h-491v-412h491q67 0 67 -66v-62q0 -66 -67 -66h-491v-529q0 -66 -67 -66h-99q-67 0 -67 66z" />
<glyph unicode="G" horiz-adv-x="1248" d="M139 366v662q0 187 104.5 282.5t301.5 95.5h157q198 0 302.5 -95.5t104.5 -282.5v-45q0 -66 -67 -66h-98q-67 0 -67 66v56q0 83 -43.5 125.5t-125.5 42.5h-168q-168 0 -168 -168v-684q0 -167 168 -167h168q169 0 169 167v164h-199q-67 0 -67 66v63q0 65 67 65h364 q67 0 67 -65v-282q0 -187 -104.5 -282.5t-302.5 -95.5h-157q-197 0 -301.5 95.5t-104.5 282.5z" />
<glyph unicode="H" horiz-adv-x="1269" d="M160 66v1263q0 65 67 65h100q66 0 66 -65v-526h483v526q0 65 68 65h99q66 0 66 -65v-1263q0 -66 -66 -66h-99q-68 0 -68 66v542h-483v-542q0 -66 -66 -66h-100q-67 0 -67 66z" />
<glyph unicode="I" horiz-adv-x="569" d="M169 66v1263q0 65 66 65h100q66 0 66 -65v-1263q0 -66 -66 -66h-100q-66 0 -66 66z" />
<glyph unicode="J" horiz-adv-x="756" d="M57 -82q0 66 67 66h59q91 0 134 38.5t43 126.5v1052h-208q-67 0 -67 65v63q0 65 67 65h380q28 0 44 -16t16 -44v-1168q0 -185 -104.5 -281t-309.5 -96h-54q-67 0 -67 68v61z" />
<glyph unicode="K" horiz-adv-x="1152" d="M153 66v1263q0 65 66 65h101q66 0 66 -65v-523h133l316 527q20 33 40 47t58 14h92q29 0 44.5 -15.5t15.5 -40.5q0 -13 -7 -26l-357 -608l360 -620q9 -15 9 -29q0 -55 -58 -55h-98q-34 0 -54.5 14t-38.5 45l-325 547h-130v-540q0 -66 -66 -66h-101q-66 0 -66 66z" />
<glyph unicode="L" horiz-adv-x="936" d="M161 66v1263q0 65 66 65h101q65 0 65 -65v-1135h447q66 0 66 -66v-62q0 -66 -66 -66h-613q-66 0 -66 66z" />
<glyph unicode="M" horiz-adv-x="1556" d="M162 66v1258q0 70 68 70h131q34 0 52.5 -14.5t33.5 -45.5l205 -435q48 -100 126 -276q36 81 127 276l204 435q14 31 33 45.5t53 14.5h132q67 0 67 -70v-1258q0 -66 -65 -66h-86q-65 0 -65 66v635q0 146 6 317q-90 -222 -157 -348l-144 -270q-38 -69 -105 -69 q-68 0 -105 69l-144 270q-17 31 -33.5 65.5t-34.5 75t-29.5 67.5t-32 75t-27.5 65q6 -137 6 -317v-635q0 -66 -65 -66h-87q-64 0 -64 66z" />
<glyph unicode="N" horiz-adv-x="1281" d="M161 66v1260q0 68 70 68h121q47 0 69 -41l325 -614q87 -163 163 -335q-9 169 -9 319v606q0 65 68 65h87q65 0 65 -65v-1262q0 -67 -69 -67h-120q-46 0 -68 41l-333 633q-112 214 -156 316q7 -140 7 -316v-608q0 -66 -66 -66h-87q-67 0 -67 66z" />
<glyph unicode="O" horiz-adv-x="1253" d="M139 366v662q0 187 104.5 282.5t301.5 95.5h163q197 0 302 -95.5t105 -282.5v-662q0 -187 -105 -282.5t-302 -95.5h-163q-197 0 -301.5 95.5t-104.5 282.5zM372 355q0 -167 168 -167h174q168 0 168 167v684q0 168 -168 168h-174q-168 0 -168 -168v-684z" />
<glyph unicode="P" horiz-adv-x="1124" d="M161 60v1279q0 55 61 55h415q395 0 395 -361v-169q0 -353 -395 -353h-244v-451q0 -28 -15.5 -44t-43.5 -16h-112q-28 0 -44.5 16t-16.5 44zM393 710h250q81 0 118.5 35.5t37.5 111.5v191q0 80 -37 116.5t-119 36.5h-250v-491z" />
<glyph unicode="Q" horiz-adv-x="1253" d="M139 366v662q0 187 104.5 282.5t301.5 95.5h163q197 0 302 -95.5t105 -282.5v-662q0 -181 -99 -276.5t-286 -100.5v-127q0 -59 -58 -59h-91q-58 0 -58 59v127q-187 5 -285.5 100.5t-98.5 276.5zM372 355q0 -158 151 -167v72q0 30 13.5 44t44.5 14h91q31 0 44.5 -14 t13.5 -44v-72q152 8 152 167v684q0 168 -168 168h-174q-168 0 -168 -168v-684z" />
<glyph unicode="R" horiz-adv-x="1181" d="M161 66v1263q0 65 67 65h439q393 0 393 -355v-82q0 -118 -55.5 -195.5t-157.5 -96.5q213 -37 213 -286v-313q0 -66 -67 -66h-100q-66 0 -66 66v342q0 81 -39.5 118.5t-122.5 37.5h-272v-498q0 -66 -64 -66h-101q-67 0 -67 66zM393 759h272q83 0 122.5 38t39.5 119v134 q0 78 -37.5 114.5t-119.5 36.5h-277v-442z" />
<glyph unicode="S" horiz-adv-x="1236" d="M135 349v42q0 66 67 66h103q64 0 64 -66v-56q0 -153 168 -153h165q168 0 168 153v47q0 64 -30.5 103.5t-99.5 62.5l-315 101q-145 46 -212.5 134t-67.5 228v35q0 173 105.5 266.5t301.5 93.5h137q196 0 300.5 -92t104.5 -268v-45q0 -67 -67 -67h-99q-67 0 -67 67v58 q0 153 -166 153h-149q-168 0 -168 -151v-51q0 -64 30 -102.5t100 -61.5l314 -102q152 -49 216 -135.5t64 -227.5v-31q0 -176 -102.5 -269t-297.5 -93h-165q-197 0 -299.5 92t-102.5 269z" />
<glyph unicode="T" horiz-adv-x="986" d="M27 1266v63q0 65 67 65h798q66 0 66 -65v-63q0 -65 -66 -65h-284v-1135q0 -66 -65 -66h-100q-67 0 -67 66v1135h-282q-67 0 -67 65z" />
<glyph unicode="U" horiz-adv-x="1267" d="M153 355v974q0 65 67 65h99q67 0 67 -65v-986q0 -75 43 -115t125 -40h159q82 0 125 40t43 115v986q0 65 67 65h99q67 0 67 -65v-974q0 -179 -105 -273t-302 -94h-147q-197 0 -302 94t-105 273z" />
<glyph unicode="V" horiz-adv-x="1195" d="M63 1338q0 25 16.5 40.5t48.5 15.5h102q61 0 77 -62l209 -782q42 -162 81 -335q47 208 81 336l209 781q16 62 77 62h104q31 0 47.5 -15.5t16.5 -40.5q0 -10 -3 -20l-358 -1257q-9 -33 -26 -47t-49 -14h-198q-32 0 -49 14t-26 47l-356 1257q-4 14 -4 20z" />
<glyph unicode="W" horiz-adv-x="1677" d="M61 1338q0 56 63 56h98q54 0 65 -60l141 -766q17 -93 56 -348q32 180 73 353l156 669q14 63 69 63h114q55 0 69 -63l159 -669q30 -128 72 -353q31 224 54 349l141 765q11 60 62 60h101q63 0 63 -56q0 -11 -2 -20l-241 -1257q-12 -61 -66 -61h-196q-30 0 -46 15t-24 49 l-132 550q-12 51 -39.5 192.5t-31.5 162.5q-3 -14 -31.5 -159t-40.5 -197l-131 -549q-8 -34 -24 -49t-46 -15h-197q-52 0 -64 61l-242 1255q-2 9 -2 22z" />
<glyph unicode="X" horiz-adv-x="1188" d="M84 55q0 15 8 28l347 618l-343 611q-7 16 -7 28q0 24 16 39t44 15h98q54 0 82 -50l265 -473l267 473q29 50 81 50h97q29 0 45 -14.5t16 -39.5q0 -14 -7 -27l-343 -612l347 -618q9 -15 9 -28q0 -24 -16.5 -39.5t-45.5 -15.5h-97q-53 0 -81 51l-272 480l-271 -480 q-28 -51 -82 -51h-97q-29 0 -44.5 15t-15.5 40z" />
<glyph unicode="Y" horiz-adv-x="1103" d="M44 1341q0 22 16 37.5t47 15.5h96q31 0 47 -11.5t27 -35.5l167 -369q63 -138 108 -250q38 94 108 250l163 364q24 52 78 52h97q30 0 45 -15.5t15 -37.5q0 -16 -8 -32l-382 -789v-454q0 -66 -66 -66h-100q-66 0 -66 66v453l-385 793q-7 14 -7 29z" />
<glyph unicode="Z" horiz-adv-x="1156" d="M103 66v77q0 41 18 67l653 991h-598q-67 0 -67 65v63q0 65 67 65h798q67 0 67 -65v-79q0 -40 -22 -71l-650 -985h611q67 0 67 -66v-62q0 -66 -67 -66h-810q-67 0 -67 66z" />
<glyph unicode="[" horiz-adv-x="570" d="M140 -223v1748q0 71 74 71h282q66 0 66 -64v-28q0 -66 -66 -66h-161v-1570h161q66 0 66 -67v-25q0 -66 -66 -66h-282q-74 0 -74 67z" />
<glyph unicode="\" horiz-adv-x="738" d="M44 1502q0 20 14.5 32t35.5 12h46q50 0 63 -44l488 -1610q4 -12 4 -17q0 -20 -14 -32.5t-34 -12.5h-48q-50 0 -63 45l-488 1606q-4 16 -4 21z" />
<glyph unicode="]" horiz-adv-x="570" d="M9 -199q0 67 66 67h161v1570h-161q-66 0 -66 66v28q0 64 66 64h282q74 0 74 -71v-1748q0 -67 -74 -67h-282q-66 0 -66 66v25z" />
<glyph unicode="^" horiz-adv-x="960" d="M83 617q0 11 6 26l277 706q22 57 73 57h82q51 0 74 -57l278 -708q4 -12 4 -25q0 -19 -12.5 -31.5t-35.5 -12.5h-60q-25 0 -39.5 11t-25.5 39l-224 575l-223 -575q-11 -28 -26 -39t-40 -11h-60q-23 0 -35.5 13t-12.5 32z" />
<glyph unicode="_" horiz-adv-x="1008" d="M88 -276q0 65 65 65h703q65 0 65 -65v-50q0 -65 -65 -65h-703q-65 0 -65 65v50z" />
<glyph unicode="`" horiz-adv-x="815" d="M241 1474q0 48 59 48h76q60 0 82 -46l98 -193q11 -20 11 -39q0 -49 -57 -49h-71q-58 0 -81 43l-105 196q-12 22 -12 40z" />
<glyph unicode="a" horiz-adv-x="1043" d="M91 277v61q0 276 354 276h245v163q0 65 -31.5 95t-97.5 30h-96q-123 0 -123 -102q0 -34 -15 -49.5t-50 -15.5h-96q-64 0 -64 61q0 134 90.5 210.5t259.5 76.5h92q356 0 356 -321v-698q0 -64 -65 -64h-81q-64 0 -64 64v16l-142 -54q-97 -38 -184 -38q-129 0 -208.5 76.5 t-79.5 212.5zM317 265q0 -52 29 -78t83 -26q39 0 76 13l185 59v221h-238q-70 0 -102.5 -24.5t-32.5 -78.5v-86z" />
<glyph unicode="b" horiz-adv-x="1070" d="M125 310v1109q0 64 64 64h97q65 0 65 -64v-430l120 53q93 41 189 41q140 0 216 -80.5t76 -240.5v-452q0 -157 -92.5 -239.5t-263.5 -82.5h-115q-172 0 -264 82.5t-92 239.5zM351 296q0 -61 33.5 -91t94.5 -30h119q61 0 95 30t34 91v463q0 65 -28.5 93.5t-85.5 28.5 q-41 0 -91 -19l-171 -67v-499z" />
<glyph unicode="c" horiz-adv-x="1056" d="M118 310v452q0 157 92.5 239t263.5 82h107q170 0 263.5 -83t93.5 -238v-24q0 -65 -65 -65h-96q-64 0 -64 65v37q0 61 -34 91t-95 30h-112q-61 0 -95 -30.5t-34 -90.5v-479q0 -61 34 -91t95 -30h112q61 0 95 30t34 91v39q0 64 64 64h96q65 0 65 -64v-25q0 -156 -93 -239 t-264 -83h-107q-171 0 -263.5 82.5t-92.5 239.5z" />
<glyph unicode="d" horiz-adv-x="1077" d="M118 304v458q0 157 92.5 239t263.5 82h58q124 0 187 -50v385q0 65 65 65h96q65 0 65 -65v-1355q0 -63 -64 -63h-76q-65 0 -65 63v27l-138 -59q-99 -43 -192 -43q-139 0 -215.5 81t-76.5 235zM343 309q0 -124 111 -124q47 0 93 18l172 66v513q0 55 -35 84.5t-100 29.5 h-112q-129 0 -129 -121v-466z" />
<glyph unicode="e" horiz-adv-x="1055" d="M118 310v452q0 157 92.5 239t263.5 82h106q172 0 265 -82.5t93 -238.5v-167q0 -53 -31.5 -83t-90.5 -30h-473v-188q0 -61 34 -92t95 -31h111q60 0 95 25.5t35 70.5v4q0 56 63 56h99q63 0 63 -56v-5q0 -125 -94.5 -201.5t-259.5 -76.5h-110q-171 0 -263.5 82.5 t-92.5 239.5zM343 642h370v136q0 61 -34.5 92t-95.5 31h-111q-61 0 -95 -31t-34 -92v-136z" />
<glyph unicode="f" horiz-adv-x="674" d="M44 946v62q0 63 64 63h98v125q0 141 83.5 214t244.5 73h86q64 0 64 -64v-55q0 -34 -15.5 -49t-48.5 -15h-83q-56 0 -81 -24.5t-25 -75.5v-129h154q32 0 45.5 -15t13.5 -48v-63q0 -34 -13.5 -49t-45.5 -15h-154v-818q0 -63 -65 -63h-96q-64 0 -64 63v818h-98q-64 0 -64 65 z" />
<glyph unicode="g" d="M118 342v420q0 157 92.5 239t263.5 82h114q171 0 264 -82.5t93 -238.5v-845q0 -156 -92.5 -237.5t-261.5 -81.5h-117q-170 0 -262.5 71t-92.5 196q0 29 15.5 45t43.5 16h107q59 0 59 -69q0 -81 128 -81h119q128 0 128 116v228l-111 -48q-106 -46 -198 -46q-140 0 -216 79 t-76 237zM343 346q0 -66 26.5 -93.5t83.5 -27.5q48 0 94 18l172 67v465q0 61 -33.5 91t-94.5 30h-119q-61 0 -95 -30.5t-34 -90.5v-429z" />
<glyph unicode="h" horiz-adv-x="1088" d="M131 64v1355q0 64 65 64h97q65 0 65 -64v-430l120 53q94 41 189 41q140 0 216 -80.5t76 -240.5v-698q0 -64 -66 -64h-96q-64 0 -64 64v695q0 66 -28 94t-85 28q-41 0 -91 -19l-171 -66v-732q0 -64 -64 -64h-98q-65 0 -65 64z" />
<glyph unicode="i" horiz-adv-x="504" d="M140 64q0 -64 64 -64h96q65 0 65 64v944q0 63 -65 63h-96q-64 0 -64 -63v-944zM140 1268v150q0 65 64 65h96q65 0 65 -65v-150q0 -64 -65 -64h-96q-64 0 -64 64z" />
<glyph unicode="j" horiz-adv-x="504" d="M-9 -270q0 63 58 63q42 0 66 24t24 72v1119q0 63 65 63h97q64 0 64 -63v-1115q0 -141 -83 -218t-233 -77q-58 0 -58 63v69zM139 1268v150q0 65 65 65h97q64 0 64 -65v-150q0 -64 -64 -64h-97q-65 0 -65 64z" />
<glyph unicode="k" horiz-adv-x="1029" d="M132 64v1354q0 65 65 65h97q64 0 64 -65v-758h119l242 362q33 49 82 49h98q31 0 45.5 -15.5t14.5 -37.5q0 -19 -8 -30l-275 -421l286 -486q7 -11 7 -28q0 -22 -15.5 -37.5t-42.5 -15.5h-99q-52 0 -82 50l-254 424h-118v-410q0 -64 -64 -64h-97q-65 0 -65 64z" />
<glyph unicode="l" horiz-adv-x="503" d="M140 64v1354q0 65 64 65h96q64 0 64 -65v-1354q0 -64 -64 -64h-96q-64 0 -64 64z" />
<glyph unicode="m" horiz-adv-x="1654" d="M132 64v944q0 63 65 63h73q64 0 64 -63v-24l127 57q96 42 188 42q163 0 238 -108l155 69q89 39 191 39q140 0 216.5 -81t76.5 -240v-698q0 -64 -66 -64h-96q-64 0 -64 64v695q0 65 -29 93.5t-87 28.5q-41 0 -90 -19l-154 -61q2 -26 2 -39v-698q0 -64 -66 -64h-96 q-64 0 -64 64v695q0 65 -28.5 93.5t-85.5 28.5q-45 0 -91 -19l-153 -61v-737q0 -64 -64 -64h-97q-65 0 -65 64z" />
<glyph unicode="n" horiz-adv-x="1088" d="M132 60v952q0 28 16 43.5t45 15.5h81q29 0 45 -15.5t16 -43.5v-32l143 62q95 41 189 41q140 0 216 -80.5t76 -240.5v-702q0 -28 -16 -44t-45 -16h-104q-28 0 -44 16t-16 44v699q0 65 -28 93t-86 28q-44 0 -91 -18l-171 -66v-736q0 -28 -16 -44t-44 -16h-105q-29 0 -45 16 t-16 44z" />
<glyph unicode="o" d="M118 310v452q0 157 92 239t264 82h114q171 0 264 -82.5t93 -238.5v-452q0 -157 -92.5 -239.5t-264.5 -82.5h-114q-172 0 -264 82.5t-92 239.5zM343 296q0 -61 34 -91t95 -30h119q61 0 94.5 30t33.5 91v479q0 61 -33.5 91t-94.5 30h-119q-61 0 -95 -30.5t-34 -90.5v-479z " />
<glyph unicode="p" horiz-adv-x="1076" d="M131 -325v1333q0 63 65 63h74q64 0 64 -63v-28l143 62q95 41 191 41q140 0 216 -80.5t76 -240.5v-452q0 -157 -92.5 -239.5t-264.5 -82.5h-59q-124 0 -186 49v-362q0 -66 -65 -66h-97q-65 0 -65 66zM358 289q0 -55 35 -84.5t99 -29.5h112q130 0 130 121v463q0 65 -28 93 t-86 28q-47 0 -92 -18l-170 -66v-507z" />
<glyph unicode="q" horiz-adv-x="1074" d="M118 304v458q0 157 92.5 239t263.5 82h114q171 0 264 -82.5t93 -238.5v-1094q0 -27 -16 -43t-43 -16h-107q-28 0 -44 16t-16 43v416l-105 -47q-109 -49 -204 -49q-140 0 -216 79t-76 237zM343 309q0 -67 26.5 -95.5t83.5 -28.5q44 0 93 18l173 67v505q0 61 -33.5 91 t-94.5 30h-119q-61 0 -95 -30.5t-34 -90.5v-466z" />
<glyph unicode="r" horiz-adv-x="717" d="M132 65v941q0 65 66 65h73q66 0 66 -65v-35l77 52q87 60 182 60h18q62 0 62 -65v-87q0 -65 -62 -65h-13q-91 0 -162 -32l-81 -38v-731q0 -65 -66 -65h-94q-66 0 -66 65z" />
<glyph unicode="s" horiz-adv-x="1033" d="M112 273v14q0 58 61 58h104q61 0 61 -58v-20q0 -49 32.5 -75.5t91.5 -26.5h111q123 0 123 106v54q0 79 -99 101l-206 48q-142 33 -207.5 102t-65.5 187v20q0 142 91 221t253 79h108q169 0 258.5 -75t89.5 -207v-9q0 -59 -60 -59h-104q-61 0 -61 59v12q0 50 -32.5 76.5 t-92.5 26.5h-107q-55 0 -86 -28t-31 -78v-47q0 -72 95 -94l204 -48q147 -34 212.5 -102.5t65.5 -192.5v-28q0 -144 -91.5 -222.5t-258.5 -78.5h-111q-168 0 -258 76t-90 209z" />
<glyph unicode="t" horiz-adv-x="733" d="M33 945v63q0 63 65 63h95v262q0 64 65 64h95q66 0 66 -64v-262h185q66 0 66 -63v-63q0 -64 -66 -64h-185v-607q0 -84 87 -84h98q66 0 66 -64v-63q0 -63 -66 -63h-108q-303 0 -303 274v607h-95q-65 0 -65 64z" />
<glyph unicode="u" horiz-adv-x="1087" d="M130 304v703q0 64 65 64h96q63 0 63 -64v-698q0 -66 28 -94.5t86 -28.5q44 0 91 18l171 65v738q0 64 64 64h98q64 0 64 -64v-944q0 -63 -64 -63h-79q-64 0 -64 63v27l-128 -55q-109 -47 -200 -47q-140 0 -215.5 79t-75.5 237z" />
<glyph unicode="v" horiz-adv-x="1011" d="M46 1017q0 24 16 39t46 15h100q55 0 71 -57l155 -553q33 -115 73 -290q43 192 71 290l154 553q16 57 72 57h100q30 0 46 -15t16 -39q0 -9 -4 -23l-280 -944q-9 -29 -25.5 -42.5t-48.5 -13.5h-205q-58 0 -74 56l-280 946q-3 9 -3 21z" />
<glyph unicode="w" horiz-adv-x="1558" d="M56 1018q0 23 16 38t47 15h91q57 0 71 -59l122 -546q45 -206 63 -296q22 130 60 296l124 548q7 30 22.5 43.5t47.5 13.5h118q32 0 48 -14t23 -43l124 -543q41 -180 62 -301q23 133 61 301l122 541q14 59 69 59h92q32 0 48 -14.5t16 -38.5q0 -8 -4 -22l-235 -945 q-14 -57 -68 -57h-180q-57 0 -71 57l-104 417q-36 145 -62 329q-24 -180 -61 -329l-104 -417q-14 -57 -75 -57h-175q-55 0 -70 57l-236 947q-2 8 -2 20z" />
<glyph unicode="x" horiz-adv-x="983" d="M69 54q0 12 8 26l250 466l-250 445q-8 14 -8 27q0 22 15 37.5t45 15.5h98q44 0 73 -49l192 -329l192 329q28 49 72 49h100q29 0 43.5 -15.5t14.5 -37.5q0 -12 -9 -28l-249 -444l251 -467q7 -13 7 -25q0 -24 -14.5 -39t-43.5 -15h-97q-45 0 -74 49l-193 339l-193 -339 q-28 -49 -75 -49h-95q-30 0 -45 15.5t-15 38.5z" />
<glyph unicode="y" horiz-adv-x="1033" d="M45 1017q0 54 60 54h101q32 0 47 -13t24 -44l162 -566q41 -143 78 -311q32 141 78 308l160 569q15 57 73 57h95q65 0 65 -54q0 -9 -4 -21l-322 -1038q-54 -173 -175.5 -266.5t-298.5 -93.5q-65 0 -65 63v68q0 64 65 64q101 0 172 52t105 149h-57q-52 0 -68 54l-291 947 q-4 12 -4 22z" />
<glyph unicode="z" horiz-adv-x="943" d="M81 64v71q0 41 21 68l489 675h-439q-65 0 -65 65v65q0 63 67 63h631q65 0 65 -63v-72q0 -38 -22 -68l-489 -676h459q65 0 65 -64v-64q0 -64 -65 -64h-652q-65 0 -65 64z" />
<glyph unicode="{" horiz-adv-x="680" d="M27 638v31q0 66 68 66h8q140 3 140 157v418q0 151 80.5 218.5t228.5 67.5h52q68 0 68 -62v-30q0 -66 -68 -66h-48q-119 0 -119 -128v-413q0 -203 -166 -244q166 -37 166 -246v-414q0 -125 119 -125h48q68 0 68 -67v-24q0 -67 -68 -67h-52q-146 0 -227.5 70.5t-81.5 217.5 v412q0 159 -140 161h-8q-68 0 -68 67z" />
<glyph unicode="|" horiz-adv-x="411" d="M115 -323v1844q0 69 68 69h45q68 0 68 -69v-1844q0 -67 -68 -67h-45q-68 0 -68 67z" />
<glyph unicode="}" horiz-adv-x="680" d="M8 -199q0 67 68 67h49q118 0 118 125v414q0 209 167 246q-167 42 -167 244v413q0 128 -118 128h-49q-68 0 -68 66v30q0 62 68 62h52q148 0 228.5 -67.5t80.5 -218.5v-418q0 -154 140 -157h8q68 0 68 -66v-31q0 -67 -68 -67h-8q-140 -2 -140 -161v-412 q0 -147 -81.5 -217.5t-227.5 -70.5h-52q-68 0 -68 67v24z" />
<glyph unicode="~" horiz-adv-x="949" d="M77 609v25q0 96 64.5 155t169.5 59q67 0 143 -45l125 -76q31 -19 54 -19q32 0 50 16t18 46v17q0 63 64 63h44q63 0 63 -63v-24q0 -97 -64 -156t-170 -59q-77 0 -142 42l-125 80q-29 19 -55 19q-32 0 -49.5 -16.5t-17.5 -47.5v-16q0 -63 -63 -63h-45q-64 0 -64 63z" />
<glyph unicode="&#xa1;" horiz-adv-x="529" d="M126 911v89q0 77 78 77h120q79 0 79 -77v-89q0 -76 -79 -76h-120q-78 0 -78 76zM152 -265v913q0 64 66 64h94q65 0 65 -64v-913q0 -64 -65 -64h-94q-66 0 -66 64z" />
<glyph unicode="&#xa2;" horiz-adv-x="1029" d="M111 295v481q0 140 79 219t226 87v125q0 64 64 64h69q63 0 63 -64v-125q147 -8 226.5 -87t79.5 -219v-38q0 -28 -18.5 -46.5t-46.5 -18.5h-90q-28 0 -46.5 18.5t-18.5 46.5v52q0 114 -112 114h-143q-111 0 -111 -114v-508q0 -115 111 -115h143q112 0 112 115v49 q0 68 65 68h90q65 0 65 -64v-40q0 -140 -79.5 -219t-226.5 -87v-139q0 -64 -63 -64h-69q-64 0 -64 64v139q-147 8 -226 86.5t-79 219.5z" />
<glyph unicode="&#xa3;" horiz-adv-x="1146" d="M93 66v62q0 66 67 66h89v389h-97q-59 0 -59 59v48q0 59 59 59h97v301q0 169 97.5 262.5t271.5 93.5h63q173 0 271 -93.5t98 -262.5v-41q0 -28 -16.5 -43.5t-45.5 -15.5h-106q-28 0 -44.5 15.5t-16.5 43.5v47q0 150 -140 150h-63q-141 0 -141 -150v-307h297q59 0 59 -59 v-48q0 -59 -59 -59h-297v-389h506q67 0 67 -66v-62q0 -66 -67 -66h-823q-67 0 -67 66z" />
<glyph unicode="&#xa4;" horiz-adv-x="1041" d="M121 385q0 18 15 35l110 109q-22 44 -22 104v125q0 61 23 105l-111 111q-15 15 -15 34t15 34l39 39q13 15 34 15q22 0 35 -15l110 -109q47 25 111 25h111q66 0 111 -25l112 109q13 15 33 15q22 0 35 -15l39 -39q15 -14 15 -34q0 -21 -15 -34l-110 -111q21 -43 21 -105 v-125q0 -62 -21 -104l110 -109q15 -15 15 -35q0 -18 -15 -33l-39 -41q-14 -14 -34 -14t-34 14l-110 109q-49 -26 -113 -26h-111q-63 0 -112 26l-109 -109q-13 -15 -35 -15q-20 0 -34 15l-39 41q-15 14 -15 33zM386 633q0 -79 80 -79h110q80 0 80 80v124q0 42 -19.5 60.5 t-60.5 18.5h-110q-40 0 -60 -18.5t-20 -61.5v-124z" />
<glyph unicode="&#xa5;" horiz-adv-x="1146" d="M106 1340q0 22 15 38t45 16h98q48 0 71 -50l239 -545l239 545q22 50 73 50h95q30 0 45.5 -16t15.5 -38q0 -10 -8 -28l-288 -576h221q27 0 39 -12.5t12 -39.5v-48q0 -28 -11.5 -39.5t-39.5 -11.5h-279v-120h279q28 0 39.5 -11.5t11.5 -39.5v-47q0 -28 -11.5 -39.5 t-39.5 -11.5h-279v-250q0 -66 -67 -66h-95q-66 0 -66 66v250h-280q-28 0 -39.5 11.5t-11.5 39.5v47q0 28 11.5 39.5t39.5 11.5h280v120h-280q-28 0 -39.5 11.5t-11.5 39.5v48q0 27 12 39.5t39 12.5h221l-288 576q-7 13 -7 28z" />
<glyph unicode="&#xa6;" horiz-adv-x="402" d="M117 -157q0 -63 64 -63h42q63 0 63 63v649q0 64 -63 64h-42q-64 0 -64 -64v-649zM117 876v650q0 64 64 64h42q63 0 63 -64v-650q0 -63 -63 -63h-42q-64 0 -64 63z" />
<glyph unicode="&#xa7;" horiz-adv-x="1250" d="M148 9q0 65 67 65h99q67 0 67 -65v-64q0 -153 168 -153h154q167 0 167 153v64q0 63 -30 102t-99 62l-504 162q-28 9 -41 28.5t-13 55.5v65q0 32 16 48.5t42 16.5q19 0 33 -5l549 -178q149 -49 214 -135t65 -227v-45q0 -176 -102 -268.5t-297 -92.5h-154q-195 0 -298 93.5 t-103 269.5v48zM152 998v48q0 173 105 266.5t300 93.5h137q196 0 300 -92t104 -268v-48q0 -66 -67 -66h-98q-67 0 -67 66v61q0 153 -166 153h-149q-167 0 -167 -152v-64q0 -63 30 -102.5t99 -62.5l502 -162q29 -9 42 -28.5t13 -55.5v-64q0 -32 -16 -48.5t-43 -16.5 q-13 0 -31 5l-549 177q-145 46 -212 133.5t-67 226.5z" />
<glyph unicode="&#xa8;" horiz-adv-x="836" d="M109 1318v50q0 45 25 69.5t72 24.5h54q46 0 71 -24.5t25 -69.5v-50q0 -44 -25 -68.5t-71 -24.5h-54q-47 0 -72 24t-25 69zM480 1318v50q0 45 24.5 69.5t71.5 24.5h55q46 0 70.5 -24.5t24.5 -69.5v-50q0 -44 -24.5 -68.5t-70.5 -24.5h-55q-47 0 -71.5 24t-24.5 69z" />
<glyph unicode="&#xa9;" horiz-adv-x="1591" d="M117 586v221q0 268 175 433.5t453 165.5h97q283 0 458 -165t175 -434v-221q0 -268 -175 -433t-458 -165h-97q-278 0 -453 165.5t-175 432.5zM299 586q0 -195 120 -313.5t326 -118.5h97q210 0 331 118.5t121 313.5v221q0 195 -121.5 314t-330.5 119h-97q-206 0 -326 -119 t-120 -314v-221zM481 592q0 -123 69.5 -189t200.5 -66h85q129 0 199 64t70 177v7q0 24 -12.5 34.5t-40.5 10.5h-66q-29 0 -41.5 -10.5t-12.5 -34.5v-6q0 -84 -95 -84h-87q-43 0 -69 24t-26 69v217q0 45 26 69.5t69 24.5h87q95 0 95 -84v-5q0 -25 12.5 -35.5t41.5 -10.5h66 q29 0 41 10.5t12 35.5v6q0 113 -69.5 176.5t-199.5 63.5h-85q-131 0 -200.5 -66t-69.5 -190v-208z" />
<glyph unicode="&#xaa;" horiz-adv-x="764" d="M100 864v50q0 84 58 132t176 48h170v112q0 71 -74 71h-78q-34 0 -54.5 -16.5t-20.5 -46.5q0 -45 -38 -45h-84q-17 0 -27.5 11.5t-10.5 30.5q0 89 62 141t169 52h85q110 0 171 -54t61 -154v-473q0 -16 -12 -27.5t-28 -11.5h-73q-16 0 -27 10t-11 25v14l-90 -32 q-67 -24 -127 -24q-90 0 -143.5 49.5t-53.5 137.5zM262 859q0 -64 68 -64q20 0 46 6l128 39v144h-165q-77 0 -77 -62v-63z" />
<glyph unicode="&#xab;" horiz-adv-x="1042" d="M62 562q0 29 16 58l175 319q33 60 93 60h74q31 0 47.5 -16t16.5 -43q0 -17 -8 -33l-185 -345l185 -345q8 -16 8 -33q0 -27 -16.5 -43t-47.5 -16h-74q-59 0 -92 60l-177 320q-15 26 -15 57zM521 562q0 29 16 58l176 319q33 60 92 60h74q31 0 47.5 -16t16.5 -43 q0 -17 -8 -33l-185 -345l185 -345q8 -16 8 -33q0 -27 -16.5 -43t-47.5 -16h-74q-31 0 -52 13.5t-39 46.5l-178 320q-15 28 -15 57z" />
<glyph unicode="&#xac;" horiz-adv-x="962" d="M64 780v43q0 65 65 65h704q66 0 66 -65v-361q0 -65 -65 -65h-45q-65 0 -65 65v252h-595q-65 0 -65 66z" />
<glyph unicode="&#xad;" horiz-adv-x="649" d="M98 526v70q0 64 65 64h323q65 0 65 -64v-70q0 -65 -65 -65h-323q-65 0 -65 65z" />
<glyph unicode="&#xae;" horiz-adv-x="1043" d="M105 896v175q0 161 92.5 248t268.5 87h113q175 0 267.5 -86.5t92.5 -247.5v-175q0 -161 -92.5 -248.5t-267.5 -87.5h-113q-176 0 -268.5 87.5t-92.5 247.5zM207 897q0 -244 259 -244h113q259 0 259 244v175q0 244 -259 244h-113q-259 0 -259 -244v-175zM355 786v395 q0 32 32 32h174q68 0 108 -35.5t40 -98.5v-21q0 -39 -21 -66.5t-57 -38.5q78 -13 78 -106v-61q0 -29 -30 -29h-35q-29 0 -29 29v77q0 48 -54 48h-112v-125q0 -29 -30 -29h-35q-29 0 -29 29zM449 995h112q54 0 54 48v36q0 23 -14.5 35t-39.5 12h-112v-131z" />
<glyph unicode="&#xaf;" horiz-adv-x="826" d="M122 1317v36q0 69 71 69h444q68 0 68 -69v-36q0 -68 -68 -68h-444q-71 0 -71 68z" />
<glyph unicode="&#xb0;" horiz-adv-x="640" d="M83 1078v110q0 101 61 159.5t174 58.5h88q112 0 173.5 -59t61.5 -159v-110q0 -102 -62 -163t-173 -61h-88q-112 0 -173.5 61t-61.5 163zM253 1073q0 -71 60 -71h98q29 0 44.5 19t15.5 52v121q0 64 -60 64h-98q-60 0 -60 -65v-120z" />
<glyph unicode="&#xb1;" horiz-adv-x="977" d="M72 230v42q0 66 64 66h705q64 0 64 -66v-42q0 -66 -64 -66h-705q-64 0 -64 66zM72 841v41q0 66 64 66h265v265q0 65 66 65h42q66 0 66 -65v-265h266q64 0 64 -66v-41q0 -67 -64 -67h-266v-265q0 -65 -66 -65h-42q-66 0 -66 65v265h-265q-64 0 -64 67z" />
<glyph unicode="&#xb2;" horiz-adv-x="727" d="M76 837v123q0 85 36 135t127 89l192 84q46 19 46 85v35q0 34 -21.5 52.5t-60.5 18.5h-68q-36 0 -59 -18t-23 -53v-29q0 -50 -53 -50h-64q-52 0 -52 49v24q0 105 65 165t188 60h64q125 0 189 -60.5t64 -165.5v-32q0 -80 -37.5 -130.5t-123.5 -86.5l-187 -82 q-51 -23 -51 -89v-26h353q52 0 52 -48v-51q0 -48 -52 -48h-472q-52 0 -52 49z" />
<glyph unicode="&#xb3;" horiz-adv-x="731" d="M75 1002v23q0 48 51 48h66q52 0 52 -48v-28q0 -69 77 -69h90q38 0 60 18.5t22 50.5v47q0 43 -18 62.5t-64 19.5h-85q-51 0 -51 49v45q0 50 51 50h70q45 0 60.5 18t15.5 61v39q0 33 -19.5 52t-56.5 19h-73q-37 0 -57 -19t-20 -52v-23q0 -47 -52 -47h-66q-51 0 -51 45v20 q0 107 63 165.5t184 58.5h69q121 0 184.5 -56.5t63.5 -162.5v-18q0 -68 -31.5 -112t-90.5 -59q66 -13 101.5 -59t35.5 -117v-24q0 -108 -63 -164.5t-184 -56.5h-86q-121 0 -184.5 58.5t-63.5 165.5z" />
<glyph unicode="&#xb4;" horiz-adv-x="815" d="M253 1244q0 17 10 39l98 193q22 46 83 46h75q60 0 60 -48q0 -18 -12 -40l-104 -196q-23 -43 -82 -43h-71q-57 0 -57 49z" />
<glyph unicode="&#xb6;" horiz-adv-x="1384" d="M99 789v237q0 368 388 368h277q65 0 65 -65v-1653q0 -66 -65 -66h-49q-67 0 -67 66v739h-161q-388 0 -388 374zM330 774q0 -88 36 -126.5t115 -38.5h167v592h-167q-79 0 -115 -37t-36 -123v-267zM989 -324v1653q0 65 67 65h49q67 0 67 -65v-1653q0 -66 -67 -66h-49 q-67 0 -67 66z" />
<glyph unicode="&#xb7;" horiz-adv-x="528" d="M125 544v113q0 76 78 76h121q80 0 80 -76v-113q0 -76 -80 -76h-121q-78 0 -78 76z" />
<glyph unicode="&#xb8;" horiz-adv-x="793" d="M214 -329q0 25 15.5 40.5t46.5 15.5h141q18 0 18 18v48q0 17 -18 17h-78q-31 0 -47 15.5t-16 40.5v21q0 25 16 40.5t47 15.5h79q77 0 118.5 -38.5t41.5 -112.5v-46q0 -75 -41.5 -113.5t-118.5 -38.5h-142q-31 0 -46.5 15t-15.5 40v22z" />
<glyph unicode="&#xb9;" horiz-adv-x="651" d="M61 836v51q0 48 52 48h124v515h-124q-52 0 -52 48v51q0 48 52 48h257q45 0 45 -41v-621h123q53 0 53 -48v-53q0 -46 -53 -46h-425q-52 0 -52 48z" />
<glyph unicode="&#xba;" horiz-adv-x="769" d="M100 884v313q0 95 62.5 151t168.5 56h108q105 0 168.5 -56t63.5 -151v-313q0 -95 -63.5 -151t-168.5 -56h-108q-106 0 -168.5 55.5t-62.5 151.5zM260 883q0 -32 20.5 -51t53.5 -19h103q32 0 52 19t20 51v314q0 32 -20 51.5t-52 19.5h-103q-33 0 -53.5 -19.5t-20.5 -51.5 v-314z" />
<glyph unicode="&#xbb;" horiz-adv-x="1042" d="M100 184q0 17 8 33l185 345l-185 345q-8 16 -8 33q0 27 16.5 43t47.5 16h74q58 0 91 -60l177 -319q15 -27 15 -58t-14 -57l-178 -320q-18 -33 -39 -46.5t-52 -13.5h-74q-31 0 -47.5 16t-16.5 43zM559 184q0 17 8 33l185 345l-185 345q-8 16 -8 33q0 27 16.5 43t47.5 16 h74q59 0 92 -60l176 -319q15 -27 15 -58q0 -32 -14 -57l-178 -320q-18 -33 -39 -46.5t-52 -13.5h-74q-31 0 -47.5 16t-16.5 43z" />
<glyph unicode="&#xbc;" horiz-adv-x="1706" d="M61 633v51q0 48 52 48h124v515h-124q-52 0 -52 48v51q0 48 52 48h257q45 0 45 -41v-621h123q53 0 53 -48v-53q0 -46 -53 -46h-425q-52 0 -52 48zM430 32q0 16 5 27l570 1300q12 26 27 36.5t45 10.5h54q22 0 34.5 -12t12.5 -32q0 -12 -7 -29l-568 -1298 q-12 -26 -26.5 -36.5t-42.5 -10.5h-55q-23 0 -36 12t-13 32zM1002 299q0 11 2 20l91 450q8 41 53 41h68q24 0 38 -12.5t14 -29.5q0 -8 -3 -20l-76 -373h192v384q0 51 53 51h67q54 0 54 -51v-384h52q52 0 52 -47v-45q0 -49 -52 -49h-52v-185q0 -49 -52 -49h-71q-51 0 -51 49 v185h-303q-33 0 -54.5 19t-21.5 46z" />
<glyph unicode="&#xbd;" horiz-adv-x="1684" d="M61 633v51q0 48 52 48h124v515h-124q-52 0 -52 48v51q0 48 52 48h257q45 0 45 -41v-621h123q53 0 53 -48v-53q0 -46 -53 -46h-425q-52 0 -52 48zM430 32q0 16 5 27l570 1300q12 26 27 36.5t45 10.5h54q22 0 34.5 -12t12.5 -32q0 -12 -7 -29l-568 -1298 q-12 -26 -26.5 -36.5t-42.5 -10.5h-55q-23 0 -36 12t-13 32zM1033 49v123q0 85 36 135.5t127 89.5l192 83q46 19 46 86v35q0 34 -21.5 52.5t-60.5 18.5h-69q-36 0 -59 -18t-23 -53v-30q0 -50 -52 -50h-64q-52 0 -52 49v24q0 105 65 165t188 60h63q125 0 189.5 -60.5 t64.5 -165.5v-32q0 -80 -38 -130t-124 -86l-187 -82q-51 -23 -51 -90v-25h353q53 0 53 -49v-50q0 -49 -53 -49h-471q-52 0 -52 49z" />
<glyph unicode="&#xbe;" horiz-adv-x="1786" d="M75 799v23q0 48 51 48h66q52 0 52 -48v-28q0 -33 19.5 -51.5t57.5 -18.5h90q38 0 60 19t22 51v47q0 43 -18 62t-64 19h-85q-51 0 -51 50v45q0 50 51 50h70q45 0 60.5 18t15.5 61v39q0 33 -19.5 52t-56.5 19h-73q-37 0 -57 -19t-20 -52v-23q0 -48 -52 -48h-66 q-25 0 -38 12.5t-13 33.5v20q0 107 63 165.5t184 58.5h69q121 0 184.5 -56.5t63.5 -162.5v-18q0 -68 -31.5 -112t-90.5 -59q66 -13 101.5 -59t35.5 -117v-24q0 -108 -63 -164.5t-184 -56.5h-86q-121 0 -184.5 58.5t-63.5 165.5zM509 32q0 14 6 27l570 1300q12 26 26.5 36.5 t44.5 10.5h54q22 0 35 -12t13 -32q0 -10 -8 -29l-567 -1298q-12 -26 -26.5 -36.5t-42.5 -10.5h-56q-23 0 -36 12t-13 32zM1081 299q0 7 3 20l90 450q8 41 53 41h68q24 0 38 -12.5t14 -29.5q0 -12 -2 -20l-77 -373h192v384q0 51 53 51h67q54 0 54 -51v-384h52q52 0 52 -47 v-45q0 -49 -52 -49h-52v-185q0 -49 -52 -49h-71q-51 0 -51 49v185h-303q-33 0 -54.5 19t-21.5 46z" />
<glyph unicode="&#xbf;" horiz-adv-x="992" d="M101 20q0 110 34.5 179t111.5 111l90 48q48 26 61.5 57t13.5 96v69q0 65 66 65h89q66 0 66 -65v-105q0 -105 -30.5 -164t-112.5 -104l-89 -48q-41 -23 -57 -58t-16 -94v-64q0 -74 38.5 -113t113.5 -39h82q75 0 114 39t39 113v68q0 66 67 66h93q67 0 67 -66v-55 q0 -172 -98.5 -262.5t-287.5 -90.5h-70q-189 0 -287 90.5t-98 262.5v64zM384 850v89q0 76 78 76h121q77 0 77 -76v-89q0 -76 -77 -76h-121q-78 0 -78 76z" />
<glyph unicode="&#xc0;" horiz-adv-x="1239" d="M66 55q0 -24 16 -39.5t46 -15.5h92q57 0 76 61l87 281h471l88 -281q10 -31 26.5 -46t48.5 -15h94q30 0 45.5 16t15.5 39q0 10 -4 22l-376 1256q-18 61 -77 61h-190q-59 0 -78 -61l-378 -1258q-3 -10 -3 -20zM392 1754q0 49 59 49h76q60 0 82 -46l89 -177q10 -19 10 -39 q0 -49 -56 -49h-72q-58 0 -81 43l-96 179q-11 20 -11 40zM431 527l95 311q46 148 94 342q56 -227 92 -342l94 -311h-375z" />
<glyph unicode="&#xc1;" horiz-adv-x="1239" d="M66 55q0 -24 16 -39.5t46 -15.5h92q57 0 76 61l87 281h471l88 -281q10 -31 26.5 -46t48.5 -15h94q30 0 45.5 16t15.5 39q0 10 -4 22l-376 1256q-18 61 -77 61h-190q-59 0 -78 -61l-378 -1258q-3 -10 -3 -20zM431 527l95 311q46 148 94 342q56 -227 92 -342l94 -311h-375z M535 1541q0 17 10 39l89 177q22 46 83 46h75q60 0 60 -49q0 -20 -11 -40l-97 -179q-23 -43 -81 -43h-72q-56 0 -56 49z" />
<glyph unicode="&#xc2;" horiz-adv-x="1239" d="M66 55q0 -24 16 -39.5t46 -15.5h92q57 0 76 61l87 281h471l88 -281q10 -31 26.5 -46t48.5 -15h94q30 0 45.5 16t15.5 39q0 10 -4 22l-376 1256q-18 61 -77 61h-190q-59 0 -78 -61l-378 -1258q-3 -10 -3 -20zM308 1556v48q0 45 40 66l223 120q22 11 49 11t47 -11l225 -119 q39 -19 39 -67v-48q0 -26 -13.5 -42t-36.5 -16q-13 0 -29 7l-232 123l-233 -123q-14 -7 -30 -7q-23 0 -36 16.5t-13 41.5zM431 527l95 311q46 148 94 342q56 -227 92 -342l94 -311h-375z" />
<glyph unicode="&#xc3;" horiz-adv-x="1239" d="M66 55q0 -24 16 -39.5t46 -15.5h92q57 0 76 61l87 281h471l88 -281q10 -31 26.5 -46t48.5 -15h94q30 0 45.5 16t15.5 39q0 10 -4 22l-376 1256q-18 61 -77 61h-190q-59 0 -78 -61l-378 -1258q-3 -10 -3 -20zM257 1572v20q0 90 57.5 144t157.5 54q63 0 129 -39l118 -72 q20 -14 44 -14q55 0 55 54v14q0 59 62 59h42q62 0 62 -59v-21q0 -90 -58 -143.5t-159 -53.5q-70 0 -128 36l-118 75q-21 13 -43 13q-56 0 -56 -54v-13q0 -60 -61 -60h-44q-60 0 -60 60zM431 527l95 311q46 148 94 342q56 -227 92 -342l94 -311h-375z" />
<glyph unicode="&#xc4;" horiz-adv-x="1239" d="M66 55q0 -24 16 -39.5t46 -15.5h92q57 0 76 61l87 281h471l88 -281q10 -31 26.5 -46t48.5 -15h94q30 0 45.5 16t15.5 39q0 10 -4 22l-376 1256q-18 61 -77 61h-190q-59 0 -78 -61l-378 -1258q-3 -10 -3 -20zM311 1626v49q0 45 24.5 69.5t71.5 24.5h55q46 0 70.5 -24.5 t24.5 -69.5v-49q0 -44 -24.5 -68.5t-70.5 -24.5h-55q-47 0 -71.5 24t-24.5 69zM431 527l95 311q46 148 94 342q56 -227 92 -342l94 -311h-375zM681 1626v49q0 45 24.5 69.5t71.5 24.5h55q46 0 71 -24.5t25 -69.5v-49q0 -44 -25 -68.5t-71 -24.5h-55q-47 0 -71.5 24t-24.5 69 z" />
<glyph unicode="&#xc5;" horiz-adv-x="1239" d="M66 55q0 -24 16 -39.5t46 -15.5h92q57 0 76 61l87 281h471l88 -281q10 -31 26.5 -46t48.5 -15h94q30 0 45.5 16t15.5 39q0 10 -4 22l-376 1256q-18 61 -77 61h-190q-59 0 -78 -61l-378 -1258q-3 -10 -3 -20zM422 1632v42q0 158 172 158h53q172 0 172 -157v-43 q0 -158 -172 -158h-53q-172 0 -172 158zM431 527l95 311q46 148 94 342q56 -227 92 -342l94 -311h-375zM550 1628q0 -41 41 -41h59q41 0 41 42v48q0 42 -41 42h-59q-41 0 -41 -42v-49z" />
<glyph unicode="&#xc6;" horiz-adv-x="1684" d="M0 51q0 10 5 23l490 1259q24 61 78 61h903q68 0 68 -65v-63q0 -65 -68 -65h-490v-398h490q68 0 68 -66v-61q0 -68 -68 -68h-490v-414h490q68 0 68 -66v-62q0 -66 -68 -66h-656q-67 0 -67 66v255h-408l-112 -270q-21 -51 -70 -51h-104q-27 0 -43 15t-16 36zM406 507h347 v694h-68z" />
<glyph unicode="&#xc7;" horiz-adv-x="1247" d="M138 366v662q0 187 105 282.5t302 95.5h157q197 0 302 -95.5t105 -282.5v-67q0 -67 -67 -67h-98q-67 0 -67 67v78q0 83 -43.5 125.5t-125.5 42.5h-169q-167 0 -167 -168v-684q0 -167 167 -167h169q169 0 169 167v78q0 67 67 67h98q67 0 67 -67v-67q0 -187 -105 -282.5 t-302 -95.5h-157q-197 0 -302 95.5t-105 282.5zM438 -329q0 25 15.5 40.5t46.5 15.5h141q18 0 18 18v48q0 17 -18 17h-79q-31 0 -46.5 15.5t-15.5 40.5v21q0 25 15.5 40.5t46.5 15.5h80q77 0 118 -38.5t41 -112.5v-46q0 -75 -41 -113.5t-118 -38.5h-142q-31 0 -46.5 15 t-15.5 40v22z" />
<glyph unicode="&#xc8;" horiz-adv-x="1094" d="M161 66v1263q0 65 67 65h657q67 0 67 -65v-63q0 -65 -67 -65h-491v-398h491q67 0 67 -66v-61q0 -68 -67 -68h-491v-414h491q67 0 67 -66v-62q0 -66 -67 -66h-657q-67 0 -67 66zM328 1754q0 49 59 49h76q60 0 82 -46l89 -177q10 -19 10 -39q0 -49 -56 -49h-72 q-58 0 -81 43l-96 179q-11 20 -11 40z" />
<glyph unicode="&#xc9;" horiz-adv-x="1094" d="M161 66v1263q0 65 67 65h657q67 0 67 -65v-63q0 -65 -67 -65h-491v-398h491q67 0 67 -66v-61q0 -68 -67 -68h-491v-414h491q67 0 67 -66v-62q0 -66 -67 -66h-657q-67 0 -67 66zM464 1541q0 17 10 39l89 177q22 46 83 46h75q60 0 60 -49q0 -20 -11 -40l-97 -179 q-23 -43 -81 -43h-71q-57 0 -57 49z" />
<glyph unicode="&#xca;" horiz-adv-x="1094" d="M161 66v1263q0 65 67 65h657q67 0 67 -65v-63q0 -65 -67 -65h-491v-398h491q67 0 67 -66v-61q0 -68 -67 -68h-491v-414h491q67 0 67 -66v-62q0 -66 -67 -66h-657q-67 0 -67 66zM245 1556v48q0 45 40 66l223 120q22 11 48 11q28 0 48 -11l225 -119q39 -19 39 -67v-48 q0 -25 -14 -41.5t-37 -16.5q-12 0 -28 7l-233 123l-233 -123q-14 -7 -29 -7q-23 0 -36 16.5t-13 41.5z" />
<glyph unicode="&#xcb;" horiz-adv-x="1094" d="M161 66v1263q0 65 67 65h657q67 0 67 -65v-63q0 -65 -67 -65h-491v-398h491q67 0 67 -66v-61q0 -68 -67 -68h-491v-414h491q67 0 67 -66v-62q0 -66 -67 -66h-657q-67 0 -67 66zM247 1626v49q0 45 25 69.5t72 24.5h55q46 0 70.5 -24.5t24.5 -69.5v-49q0 -44 -24.5 -68.5 t-70.5 -24.5h-55q-47 0 -72 24t-25 69zM618 1626v49q0 45 24.5 69.5t71.5 24.5h55q46 0 70.5 -24.5t24.5 -69.5v-49q0 -44 -24.5 -68.5t-70.5 -24.5h-55q-47 0 -71.5 24t-24.5 69z" />
<glyph unicode="&#xcc;" horiz-adv-x="569" d="M54 1754q0 49 59 49h76q60 0 82 -46l89 -177q10 -19 10 -39q0 -49 -56 -49h-72q-58 0 -81 43l-96 179q-11 20 -11 40zM169 66q0 -66 66 -66h100q66 0 66 66v1263q0 65 -66 65h-100q-66 0 -66 -65v-1263z" />
<glyph unicode="&#xcd;" horiz-adv-x="569" d="M169 66q0 -66 66 -66h100q66 0 66 66v1263q0 65 -66 65h-100q-66 0 -66 -65v-1263zM195 1541q0 15 11 39l88 177q22 46 83 46h75q60 0 60 -49q0 -20 -11 -40l-97 -179q-23 -43 -81 -43h-71q-57 0 -57 49z" />
<glyph unicode="&#xce;" horiz-adv-x="582" d="M-20 1556v48q0 45 40 66l222 120q22 11 49 11q28 0 48 -11l224 -119q39 -19 39 -67v-48q0 -26 -13.5 -42t-36.5 -16q-12 0 -28 7l-233 123l-233 -123q-14 -7 -30 -7q-22 0 -35 16.5t-13 41.5zM175 66q0 -66 66 -66h100q66 0 66 66v1263q0 65 -66 65h-100q-66 0 -66 -65 v-1263z" />
<glyph unicode="&#xcf;" horiz-adv-x="581" d="M-18 1626v49q0 45 25 69.5t72 24.5h54q46 0 71 -24.5t25 -69.5v-49q0 -44 -25 -68.5t-71 -24.5h-54q-47 0 -72 24t-25 69zM175 66q0 -66 66 -66h100q66 0 66 66v1263q0 65 -66 65h-100q-66 0 -66 -65v-1263zM352 1626v49q0 45 25 69.5t72 24.5h54q46 0 71 -24.5t25 -69.5 v-49q0 -44 -25 -68.5t-71 -24.5h-54q-47 0 -72 24t-25 69z" />
<glyph unicode="&#xd0;" horiz-adv-x="1259" d="M24 678v59q0 33 13.5 46.5t47.5 13.5h102v532q0 65 66 65h461q198 0 302 -94.5t104 -281.5v-639q0 -187 -104.5 -283t-301.5 -96h-461q-66 0 -66 66v551h-102q-34 0 -47.5 14t-13.5 47zM419 194h300q82 0 125.5 43t43.5 127v669q0 83 -43.5 125.5t-125.5 42.5h-300v-404 h184q34 0 48 -13.5t14 -46.5v-59q0 -33 -14 -47t-48 -14h-184v-423z" />
<glyph unicode="&#xd1;" horiz-adv-x="1281" d="M161 66v1260q0 68 70 68h121q47 0 69 -41l325 -614q87 -163 163 -335q-9 169 -9 319v606q0 65 68 65h87q65 0 65 -65v-1262q0 -67 -69 -67h-120q-46 0 -68 41l-333 633q-112 214 -156 316q7 -140 7 -316v-608q0 -66 -66 -66h-87q-67 0 -67 66zM277 1572v20q0 90 57.5 144 t157.5 54q63 0 129 -39l118 -72q20 -14 44 -14q56 0 56 54v14q0 31 14.5 45t46.5 14h43q32 0 46.5 -14t14.5 -45v-21q0 -90 -58 -143.5t-158 -53.5q-70 0 -128 36l-118 75q-21 13 -44 13q-56 0 -56 -54v-13q0 -60 -61 -60h-43q-61 0 -61 60z" />
<glyph unicode="&#xd2;" horiz-adv-x="1253" d="M139 366v662q0 187 104.5 282.5t301.5 95.5h163q197 0 302 -95.5t105 -282.5v-662q0 -187 -105 -282.5t-302 -95.5h-163q-197 0 -301.5 95.5t-104.5 282.5zM372 355q0 -167 168 -167h174q168 0 168 167v684q0 168 -168 168h-174q-168 0 -168 -168v-684zM397 1754 q0 49 60 49h75q60 0 82 -46l89 -177q10 -19 10 -39q0 -49 -56 -49h-72q-58 0 -81 43l-96 179q-11 20 -11 40z" />
<glyph unicode="&#xd3;" horiz-adv-x="1253" d="M139 366v662q0 187 104.5 282.5t301.5 95.5h163q197 0 302 -95.5t105 -282.5v-662q0 -187 -105 -282.5t-302 -95.5h-163q-197 0 -301.5 95.5t-104.5 282.5zM372 355q0 -167 168 -167h174q168 0 168 167v684q0 168 -168 168h-174q-168 0 -168 -168v-684zM544 1541 q0 15 11 39l88 177q22 46 83 46h75q60 0 60 -49q0 -20 -11 -40l-97 -179q-23 -43 -81 -43h-71q-57 0 -57 49z" />
<glyph unicode="&#xd4;" horiz-adv-x="1253" d="M139 366v662q0 187 104.5 282.5t301.5 95.5h163q197 0 302 -95.5t105 -282.5v-662q0 -187 -105 -282.5t-302 -95.5h-163q-197 0 -301.5 95.5t-104.5 282.5zM316 1556v48q0 45 40 66l223 120q22 11 48 11q28 0 48 -11l224 -119q40 -20 40 -67v-48q0 -25 -14 -41.5 t-37 -16.5q-12 0 -28 7l-233 123l-233 -123q-14 -7 -30 -7q-22 0 -35 16.5t-13 41.5zM372 355q0 -167 168 -167h174q168 0 168 167v684q0 168 -168 168h-174q-168 0 -168 -168v-684z" />
<glyph unicode="&#xd5;" horiz-adv-x="1253" d="M139 366v662q0 187 104.5 282.5t301.5 95.5h163q197 0 302 -95.5t105 -282.5v-662q0 -187 -105 -282.5t-302 -95.5h-163q-197 0 -301.5 95.5t-104.5 282.5zM264 1572v20q0 90 57.5 144t157.5 54q63 0 129 -39l117 -72q20 -14 45 -14q55 0 55 54v14q0 59 62 59h42 q62 0 62 -59v-21q0 -90 -58 -143.5t-159 -53.5q-70 0 -128 36l-118 75q-21 13 -43 13q-57 0 -57 -54v-13q0 -60 -60 -60h-44q-60 0 -60 60zM372 355q0 -167 168 -167h174q168 0 168 167v684q0 168 -168 168h-174q-168 0 -168 -168v-684z" />
<glyph unicode="&#xd6;" horiz-adv-x="1253" d="M139 366v662q0 187 104.5 282.5t301.5 95.5h163q197 0 302 -95.5t105 -282.5v-662q0 -187 -105 -282.5t-302 -95.5h-163q-197 0 -301.5 95.5t-104.5 282.5zM318 1626v49q0 45 25 69.5t72 24.5h54q46 0 71 -24.5t25 -69.5v-49q0 -44 -25 -68.5t-71 -24.5h-54q-47 0 -72 24 t-25 69zM372 355q0 -167 168 -167h174q168 0 168 167v684q0 168 -168 168h-174q-168 0 -168 -168v-684zM689 1626v49q0 45 24.5 69.5t71.5 24.5h55q46 0 70.5 -24.5t24.5 -69.5v-49q0 -44 -24.5 -68.5t-70.5 -24.5h-55q-47 0 -71.5 24t-24.5 69z" />
<glyph unicode="&#xd7;" horiz-adv-x="916" d="M125 464q0 22 23 45l187 187l-187 187q-23 23 -23 47q0 23 23 46l30 31q25 23 46 23q25 0 47 -23l186 -187l188 188q23 23 46 23q22 0 47 -23l30 -32q25 -25 25 -47q0 -21 -24 -45l-188 -188l188 -187q24 -24 24 -46t-24 -46l-31 -31q-24 -24 -47 -24t-46 24l-187 187 l-187 -187q-23 -23 -45 -23q-25 0 -48 24l-30 30q-23 23 -23 47z" />
<glyph unicode="&#xd8;" horiz-adv-x="1260" d="M143 355v684q0 179 105 273t301 94h163q32 0 88 -6l41 108q18 46 58 46h58q23 0 35.5 -13t12.5 -35q0 -12 -3 -21l-50 -130q167 -90 167 -316v-684q0 -179 -105 -273t-302 -94h-163q-45 0 -97 7l-42 -108q-17 -47 -60 -47h-56q-23 0 -35.5 13t-12.5 35q0 9 4 22l50 134 q-157 90 -157 311zM365 343q0 -47 18 -80l345 944h-7h-182q-84 0 -129 -40.5t-45 -115.5v-708zM523 188h16h182q84 0 129 40t45 115v708q0 52 -24 90z" />
<glyph unicode="&#xd9;" horiz-adv-x="1267" d="M153 355v974q0 65 67 65h99q67 0 67 -65v-986q0 -75 43 -115t125 -40h159q82 0 125 40t43 115v986q0 65 67 65h99q67 0 67 -65v-974q0 -179 -105 -273t-302 -94h-147q-197 0 -302 94t-105 273zM403 1754q0 49 60 49h75q60 0 82 -46l89 -177q10 -19 10 -39q0 -49 -56 -49 h-72q-58 0 -81 43l-96 179q-11 20 -11 40z" />
<glyph unicode="&#xda;" horiz-adv-x="1267" d="M153 355v974q0 65 67 65h99q67 0 67 -65v-986q0 -75 43 -115t125 -40h159q82 0 125 40t43 115v986q0 65 67 65h99q67 0 67 -65v-974q0 -179 -105 -273t-302 -94h-147q-197 0 -302 94t-105 273zM544 1541q0 15 11 39l88 177q22 46 83 46h75q60 0 60 -49q0 -20 -11 -40 l-97 -179q-23 -43 -81 -43h-71q-57 0 -57 49z" />
<glyph unicode="&#xdb;" horiz-adv-x="1267" d="M153 355v974q0 65 67 65h99q67 0 67 -65v-986q0 -75 43 -115t125 -40h159q82 0 125 40t43 115v986q0 65 67 65h99q67 0 67 -65v-974q0 -179 -105 -273t-302 -94h-147q-197 0 -302 94t-105 273zM322 1556v48q0 45 40 66l223 120q22 11 48 11q28 0 48 -11l224 -119 q40 -20 40 -67v-48q0 -25 -14 -41.5t-37 -16.5q-12 0 -28 7l-233 123l-233 -123q-14 -7 -30 -7q-22 0 -35 16.5t-13 41.5z" />
<glyph unicode="&#xdc;" horiz-adv-x="1267" d="M153 355v974q0 65 67 65h99q67 0 67 -65v-986q0 -75 43 -115t125 -40h159q82 0 125 40t43 115v986q0 65 67 65h99q67 0 67 -65v-974q0 -179 -105 -273t-302 -94h-147q-197 0 -302 94t-105 273zM325 1626v49q0 45 25 69.5t72 24.5h54q46 0 71 -24.5t25 -69.5v-49 q0 -44 -25 -68.5t-71 -24.5h-54q-47 0 -72 24t-25 69zM695 1626v49q0 45 25 69.5t72 24.5h55q46 0 70.5 -24.5t24.5 -69.5v-49q0 -44 -24.5 -68.5t-70.5 -24.5h-55q-47 0 -72 24t-25 69z" />
<glyph unicode="&#xdd;" horiz-adv-x="1103" d="M44 1341q0 22 16 37.5t47 15.5h96q31 0 47 -11.5t27 -35.5l167 -369q63 -138 108 -250q38 94 108 250l163 364q24 52 78 52h97q30 0 45 -15.5t15 -37.5q0 -16 -8 -32l-382 -789v-454q0 -66 -66 -66h-100q-66 0 -66 66v453l-385 793q-7 14 -7 29zM463 1541q0 17 10 39 l88 177q22 46 83 46h75q60 0 60 -49q0 -20 -11 -40l-96 -179q-23 -43 -81 -43h-72q-56 0 -56 49z" />
<glyph unicode="&#xde;" horiz-adv-x="1119" d="M157 67v1262q0 65 67 65h99q66 0 66 -65v-178h243q395 0 395 -362v-151q0 -362 -395 -362h-243v-210q0 -66 -66 -66h-99q-67 0 -67 67zM389 474h248q83 0 120 36t37 114v181q0 78 -37 113.5t-120 35.5h-248v-480z" />
<glyph unicode="&#xdf;" horiz-adv-x="1082" d="M132 64v1091q0 157 94 242.5t271 85.5h98q177 0 271 -85.5t94 -242.5v-101q0 -218 -177 -277q88 -27 132.5 -98t44.5 -176v-171q0 -158 -92 -245t-268 -87h-39q-62 0 -62 66v68q0 34 14.5 50t47.5 16h35q138 0 138 118v227q0 72 -31.5 103.5t-106.5 31.5h-32 q-66 0 -66 66v66q0 65 66 65h32q73 0 105.5 32t32.5 103v155q0 126 -138 126h-101q-137 0 -137 -126v-1103q0 -64 -65 -64h-96q-65 0 -65 64z" />
<glyph unicode="&#xe0;" horiz-adv-x="1043" d="M91 277v61q0 276 354 276h245v163q0 65 -31.5 95t-97.5 30h-96q-123 0 -123 -102q0 -34 -15 -49.5t-50 -15.5h-96q-64 0 -64 61q0 134 90.5 210.5t259.5 76.5h92q356 0 356 -321v-698q0 -64 -65 -64h-81q-64 0 -64 64v16l-142 -54q-97 -38 -184 -38q-129 0 -208.5 76.5 t-79.5 212.5zM288 1474q0 48 60 48h76q60 0 82 -46l98 -193q10 -19 10 -39q0 -49 -56 -49h-72q-58 0 -81 43l-105 196q-12 22 -12 40zM317 265q0 -52 29 -78t83 -26q39 0 76 13l185 59v221h-238q-70 0 -102.5 -24.5t-32.5 -78.5v-86z" />
<glyph unicode="&#xe1;" horiz-adv-x="1043" d="M91 277v61q0 276 354 276h245v163q0 65 -31.5 95t-97.5 30h-96q-123 0 -123 -102q0 -34 -15 -49.5t-50 -15.5h-96q-64 0 -64 61q0 134 90.5 210.5t259.5 76.5h92q356 0 356 -321v-698q0 -64 -65 -64h-81q-64 0 -64 64v16l-142 -54q-97 -38 -184 -38q-129 0 -208.5 76.5 t-79.5 212.5zM317 265q0 -52 29 -78t83 -26q39 0 76 13l185 59v221h-238q-70 0 -102.5 -24.5t-32.5 -78.5v-86zM436 1244q0 17 10 39l98 193q22 46 83 46h75q60 0 60 -48q0 -20 -11 -40l-105 -196q-23 -43 -82 -43h-71q-57 0 -57 49z" />
<glyph unicode="&#xe2;" horiz-adv-x="1043" d="M91 277v61q0 276 354 276h245v163q0 65 -31.5 95t-97.5 30h-96q-123 0 -123 -102q0 -34 -15 -49.5t-50 -15.5h-96q-64 0 -64 61q0 134 90.5 210.5t259.5 76.5h92q356 0 356 -321v-698q0 -64 -65 -64h-81q-64 0 -64 64v16l-142 -54q-97 -38 -184 -38q-129 0 -208.5 76.5 t-79.5 212.5zM209 1248v49q0 45 40 66l223 120q22 11 49 11t47 -11l225 -119q39 -20 39 -67v-49q0 -25 -13.5 -41t-36.5 -16q-13 0 -29 7l-232 123l-233 -123q-14 -7 -30 -7q-23 0 -36 16t-13 41zM317 265q0 -52 29 -78t83 -26q39 0 76 13l185 59v221h-238 q-70 0 -102.5 -24.5t-32.5 -78.5v-86z" />
<glyph unicode="&#xe3;" horiz-adv-x="1043" d="M91 277v61q0 276 354 276h245v163q0 65 -31.5 95t-97.5 30h-96q-123 0 -123 -102q0 -34 -15 -49.5t-50 -15.5h-96q-64 0 -64 61q0 134 90.5 210.5t259.5 76.5h92q356 0 356 -321v-698q0 -64 -65 -64h-81q-64 0 -64 64v16l-142 -54q-97 -38 -184 -38q-129 0 -208.5 76.5 t-79.5 212.5zM158 1265v20q0 90 57.5 144t157.5 54q63 0 129 -39l118 -72q20 -14 44 -14q55 0 55 53v15q0 59 62 59h42q62 0 62 -59v-21q0 -90 -58.5 -144t-158.5 -54q-70 0 -128 36l-118 75q-22 14 -43 14q-56 0 -56 -54v-13q0 -60 -61 -60h-44q-60 0 -60 60zM317 265 q0 -52 29 -78t83 -26q39 0 76 13l185 59v221h-238q-70 0 -102.5 -24.5t-32.5 -78.5v-86z" />
<glyph unicode="&#xe4;" horiz-adv-x="1043" d="M91 277v61q0 276 354 276h245v163q0 65 -31.5 95t-97.5 30h-96q-123 0 -123 -102q0 -34 -15 -49.5t-50 -15.5h-96q-64 0 -64 61q0 134 90.5 210.5t259.5 76.5h92q356 0 356 -321v-698q0 -64 -65 -64h-81q-64 0 -64 64v16l-142 -54q-97 -38 -184 -38q-129 0 -208.5 76.5 t-79.5 212.5zM216 1318v50q0 45 24.5 69.5t71.5 24.5h55q46 0 71 -24.5t25 -69.5v-50q0 -44 -25 -68.5t-71 -24.5h-55q-47 0 -71.5 24t-24.5 69zM317 265q0 -52 29 -78t83 -26q39 0 76 13l185 59v221h-238q-70 0 -102.5 -24.5t-32.5 -78.5v-86zM586 1318v50q0 45 25 69.5 t72 24.5h54q46 0 71 -24.5t25 -69.5v-50q0 -44 -25 -68.5t-71 -24.5h-54q-47 0 -72 24t-25 69z" />
<glyph unicode="&#xe5;" horiz-adv-x="1043" d="M91 277v61q0 276 354 276h245v163q0 65 -31.5 95t-97.5 30h-96q-123 0 -123 -102q0 -34 -15 -49.5t-50 -15.5h-96q-64 0 -64 61q0 134 90.5 210.5t259.5 76.5h92q356 0 356 -321v-698q0 -64 -65 -64h-81q-64 0 -64 64v16l-142 -54q-97 -38 -184 -38q-129 0 -208.5 76.5 t-79.5 212.5zM317 265q0 -52 29 -78t83 -26q39 0 76 13l185 59v221h-238q-70 0 -102.5 -24.5t-32.5 -78.5v-86zM322 1324v43q0 158 172 158h53q172 0 172 -157v-44q0 -157 -172 -157h-53q-172 0 -172 157zM451 1321q0 -41 41 -41h58q41 0 41 42v48q0 42 -41 42h-58 q-41 0 -41 -42v-49z" />
<glyph unicode="&#xe6;" horiz-adv-x="1624" d="M91 277v67q0 278 354 278h243v155q0 125 -127 125h-96q-123 0 -123 -102q0 -34 -15 -49.5t-50 -15.5h-96q-64 0 -64 61q0 134 90.5 210.5t259.5 76.5h86q160 0 247 -85q85 85 247 85h103q171 0 264 -82.5t93 -238.5v-187q0 -52 -31.5 -82t-90.5 -30h-473v-169 q0 -61 34 -92t95 -31h112q60 0 94.5 25.5t34.5 70.5v4q0 56 63 56h99q63 0 63 -56v-5q0 -125 -94.5 -201.5t-258.5 -76.5h-110q-201 0 -291 110l-190 -72q-97 -38 -184 -38q-129 0 -208.5 76.5t-79.5 212.5zM317 265q0 -52 29 -78t83 -26q39 0 78 13l187 61q-6 36 -6 75v153 h-236q-70 0 -102.5 -25t-32.5 -80v-93zM912 622h370v156q0 61 -34 92t-95 31h-112q-61 0 -95 -31t-34 -92v-156z" />
<glyph unicode="&#xe7;" horiz-adv-x="1056" d="M118 310v452q0 157 92.5 239t263.5 82h107q170 0 263.5 -83t93.5 -238v-24q0 -65 -65 -65h-96q-64 0 -64 65v37q0 61 -34 91t-95 30h-112q-61 0 -95 -30.5t-34 -90.5v-479q0 -61 34 -91t95 -30h112q61 0 95 30t34 91v39q0 64 64 64h96q65 0 65 -64v-25q0 -156 -93 -239 t-264 -83h-107q-171 0 -263.5 82.5t-92.5 239.5zM344 -329q0 25 15.5 40.5t46.5 15.5h141q18 0 18 18v48q0 17 -18 17h-79q-31 0 -46.5 15.5t-15.5 40.5v21q0 25 15.5 40.5t46.5 15.5h80q77 0 118 -38.5t41 -112.5v-46q0 -75 -41 -113.5t-118 -38.5h-142q-31 0 -46.5 15 t-15.5 40v22z" />
<glyph unicode="&#xe8;" horiz-adv-x="1055" d="M118 310v452q0 157 92.5 239t263.5 82h106q172 0 265 -82.5t93 -238.5v-167q0 -53 -31.5 -83t-90.5 -30h-473v-188q0 -61 34 -92t95 -31h111q60 0 95 25.5t35 70.5v4q0 56 63 56h99q63 0 63 -56v-5q0 -125 -94.5 -201.5t-259.5 -76.5h-110q-171 0 -263.5 82.5 t-92.5 239.5zM288 1474q0 48 59 48h76q60 0 82 -46l98 -193q11 -20 11 -39q0 -49 -57 -49h-71q-59 0 -82 43l-104 196q-12 22 -12 40zM343 642h370v136q0 61 -34.5 92t-95.5 31h-111q-61 0 -95 -31t-34 -92v-136z" />
<glyph unicode="&#xe9;" horiz-adv-x="1055" d="M118 310v452q0 157 92.5 239t263.5 82h106q172 0 265 -82.5t93 -238.5v-167q0 -53 -31.5 -83t-90.5 -30h-473v-188q0 -61 34 -92t95 -31h111q60 0 95 25.5t35 70.5v4q0 56 63 56h99q63 0 63 -56v-5q0 -125 -94.5 -201.5t-259.5 -76.5h-110q-171 0 -263.5 82.5 t-92.5 239.5zM343 642h370v136q0 61 -34.5 92t-95.5 31h-111q-61 0 -95 -31t-34 -92v-136zM441 1244q0 17 10 39l99 193q22 46 82 46h75q60 0 60 -48q0 -20 -11 -40l-105 -196q-23 -43 -82 -43h-71q-57 0 -57 49z" />
<glyph unicode="&#xea;" horiz-adv-x="1055" d="M118 310v452q0 157 92.5 239t263.5 82h106q172 0 265 -82.5t93 -238.5v-167q0 -53 -31.5 -83t-90.5 -30h-473v-188q0 -61 34 -92t95 -31h111q60 0 95 25.5t35 70.5v4q0 56 63 56h99q63 0 63 -56v-5q0 -125 -94.5 -201.5t-259.5 -76.5h-110q-171 0 -263.5 82.5 t-92.5 239.5zM215 1248v49q0 45 40 66l223 120q22 11 49 11t47 -11l225 -119q39 -20 39 -67v-49q0 -25 -13.5 -41t-36.5 -16q-13 0 -29 7l-232 123l-233 -123q-14 -7 -30 -7q-23 0 -36 16t-13 41zM343 642h370v136q0 61 -34.5 92t-95.5 31h-111q-61 0 -95 -31t-34 -92v-136z " />
<glyph unicode="&#xeb;" horiz-adv-x="1055" d="M118 310v452q0 157 92.5 239t263.5 82h106q172 0 265 -82.5t93 -238.5v-167q0 -53 -31.5 -83t-90.5 -30h-473v-188q0 -61 34 -92t95 -31h111q60 0 95 25.5t35 70.5v4q0 56 63 56h99q63 0 63 -56v-5q0 -125 -94.5 -201.5t-259.5 -76.5h-110q-171 0 -263.5 82.5 t-92.5 239.5zM215 1318v50q0 45 24.5 69.5t71.5 24.5h55q46 0 71 -24.5t25 -69.5v-50q0 -44 -25 -68.5t-71 -24.5h-55q-47 0 -71.5 24t-24.5 69zM343 642h370v136q0 61 -34.5 92t-95.5 31h-111q-61 0 -95 -31t-34 -92v-136zM585 1318v50q0 45 25 69.5t72 24.5h54 q46 0 71 -24.5t25 -69.5v-50q0 -44 -25 -68.5t-71 -24.5h-54q-47 0 -72 24t-25 69z" />
<glyph unicode="&#xec;" horiz-adv-x="504" d="M15 1474q0 48 60 48h76q60 0 82 -46l98 -193q10 -19 10 -39q0 -49 -56 -49h-72q-58 0 -81 43l-105 196q-12 22 -12 40zM140 64q0 -64 64 -64h96q65 0 65 64v944q0 63 -65 63h-96q-64 0 -64 -63v-944z" />
<glyph unicode="&#xed;" horiz-adv-x="504" d="M140 64q0 -64 64 -64h96q65 0 65 64v944q0 63 -65 63h-96q-64 0 -64 -63v-944zM163 1244q0 17 10 39l98 193q22 46 83 46h75q60 0 60 -48q0 -20 -11 -40l-105 -196q-23 -43 -82 -43h-71q-57 0 -57 49z" />
<glyph unicode="&#xee;" horiz-adv-x="515" d="M-32 1253v55q0 37 35 54l220 119q19 7 34 7q17 0 33 -7l221 -119q14 -7 23.5 -22t9.5 -32v-55q0 -22 -14.5 -37t-35.5 -15q-13 0 -25 6l-212 117l-213 -117q-14 -6 -26 -6q-20 0 -35 15t-15 37zM144 64q0 -64 64 -64h97q64 0 64 64v944q0 63 -64 63h-97q-64 0 -64 -63 v-944z" />
<glyph unicode="&#xef;" horiz-adv-x="514" d="M-29 1320v46q0 43 23.5 66.5t68.5 23.5h40q44 0 68 -23.5t24 -66.5v-46q0 -43 -24 -66t-68 -23h-40q-45 0 -68.5 23t-23.5 66zM145 64q0 -64 64 -64h96q65 0 65 64v944q0 63 -65 63h-96q-64 0 -64 -63v-944zM321 1320v46q0 43 23.5 66.5t68.5 23.5h39q45 0 68.5 -23.5 t23.5 -66.5v-46q0 -43 -23.5 -66t-68.5 -23h-39q-45 0 -68.5 23t-23.5 66z" />
<glyph unicode="&#xf0;" d="M118 309v452q0 157 92.5 239.5t263.5 82.5h70q42 0 76 -9l-50 126h-160q-27 0 -38.5 11t-11.5 37v28q0 26 11.5 37t38.5 11h111l-30 81q-5 15 -5 25q0 22 16 37.5t46 15.5h97q54 0 74 -51l42 -108h134q27 0 38.5 -11t11.5 -37v-28q0 -26 -11.5 -37t-38.5 -11h-85 l109 -278q26 -67 26 -169v-444q0 -157 -93 -239.5t-264 -82.5h-114q-171 0 -263.5 82.5t-92.5 239.5zM343 296q0 -61 34 -91t95 -30h119q61 0 94.5 30t33.5 91v479q0 60 -34.5 90.5t-93.5 30.5h-119q-61 0 -95 -30.5t-34 -90.5v-479z" />
<glyph unicode="&#xf1;" horiz-adv-x="1088" d="M132 60v952q0 28 16 43.5t45 15.5h81q29 0 45 -15.5t16 -43.5v-32l143 62q95 41 189 41q140 0 216 -80.5t76 -240.5v-702q0 -28 -16 -44t-45 -16h-104q-28 0 -44 16t-16 44v699q0 65 -28 93t-86 28q-44 0 -91 -18l-171 -66v-736q0 -28 -16 -44t-44 -16h-105q-29 0 -45 16 t-16 44zM182 1265v20q0 90 57.5 144t157.5 54q63 0 129 -39l117 -72q20 -14 45 -14q55 0 55 53v15q0 59 62 59h42q62 0 62 -59v-21q0 -90 -58.5 -144t-158.5 -54q-70 0 -128 36l-118 75q-22 14 -43 14q-57 0 -57 -54v-13q0 -60 -60 -60h-44q-60 0 -60 60z" />
<glyph unicode="&#xf2;" d="M118 310v452q0 157 92 239t264 82h114q171 0 264 -82.5t93 -238.5v-452q0 -157 -92.5 -239.5t-264.5 -82.5h-114q-172 0 -264 82.5t-92 239.5zM290 1474q0 48 60 48h76q60 0 82 -46l98 -193q10 -19 10 -39q0 -49 -56 -49h-72q-58 0 -81 43l-105 196q-12 22 -12 40z M343 296q0 -61 34 -91t95 -30h119q61 0 94.5 30t33.5 91v479q0 61 -33.5 91t-94.5 30h-119q-61 0 -95 -30.5t-34 -90.5v-479z" />
<glyph unicode="&#xf3;" d="M118 310v452q0 157 92 239t264 82h114q171 0 264 -82.5t93 -238.5v-452q0 -157 -92.5 -239.5t-264.5 -82.5h-114q-172 0 -264 82.5t-92 239.5zM343 296q0 -61 34 -91t95 -30h119q61 0 94.5 30t33.5 91v479q0 61 -33.5 91t-94.5 30h-119q-61 0 -95 -30.5t-34 -90.5v-479z M440 1244q0 15 11 39l98 193q22 46 82 46h76q59 0 59 -48q0 -20 -11 -40l-105 -196q-23 -43 -82 -43h-71q-57 0 -57 49z" />
<glyph unicode="&#xf4;" d="M118 310v452q0 157 92 239t264 82h114q171 0 264 -82.5t93 -238.5v-452q0 -157 -92.5 -239.5t-264.5 -82.5h-114q-172 0 -264 82.5t-92 239.5zM219 1248v49q0 45 40 66l223 120q22 11 49 11q28 0 48 -11l224 -119q39 -20 39 -67v-49q0 -25 -13.5 -41t-36.5 -16 q-12 0 -28 7l-233 123l-233 -123q-14 -7 -30 -7q-23 0 -36 16t-13 41zM343 296q0 -61 34 -91t95 -30h119q61 0 94.5 30t33.5 91v479q0 61 -33.5 91t-94.5 30h-119q-61 0 -95 -30.5t-34 -90.5v-479z" />
<glyph unicode="&#xf5;" d="M118 310v452q0 157 92 239t264 82h114q171 0 264 -82.5t93 -238.5v-452q0 -157 -92.5 -239.5t-264.5 -82.5h-114q-172 0 -264 82.5t-92 239.5zM168 1265v20q0 90 57.5 144t157.5 54q63 0 129 -39l118 -72q20 -14 44 -14q56 0 56 53v15q0 31 14.5 45t46.5 14h43 q32 0 46.5 -14t14.5 -45v-21q0 -90 -58.5 -144t-158.5 -54q-70 0 -128 36l-117 75q-22 14 -44 14q-56 0 -56 -54v-13q0 -60 -61 -60h-43q-61 0 -61 60zM343 296q0 -61 34 -91t95 -30h119q61 0 94.5 30t33.5 91v479q0 61 -33.5 91t-94.5 30h-119q-61 0 -95 -30.5t-34 -90.5 v-479z" />
<glyph unicode="&#xf6;" d="M118 310v452q0 157 92 239t264 82h114q171 0 264 -82.5t93 -238.5v-452q0 -157 -92.5 -239.5t-264.5 -82.5h-114q-172 0 -264 82.5t-92 239.5zM224 1318v50q0 45 24.5 69.5t71.5 24.5h55q46 0 70.5 -24.5t24.5 -69.5v-50q0 -44 -24.5 -68.5t-70.5 -24.5h-55 q-47 0 -71.5 24t-24.5 69zM343 296q0 -61 34 -91t95 -30h119q61 0 94.5 30t33.5 91v479q0 61 -33.5 91t-94.5 30h-119q-61 0 -95 -30.5t-34 -90.5v-479zM594 1318v50q0 45 24.5 69.5t71.5 24.5h55q46 0 71 -24.5t25 -69.5v-50q0 -44 -25 -68.5t-71 -24.5h-55q-47 0 -71.5 24 t-24.5 69z" />
<glyph unicode="&#xf7;" horiz-adv-x="961" d="M64 676v43q0 65 65 65h704q65 0 65 -65v-43q0 -67 -65 -67h-704q-65 0 -65 67zM378 343q0 -73 73 -73h60q73 0 73 73v60q0 72 -73 72h-60q-73 0 -73 -72v-60zM378 992v58q0 74 73 74h60q73 0 73 -74v-58q0 -74 -73 -74h-60q-73 0 -73 74z" />
<glyph unicode="&#xf8;" d="M118 310v452q0 157 92.5 239t263.5 82h114q42 0 91 -7l39 96q14 34 47 34h52q16 0 26.5 -10t10.5 -25q0 -10 -3 -19l-48 -117q142 -80 142 -273v-452q0 -157 -93 -239.5t-264 -82.5h-114q-42 0 -89 7l-39 -96q-14 -33 -52 -33h-46q-18 0 -28.5 10t-10.5 26q0 8 5 19 l46 114q-142 79 -142 275zM334 294q0 -34 10 -57l266 663q-2 0 -6 0.5t-5 0.5h-135q-61 0 -95.5 -32t-34.5 -92v-483zM453 170h11h135q61 0 96 31.5t35 92.5v483q0 31 -11 56z" />
<glyph unicode="&#xf9;" horiz-adv-x="1087" d="M130 304v703q0 64 65 64h96q63 0 63 -64v-698q0 -66 28 -94.5t86 -28.5q44 0 91 18l171 65v738q0 64 64 64h98q64 0 64 -64v-944q0 -63 -64 -63h-79q-64 0 -64 63v27l-128 -55q-109 -47 -200 -47q-140 0 -215.5 79t-75.5 237zM310 1474q0 48 59 48h76q60 0 82 -46 l98 -193q11 -20 11 -39q0 -49 -57 -49h-71q-58 0 -81 43l-105 196q-12 22 -12 40z" />
<glyph unicode="&#xfa;" horiz-adv-x="1087" d="M130 304v703q0 64 65 64h96q63 0 63 -64v-698q0 -66 28 -94.5t86 -28.5q44 0 91 18l171 65v738q0 64 64 64h98q64 0 64 -64v-944q0 -63 -64 -63h-79q-64 0 -64 63v27l-128 -55q-109 -47 -200 -47q-140 0 -215.5 79t-75.5 237zM457 1244q0 15 11 39l98 193q22 46 83 46h75 q59 0 59 -48q0 -20 -11 -40l-105 -196q-23 -43 -82 -43h-70q-58 0 -58 49z" />
<glyph unicode="&#xfb;" horiz-adv-x="1087" d="M130 304v703q0 64 65 64h96q63 0 63 -64v-698q0 -66 28 -94.5t86 -28.5q44 0 91 18l171 65v738q0 64 64 64h98q64 0 64 -64v-944q0 -63 -64 -63h-79q-64 0 -64 63v27l-128 -55q-109 -47 -200 -47q-140 0 -215.5 79t-75.5 237zM230 1248v49q0 45 41 66l222 120 q22 11 49 11q28 0 48 -11l224 -119q39 -20 39 -67v-49q0 -25 -13.5 -41t-36.5 -16q-12 0 -28 7l-233 123l-233 -123q-14 -7 -30 -7q-23 0 -36 16t-13 41z" />
<glyph unicode="&#xfc;" horiz-adv-x="1087" d="M130 304v703q0 64 65 64h96q63 0 63 -64v-698q0 -66 28 -94.5t86 -28.5q44 0 91 18l171 65v738q0 64 64 64h98q64 0 64 -64v-944q0 -63 -64 -63h-79q-64 0 -64 63v27l-128 -55q-109 -47 -200 -47q-140 0 -215.5 79t-75.5 237zM234 1318v50q0 45 24.5 69.5t71.5 24.5h55 q46 0 70.5 -24.5t24.5 -69.5v-50q0 -44 -24.5 -68.5t-70.5 -24.5h-55q-47 0 -71.5 24t-24.5 69zM604 1318v50q0 45 25 69.5t72 24.5h54q46 0 71 -24.5t25 -69.5v-50q0 -44 -25 -68.5t-71 -24.5h-54q-47 0 -72 24t-25 69z" />
<glyph unicode="&#xfd;" horiz-adv-x="1033" d="M45 1017q0 54 60 54h101q32 0 47 -13t24 -44l162 -566q41 -143 78 -311q32 141 78 308l160 569q15 57 73 57h95q65 0 65 -54q0 -9 -4 -21l-322 -1038q-54 -173 -175.5 -266.5t-298.5 -93.5q-65 0 -65 63v68q0 64 65 64q101 0 172 52t105 149h-57q-52 0 -68 54l-291 947 q-4 12 -4 22zM428 1244q0 15 11 39l98 193q22 46 83 46h75q59 0 59 -48q0 -20 -11 -40l-105 -196q-23 -43 -82 -43h-70q-58 0 -58 49z" />
<glyph unicode="&#xfe;" horiz-adv-x="1076" d="M131 -325v1744q0 64 65 64h97q64 0 64 -64v-431l120 54q95 41 190 41q140 0 216 -80.5t76 -240.5v-452q0 -157 -92.5 -239.5t-263.5 -82.5h-59q-126 0 -187 50v-363q0 -66 -64 -66h-97q-65 0 -65 66zM357 289q0 -55 35 -84.5t100 -29.5h112q130 0 130 121v463 q0 65 -28 93t-86 28q-50 0 -92 -17l-171 -66v-508z" />
<glyph unicode="&#xff;" horiz-adv-x="1033" d="M45 1017q0 54 60 54h101q32 0 47 -13t24 -44l162 -566q41 -143 78 -311q32 141 78 308l160 569q15 57 73 57h95q65 0 65 -54q0 -9 -4 -21l-322 -1038q-54 -173 -175.5 -266.5t-298.5 -93.5q-65 0 -65 63v68q0 64 65 64q101 0 172 52t105 149h-57q-52 0 -68 54l-291 947 q-4 12 -4 22zM208 1318v50q0 45 25 69.5t72 24.5h54q46 0 71 -24.5t25 -69.5v-50q0 -44 -25 -68.5t-71 -24.5h-54q-47 0 -72 24t-25 69zM579 1318v50q0 45 24.5 69.5t71.5 24.5h55q46 0 70.5 -24.5t24.5 -69.5v-50q0 -44 -24.5 -68.5t-70.5 -24.5h-55q-47 0 -71.5 24 t-24.5 69z" />
<glyph unicode="&#x152;" horiz-adv-x="1808" d="M139 366v662q0 187 104.5 282.5t301.5 95.5h144q146 0 220 -74q6 62 73 62h622q68 0 68 -65v-63q0 -65 -68 -65h-490v-398h490q68 0 68 -66v-61q0 -68 -68 -68h-490v-414h490q68 0 68 -66v-62q0 -66 -68 -66h-622q-68 0 -74 62q-75 -74 -219 -74h-144q-197 0 -301.5 95.5 t-104.5 282.5zM372 355q0 -167 167 -167h174q169 0 169 167v684q0 168 -169 168h-174q-167 0 -167 -168v-684z" />
<glyph unicode="&#x153;" horiz-adv-x="1658" d="M118 310v452q0 157 92.5 239t263.5 82h111q160 0 248 -85q85 85 246 85h104q172 0 264.5 -82t92.5 -239v-167q0 -53 -31.5 -83t-90.5 -30h-473v-189q0 -61 34 -91.5t95 -30.5h111q60 0 95 25t35 70v5q0 56 62 56h99q64 0 64 -56v-5q0 -125 -95.5 -201.5t-260.5 -76.5 h-105q-161 0 -246 85q-88 -85 -248 -85h-111q-171 0 -263.5 82.5t-92.5 239.5zM343 293q0 -61 34.5 -91t95.5 -30h118q61 0 95 30t34 91v485q0 61 -34 91t-95 30h-118q-61 0 -95.5 -30.5t-34.5 -90.5v-485zM945 642h370v136q0 61 -34.5 92t-95.5 31h-111q-61 0 -95 -31 t-34 -92v-136z" />
<glyph unicode="&#x178;" horiz-adv-x="1103" d="M44 1341q0 22 16 37.5t47 15.5h96q31 0 47 -11.5t27 -35.5l167 -369q63 -138 108 -250q38 94 108 250l163 364q24 52 78 52h97q30 0 45 -15.5t15 -37.5q0 -16 -8 -32l-382 -789v-454q0 -66 -66 -66h-100q-66 0 -66 66v453l-385 793q-7 14 -7 29zM243 1626v49 q0 45 25 69.5t72 24.5h54q46 0 71 -24.5t25 -69.5v-49q0 -44 -25 -68.5t-71 -24.5h-54q-47 0 -72 24t-25 69zM614 1626v49q0 45 24.5 69.5t71.5 24.5h55q46 0 70.5 -24.5t24.5 -69.5v-49q0 -44 -24.5 -68.5t-70.5 -24.5h-55q-47 0 -71.5 24t-24.5 69z" />
<glyph unicode="&#x2c6;" horiz-adv-x="827" d="M102 1248v49q0 45 40 66l222 120q22 11 49 11q28 0 48 -11l224 -119q39 -20 39 -67v-49q0 -25 -13.5 -41t-36.5 -16q-12 0 -28 7l-233 123l-233 -123q-14 -7 -30 -7q-23 0 -35.5 16t-12.5 41z" />
<glyph unicode="&#x2dc;" horiz-adv-x="851" d="M62 1265v20q0 90 57.5 144t157.5 54q63 0 129 -39l118 -72q20 -14 44 -14q56 0 56 53v15q0 31 14.5 45t46.5 14h43q32 0 46.5 -14t14.5 -45v-21q0 -90 -58 -144t-158 -54q-70 0 -128 36l-118 75q-22 14 -44 14q-56 0 -56 -54v-13q0 -60 -61 -60h-43q-61 0 -61 60z" />
<glyph unicode="&#x2000;" horiz-adv-x="916" />
<glyph unicode="&#x2001;" horiz-adv-x="1832" />
<glyph unicode="&#x2002;" horiz-adv-x="916" />
<glyph unicode="&#x2003;" horiz-adv-x="1832" />
<glyph unicode="&#x2004;" horiz-adv-x="610" />
<glyph unicode="&#x2005;" horiz-adv-x="458" />
<glyph unicode="&#x2006;" horiz-adv-x="305" />
<glyph unicode="&#x2007;" horiz-adv-x="305" />
<glyph unicode="&#x2008;" horiz-adv-x="229" />
<glyph unicode="&#x2009;" horiz-adv-x="366" />
<glyph unicode="&#x200a;" horiz-adv-x="101" />
<glyph unicode="&#x2010;" horiz-adv-x="649" d="M98 526v70q0 64 65 64h323q65 0 65 -64v-70q0 -65 -65 -65h-323q-65 0 -65 65z" />
<glyph unicode="&#x2011;" horiz-adv-x="649" d="M98 526v70q0 64 65 64h323q65 0 65 -64v-70q0 -65 -65 -65h-323q-65 0 -65 65z" />
<glyph unicode="&#x2012;" horiz-adv-x="649" d="M98 526v70q0 64 65 64h323q65 0 65 -64v-70q0 -65 -65 -65h-323q-65 0 -65 65z" />
<glyph unicode="&#x2013;" horiz-adv-x="779" d="M98 526v70q0 64 65 64h453q65 0 65 -64v-70q0 -65 -65 -65h-453q-65 0 -65 65z" />
<glyph unicode="&#x2014;" horiz-adv-x="1284" d="M108 526v70q0 64 66 64h937q64 0 64 -64v-70q0 -65 -64 -65h-937q-66 0 -66 65z" />
<glyph unicode="&#x2018;" horiz-adv-x="451" d="M69 971q0 12 4 24l118 447q15 58 74 58h67q61 0 61 -58q0 -10 -4 -21l-111 -448q-14 -61 -76 -61h-71q-31 0 -46.5 16t-15.5 43z" />
<glyph unicode="&#x2019;" horiz-adv-x="451" d="M59 969q0 16 3 25l112 446q15 60 75 60h71q62 0 62 -59q0 -13 -3 -21l-118 -451q-15 -57 -75 -57h-67q-60 0 -60 57z" />
<glyph unicode="&#x201a;" horiz-adv-x="451" d="M69 -285q0 12 4 24l111 445q15 61 75 61h71q63 0 63 -59q0 -10 -4 -21l-118 -450q-15 -58 -75 -58h-67q-60 0 -60 58z" />
<glyph unicode="&#x201c;" horiz-adv-x="831" d="M69 971q0 12 4 24l118 447q15 58 74 58h67q61 0 61 -58q0 -10 -4 -21l-111 -448q-14 -61 -76 -61h-71q-31 0 -46.5 16t-15.5 43zM449 971q0 15 3 24l120 447q14 58 73 58h67q60 0 60 -58q0 -13 -3 -21l-111 -448q-14 -61 -76 -61h-72q-61 0 -61 59z" />
<glyph unicode="&#x201d;" horiz-adv-x="831" d="M59 969q0 16 3 25l112 446q15 60 75 60h71q62 0 62 -59q0 -13 -3 -21l-118 -451q-15 -57 -75 -57h-67q-60 0 -60 57zM439 969q0 16 3 25l112 446q15 60 75 60h71q62 0 62 -59q0 -13 -3 -21l-118 -451q-15 -57 -75 -57h-68q-59 0 -59 57z" />
<glyph unicode="&#x201e;" horiz-adv-x="831" d="M69 -285q0 12 4 24l111 445q15 61 75 61h71q63 0 63 -59q0 -10 -4 -21l-118 -450q-15 -58 -75 -58h-67q-60 0 -60 58zM449 -285q0 15 3 24l112 445q15 61 75 61h71q62 0 62 -59q0 -13 -3 -21l-118 -450q-15 -58 -75 -58h-67q-60 0 -60 58z" />
<glyph unicode="&#x2022;" horiz-adv-x="680" d="M137 646v141q0 59 34.5 94t93.5 35h150q59 0 94 -35t35 -94v-141q0 -59 -35 -93.5t-94 -34.5h-150q-59 0 -93.5 34.5t-34.5 93.5z" />
<glyph unicode="&#x2026;" horiz-adv-x="1603" d="M125 71v112q0 76 78 76h121q80 0 80 -76v-112q0 -37 -21 -57t-59 -20h-121q-78 0 -78 77zM662 71v112q0 76 79 76h121q78 0 78 -76v-112q0 -77 -78 -77h-121q-38 0 -58.5 20t-20.5 57zM1200 71v112q0 76 78 76h121q79 0 79 -76v-112q0 -77 -79 -77h-121q-78 0 -78 77z " />
<glyph unicode="&#x202f;" horiz-adv-x="366" />
<glyph unicode="&#x2039;" horiz-adv-x="583" d="M62 562q0 29 16 58l175 319q33 60 93 60h74q31 0 47.5 -16t16.5 -43q0 -17 -8 -33l-185 -345l185 -345q8 -16 8 -33q0 -27 -16.5 -43t-47.5 -16h-74q-59 0 -92 60l-177 320q-15 26 -15 57z" />
<glyph unicode="&#x203a;" horiz-adv-x="583" d="M100 184q0 17 8 33l185 345l-185 345q-8 16 -8 33q0 27 16.5 43t47.5 16h74q59 0 92 -60l176 -319q15 -27 15 -58q0 -32 -14 -57l-178 -320q-18 -33 -39 -46.5t-52 -13.5h-74q-31 0 -47.5 16t-16.5 43z" />
<glyph unicode="&#x205f;" horiz-adv-x="458" />
<glyph unicode="&#x20ac;" horiz-adv-x="1211" d="M55 528v49q0 26 11.5 37.5t39.5 11.5h109v141h-109q-28 0 -39.5 11.5t-11.5 39.5v49q0 26 11.5 37.5t39.5 11.5h109v129q0 175 97 268t277 93h139q179 0 276.5 -93t97.5 -268v-85q0 -27 -17 -43t-45 -16h-106q-28 0 -44 16t-16 43v107q0 71 -36.5 108t-104.5 37h-149 q-69 0 -105 -36.5t-36 -108.5v-151h244q27 0 38.5 -11.5t11.5 -37.5v-55q0 -24 -11.5 -34.5t-38.5 -10.5h-244v-141h244q27 0 38.5 -11.5t11.5 -37.5v-55q0 -23 -11.5 -33.5t-38.5 -10.5h-244v-149q0 -72 36 -109t105 -37h149q68 0 104.5 37.5t36.5 108.5v104q0 28 16 44 t44 16h106q29 0 45.5 -16t16.5 -44v-84q0 -175 -97.5 -268t-276.5 -93h-139q-180 0 -277 93t-97 268v129h-109q-28 0 -39.5 11t-11.5 39z" />
<glyph unicode="&#x2122;" horiz-adv-x="1252" d="M38 1306v40q0 22 13 35t35 13h390q48 0 48 -48v-40q0 -47 -48 -47h-123v-407q0 -47 -48 -47h-46q-50 0 -50 47v407h-123q-22 0 -35 12.5t-13 34.5zM614 852v491q0 24 13 37.5t36 13.5h98q41 0 63 -46l55 -114q26 -55 55 -131q34 96 52 131l58 115q23 45 60 45h99 q23 0 36.5 -13.5t13.5 -37.5v-491q0 -47 -46 -47h-40q-47 0 -47 47v190q0 62 5 185q-37 -95 -60 -138l-60 -123q-25 -52 -71 -52q-48 0 -73 52l-60 123q-34 69 -59 138q5 -123 5 -185v-190q0 -47 -46 -47h-41q-46 0 -46 47z" />
<glyph unicode="&#x25fc;" horiz-adv-x="1070" d="M0 0v1071h1071v-1071h-1071z" />
</font>
</defs>
</svg>
