<?xml version="1.0" standalone="no"?>
<!DOCTYPE svg PUBLIC "-//W3C//DTD SVG 1.1//EN" "http://www.w3.org/Graphics/SVG/1.1/DTD/svg11.dtd" >
<svg xmlns="http://www.w3.org/2000/svg">
<metadata></metadata>
<defs>
<font id="centerregular" horiz-adv-x="1053" >
<font-face units-per-em="2048" ascent="1621" descent="-427" />
<missing-glyph horiz-adv-x="475" />
<glyph unicode="&#xfb01;" horiz-adv-x="1152" d="M60 961v45q0 49 49 49h122v150q0 278 314 278h76q26 0 38 -11.5t12 -37.5v-42q0 -26 -12 -37.5t-38 -11.5h-77q-77 0 -111.5 -33.5t-34.5 -104.5v-150h224q50 0 50 -49v-47q0 -26 -12 -37t-38 -11h-224v-862q0 -49 -51 -49h-66q-50 0 -50 49v862h-122q-49 0 -49 50z M832 49q0 -26 11.5 -37.5t37.5 -11.5h68q26 0 37.5 11.5t11.5 37.5v957q0 26 -11.5 37.5t-37.5 11.5h-68q-49 0 -49 -49v-957zM832 1271v162q0 50 49 50h68q26 0 37.5 -12t11.5 -38v-162q0 -50 -49 -50h-68q-49 0 -49 50z" />
<glyph unicode="&#xfb02;" horiz-adv-x="1169" d="M60 961v45q0 49 49 49h122v150q0 278 314 278h76q26 0 38 -11.5t12 -37.5v-42q0 -26 -12 -37.5t-38 -11.5h-77q-77 0 -111.5 -33.5t-34.5 -104.5v-150h224q50 0 50 -49v-47q0 -26 -12 -37t-38 -11h-224v-862q0 -49 -51 -49h-66q-50 0 -50 49v862h-122q-49 0 -49 50z M847 49v1384q0 50 50 50h67q26 0 38 -12t12 -38v-1384q0 -26 -12 -37.5t-38 -11.5h-67q-50 0 -50 49z" />
<glyph unicode="&#xfb03;" horiz-adv-x="1753" d="M60 961v45q0 49 49 49h122v150q0 278 314 278h76q26 0 38 -11.5t12 -37.5v-42q0 -26 -12 -37.5t-38 -11.5h-77q-77 0 -111.5 -33.5t-34.5 -104.5v-150h224q50 0 50 -49v-47q0 -26 -12 -37t-38 -11h-224v-862q0 -49 -51 -49h-66q-50 0 -50 49v862h-122q-49 0 -49 50z M833 49v1156q0 278 314 278h77q26 0 37.5 -11.5t11.5 -37.5v-42q0 -26 -11.5 -37.5t-37.5 -11.5h-78q-77 0 -112 -33.5t-35 -104.5v-150h225q49 0 49 -49v-47q0 -26 -11.5 -37t-37.5 -11h-225v-862q0 -49 -50 -49h-67q-26 0 -37.5 12t-11.5 37zM1433 49q0 -26 11.5 -37.5 t37.5 -11.5h68q26 0 37.5 11.5t11.5 37.5v957q0 26 -11.5 37.5t-37.5 11.5h-68q-49 0 -49 -49v-957zM1433 1271v162q0 50 49 50h68q26 0 37.5 -12t11.5 -38v-162q0 -50 -49 -50h-68q-49 0 -49 50z" />
<glyph unicode="&#xfb04;" horiz-adv-x="1771" d="M60 961v45q0 49 49 49h122v150q0 278 314 278h76q26 0 38 -11.5t12 -37.5v-42q0 -26 -12 -37.5t-38 -11.5h-77q-77 0 -111.5 -33.5t-34.5 -104.5v-150h224q50 0 50 -49v-47q0 -26 -12 -37t-38 -11h-224v-862q0 -49 -51 -49h-66q-50 0 -50 49v862h-122q-49 0 -49 50z M834 49v1156q0 278 314 278h77q26 0 37.5 -11.5t11.5 -37.5v-42q0 -26 -11.5 -37.5t-37.5 -11.5h-78q-77 0 -112 -33.5t-35 -104.5v-150h225q49 0 49 -49v-47q0 -26 -11.5 -37t-37.5 -11h-225v-862q0 -49 -50 -49h-67q-26 0 -37.5 12t-11.5 37zM1451 49v1384q0 50 49 50h68 q26 0 37.5 -12t11.5 -38v-1384q0 -26 -11.5 -37.5t-37.5 -11.5h-68q-26 0 -37.5 11.5t-11.5 37.5z" />
<glyph horiz-adv-x="0" />
<glyph horiz-adv-x="0" />
<glyph horiz-adv-x="682" />
<glyph unicode="&#xd;" horiz-adv-x="475" />
<glyph unicode=" "  horiz-adv-x="475" />
<glyph unicode="&#x09;" horiz-adv-x="475" />
<glyph unicode="&#xa0;" horiz-adv-x="475" />
<glyph unicode="!" horiz-adv-x="527" d="M153 55v71q0 64 64 64h93q64 0 64 -64v-71q0 -64 -64 -64h-93q-64 0 -64 64zM180 373v976q0 49 50 49h68q26 0 37.5 -11.5t11.5 -37.5v-976q0 -50 -49 -50h-68q-50 0 -50 50z" />
<glyph unicode="&#x22;" horiz-adv-x="658" d="M97 990v456q0 29 13 41.5t42 12.5h43q29 0 41.5 -12t12.5 -42v-456q0 -30 -12.5 -43t-41.5 -13h-43q-29 0 -42 13t-13 43zM409 990v456q0 30 12.5 42t41.5 12h43q29 0 42 -12.5t13 -41.5v-456q0 -30 -13 -43t-42 -13h-43q-29 0 -41.5 13t-12.5 43z" />
<glyph unicode="#" horiz-adv-x="1214" d="M98 441l6 45q2 17 15.5 29t30.5 12h163l55 341h-159q-17 0 -28 12.5t-9 29.5l5 42q2 17 15.5 29.5t31.5 12.5h163l58 360q2 16 15.5 28t30.5 12h52q17 0 28 -12.5t9 -29.5l-58 -358h251l58 360q2 16 15.5 28t29.5 12h52q17 0 28.5 -12.5t8.5 -29.5l-58 -358h172 q17 0 27.5 -12.5t8.5 -29.5l-6 -42q-2 -17 -16 -29.5t-31 -12.5h-174l-54 -341h171q17 0 27.5 -12t8.5 -29l-6 -45q-2 -17 -15.5 -29t-30.5 -12h-175l-58 -361q-2 -16 -16 -27.5t-30 -11.5h-51q-18 0 -28.5 12t-8.5 31l57 357h-251l-58 -361q-2 -16 -16 -27.5t-30 -11.5h-51 q-19 0 -29 12t-8 31l58 357h-159q-17 0 -28 12t-9 29zM448 527h250l55 341h-250z" />
<glyph unicode="$" horiz-adv-x="1177" d="M130 335v58q0 51 52 51h66q52 0 52 -51v-58q0 -200 226 -202v509l-114 39q-144 49 -210 133t-66 217v30q0 160 103 252.5t287 94.5v139q0 26 12 38t38 12h26q26 0 38 -12t12 -38v-139q185 -2 287 -93t102 -255v-60q0 -51 -52 -51h-66q-52 0 -52 51v59q0 196 -219 201 v-501l119 -40q149 -51 213 -134t64 -217v-33q0 -167 -100 -258t-288 -91h-8v-156q0 -26 -12 -38t-38 -12h-26q-26 0 -38 12t-12 38v156h-6q-189 0 -289.5 91t-100.5 258zM305 1031q0 -152 168 -210l53 -19v458q-221 -5 -221 -199v-30zM652 133q113 0 170.5 49t57.5 153v33 q0 155 -168 211l-60 20v-466z" />
<glyph unicode="%" horiz-adv-x="1718" d="M114 862q0 -99 69.5 -156.5t183.5 -57.5h69q114 0 183 57t69 157v328q0 99 -69 156.5t-183 57.5h-69q-115 0 -184 -57.5t-69 -156.5v-328zM254 862v328q0 41 31 65.5t82 24.5h69q51 0 82 -24.5t31 -65.5v-328q0 -41 -31.5 -66t-81.5 -25h-69q-50 0 -81.5 25t-31.5 66z M495 24q0 12 4 23l579 1325q16 36 56 36h49q17 0 29 -11t12 -27q0 -9 -8 -27l-576 -1321q-16 -36 -52 -36h-53q-17 0 -28.5 11t-11.5 27zM1031 205q0 -99 69 -156.5t183 -57.5h70q113 0 182 57t69 157v327q0 100 -68.5 157.5t-182.5 57.5h-70q-114 0 -183 -57.5t-69 -157.5 v-327zM1171 205v327q0 41 31 66t81 25h70q50 0 81 -25t31 -66v-327q0 -41 -31 -66t-81 -25h-70q-50 0 -81 25t-31 66z" />
<glyph unicode="&#x26;" horiz-adv-x="1237" d="M116 343v72q0 117 53.5 193.5t152.5 100.5q-78 33 -118 106t-40 177v68q0 165 99 256.5t281 91.5h55q182 0 281.5 -91.5t99.5 -257.5v-37q0 -18 -12.5 -30t-30.5 -12h-86q-18 0 -31 12t-13 30v40q0 94 -52.5 144t-155.5 50h-55q-103 0 -156 -50t-53 -144v-77 q0 -206 161 -206h7q29 0 39.5 -11.5t10.5 -40.5v-47q0 -29 -10.5 -40t-39.5 -11h-27q-100 0 -144 -46t-44 -156v-83q0 -99 58 -152.5t168 -53.5h131q110 0 167.5 53.5t57.5 152.5v285h-123q-51 0 -51 51v47q0 52 51 52h379q51 0 51 -52v-47q0 -51 -51 -51h-84v-286 q0 -167 -104.5 -262t-292.5 -95h-131q-188 0 -293 95.5t-105 261.5z" />
<glyph unicode="'" horiz-adv-x="346" d="M97 990v456q0 29 13 41.5t42 12.5h43q29 0 41.5 -12t12.5 -42v-456q0 -30 -12.5 -43t-41.5 -13h-43q-29 0 -42 13t-13 43z" />
<glyph unicode="(" horiz-adv-x="576" d="M160 0v1304q0 149 83 220t229 71h37q29 0 42 -11.5t13 -39.5v-23q0 -55 -55 -55h-36q-75 0 -115.5 -41.5t-40.5 -120.5v-1304q0 -78 40.5 -119t115.5 -41h36q55 0 55 -55v-20q0 -54 -55 -54h-37q-145 0 -228.5 71.5t-83.5 217.5z" />
<glyph unicode=")" horiz-adv-x="576" d="M12 -215q0 55 55 55h36q75 0 115.5 41t40.5 119v1304q0 79 -40.5 120.5t-115.5 41.5h-36q-55 0 -55 55v23q0 28 13 39.5t42 11.5h37q146 0 229 -71t83 -220v-1304q0 -146 -83.5 -217.5t-228.5 -71.5h-37q-55 0 -55 54v20z" />
<glyph unicode="*" horiz-adv-x="770" d="M69 982q-14 25 10 40l189 121l-189 120q-24 16 -10 41l22 37q6 11 19 14t21 -3l186 -119v236q0 12 9 21t20 9h45q11 0 20.5 -9t9.5 -21v-236l185 118q24 15 40 -10l23 -37q14 -25 -10 -41l-190 -120l190 -121q24 -15 10 -40l-23 -37q-16 -25 -40 -10l-185 118v-237 q0 -12 -9.5 -21t-20.5 -9h-45q-11 0 -20 9t-9 21v238l-186 -120q-10 -6 -22 -2.5t-18 13.5z" />
<glyph unicode="+" horiz-adv-x="980" d="M79 682v31q0 51 51 51h293v292q0 52 51 52h31q51 0 51 -52v-292h295q50 0 50 -51v-31q0 -28 -12 -40t-38 -12h-295v-294q0 -51 -51 -51h-31q-51 0 -51 51v294h-293q-51 0 -51 52z" />
<glyph unicode="," horiz-adv-x="413" d="M49 -284q0 8 4 20l121 450q7 25 20 36.5t38 11.5h49q51 0 51 -48q0 -8 -3 -17l-120 -453q-13 -48 -60 -48h-49q-51 0 -51 48z" />
<glyph unicode="-" horiz-adv-x="653" d="M104 538v49q0 50 51 50h344q51 0 51 -50v-49q0 -52 -51 -52h-344q-51 0 -51 52z" />
<glyph unicode="." horiz-adv-x="507" d="M143 55v88q0 64 64 64h93q65 0 65 -64v-88q0 -64 -65 -64h-93q-64 0 -64 64z" />
<glyph unicode="/" horiz-adv-x="756" d="M67 -136q0 9 2 14l496 1633q11 35 49 35h38q17 0 27.5 -9.5t10.5 -24.5q0 -10 -2 -17l-497 -1631q-10 -34 -48 -34h-40q-16 0 -26 9.5t-10 24.5z" />
<glyph unicode="0" horiz-adv-x="1181" d="M137 360v674q0 183 101.5 278.5t291.5 95.5h122q191 0 292 -95t101 -279v-674q0 -184 -101 -279t-292 -95h-122q-190 0 -291.5 95.5t-101.5 278.5zM309 360q0 -223 221 -223h122q222 0 222 223v674q0 223 -222 223h-122q-221 0 -221 -223v-674z" />
<glyph unicode="1" horiz-adv-x="986" d="M123 51v45q0 51 51 51h279v1073l-271 -89q-12 -5 -19 -5q-40 0 -40 51v54q0 23 10 34t32 18l367 114q18 5 29 5q63 0 63 -68v-1187h240q52 0 52 -51v-45q0 -27 -12 -39t-40 -12h-690q-27 0 -39 12t-12 39z" />
<glyph unicode="2" horiz-adv-x="1180" d="M136 993v41q0 183 101.5 278.5t291.5 95.5h110q191 0 292.5 -95.5t101.5 -278.5v-19q0 -132 -56 -221t-181 -152l-347 -174q-130 -66 -130 -209v-112h673q52 0 52 -51v-45q0 -27 -12 -39t-40 -12h-792q-52 0 -52 51v208q0 121 55 206.5t181 148.5l348 174q67 34 98 91 t31 147v8q0 223 -222 223h-110q-221 0 -221 -223v-41q0 -27 -12 -39t-39 -12h-69q-52 0 -52 51z" />
<glyph unicode="3" horiz-adv-x="1181" d="M137 343v10q0 27 11.5 39t39.5 12h69q27 0 39 -12t12 -39v-10q0 -101 56 -156.5t165 -55.5h123q109 0 165.5 55.5t56.5 156.5v85q0 107 -52 156.5t-174 49.5h-161q-27 0 -39 12t-12 40v44q0 51 51 51h138q122 0 173.5 48t51.5 155v67q0 100 -56.5 155.5t-165.5 55.5h-94 q-106 0 -162.5 -53t-58.5 -149v-13q0 -26 -12 -38t-38 -12h-72q-26 0 -38 12t-12 38v11q2 168 104 259t289 91h94q190 0 292 -92.5t102 -264.5v-60q0 -110 -50.5 -181.5t-148.5 -99.5q109 -24 165 -99t56 -192v-76q0 -172 -101.5 -264.5t-290.5 -92.5h-123 q-189 0 -290.5 92.5t-101.5 264.5z" />
<glyph unicode="4" horiz-adv-x="1195" d="M84 539q0 15 2 24l165 787q9 44 54 44h70q21 0 33 -11.5t12 -28.5q0 -6 -2 -16l-153 -728h494v733q0 27 12 39t39 12h70q50 0 50 -51v-733h140q26 0 38 -12t12 -39v-44q0 -52 -50 -52h-140v-412q0 -27 -12 -39t-38 -12h-70q-27 0 -39 11.5t-12 39.5v412h-592 q-39 0 -61 22t-22 54z" />
<glyph unicode="5" horiz-adv-x="1180" d="M149 352v11q0 50 52 50h68q27 0 39 -12t12 -38v-11q0 -107 55.5 -163t165.5 -56h98q222 0 222 227v108q0 225 -222 225h-403q-52 0 -52 51v599q0 51 52 51h707q50 0 50 -51v-44q0 -51 -50 -51h-587v-403h283q194 0 294 -95t100 -282v-108q0 -183 -101.5 -278.5 t-292.5 -95.5h-98q-189 0 -290.5 94.5t-101.5 271.5z" />
<glyph unicode="6" horiz-adv-x="1182" d="M137 360v674q0 183 101.5 278.5t291.5 95.5h119q185 0 286 -86t107 -249v-4q0 -46 -43 -46h-87q-42 0 -42 46v4q0 85 -58.5 136t-162.5 51h-119q-221 0 -221 -226v-311l235 71q87 28 190 28q152 0 231.5 -87.5t79.5 -241.5v-133q0 -184 -101 -279t-292 -95h-122 q-190 0 -291.5 95.5t-101.5 278.5zM309 360q0 -227 221 -227h122q222 0 222 227v133q0 181 -174 181q-68 0 -125 -19l-266 -81v-214z" />
<glyph unicode="7" horiz-adv-x="1103" d="M102 982v361q0 51 52 51h787q51 0 51 -51v-287q0 -131 -37 -214t-126 -156l-134 -110q-61 -50 -86.5 -109t-25.5 -146v-270q0 -51 -51 -51h-69q-53 0 -53 51v270q0 123 36 209t123 156l137 113q64 53 89.5 107t25.5 150v192h-547v-266q0 -51 -51 -51h-69q-52 0 -52 51z " />
<glyph unicode="8" horiz-adv-x="1181" d="M139 335v14q0 81 43 155t117 119l128 78l-125 76q-159 97 -159 275v16q0 165 102 252.5t291 87.5h109q190 0 292 -87.5t102 -252.5v-16q0 -179 -159 -275l-124 -76l127 -78q75 -46 117.5 -118t42.5 -152v-18q0 -171 -101.5 -260t-292.5 -89h-117q-190 0 -291.5 89 t-101.5 260zM311 335q0 -201 221 -201h117q222 0 222 201v14q0 118 -108 181l-172 99l-171 -99q-109 -63 -109 -181v-14zM315 1052q0 -64 26 -106t83 -76l167 -98l168 98q57 33 82.5 75.5t25.5 106.5v16q0 99 -55 145.5t-167 46.5h-109q-112 0 -166.5 -46.5t-54.5 -145.5 v-16z" />
<glyph unicode="9" horiz-adv-x="1182" d="M137 901v133q0 184 101 279t292 95h122q190 0 291.5 -95.5t101.5 -278.5v-674q0 -183 -101.5 -278.5t-291.5 -95.5h-119q-184 0 -285.5 86.5t-107.5 249.5v3q0 46 43 46h87q41 0 41 -46v-3q0 -85 59 -136.5t163 -51.5h119q221 0 221 226v312l-235 -72q-84 -27 -190 -27 q-152 0 -231.5 87t-79.5 241zM308 901q0 -181 174 -181q68 0 125 19l266 81v214q0 227 -221 227h-122q-222 0 -222 -227v-133z" />
<glyph unicode=":" horiz-adv-x="507" d="M143 55v88q0 64 64 64h93q65 0 65 -64v-88q0 -64 -65 -64h-93q-64 0 -64 64zM143 912v88q0 64 64 64h93q65 0 65 -64v-88q0 -64 -65 -64h-93q-64 0 -64 64z" />
<glyph unicode=";" horiz-adv-x="451" d="M62 -284q0 8 4 20l121 450q7 25 20 36.5t38 11.5h49q51 0 51 -48q0 -8 -3 -17l-120 -453q-7 -25 -20.5 -36.5t-39.5 -11.5h-49q-51 0 -51 48zM147 912v88q0 64 65 64h92q65 0 65 -64v-88q0 -64 -65 -64h-92q-65 0 -65 64z" />
<glyph unicode="&#x3c;" horiz-adv-x="1010" d="M77 665v63q0 41 42 57l727 298q7 3 18 3q15 0 25 -10t10 -27v-46q0 -18 -7.5 -29t-29.5 -20l-630 -258l630 -257q22 -9 29.5 -20t7.5 -29v-47q0 -17 -10 -27t-25 -10q-5 0 -20 5l-725 297q-21 8 -31.5 20t-10.5 37z" />
<glyph unicode="=" horiz-adv-x="1003" d="M90 518v29q0 51 51 51h721q50 0 50 -51v-29q0 -28 -12 -40t-38 -12h-721q-51 0 -51 52zM90 848v29q0 51 51 51h721q50 0 50 -51v-29q0 -28 -12 -40t-38 -12h-721q-51 0 -51 52z" />
<glyph unicode="&#x3e;" horiz-adv-x="1010" d="M111 343v47q0 18 7.5 29t29.5 20l630 257l-630 258q-22 9 -29.5 20t-7.5 29v46q0 17 10 27t25 10q12 0 19 -3l727 -298q42 -16 42 -57v-63q0 -25 -10.5 -37t-31.5 -20l-726 -297q-15 -5 -19 -5q-15 0 -25.5 10t-10.5 27z" />
<glyph unicode="?" horiz-adv-x="978" d="M91 998v68q0 165 94 253.5t273 88.5h63q178 0 272 -88.5t94 -253.5v-52q0 -113 -34 -185.5t-111 -117.5l-86 -51q-58 -33 -73 -69t-15 -117v-92q0 -26 -12 -38t-38 -12h-58q-27 0 -39 12t-12 38v121q0 105 27 164t112 109l89 52q48 28 67.5 71.5t19.5 114.5v52 q0 97 -52 148t-151 51h-63q-101 0 -152 -51t-51 -148v-68q0 -52 -51 -52h-61q-52 0 -52 52zM378 55v71q0 64 64 64h93q64 0 64 -64v-71q0 -64 -64 -64h-93q-64 0 -64 64z" />
<glyph unicode="@" horiz-adv-x="1647" d="M138 359v336q0 276 174.5 439.5t458.5 163.5h106q290 0 461 -162.5t171 -440.5v-345q0 -110 -71 -179t-183 -69q-147 0 -216 110l-167 -73q-86 -37 -139 -37q-110 0 -172.5 61.5t-62.5 185.5v338q0 132 69.5 196.5t211.5 64.5h90q141 0 206 -64t65 -197v-337 q0 -52 30.5 -81.5t84.5 -29.5t84.5 29.5t30.5 81.5v345q0 220 -128 348t-365 128h-106q-231 0 -362.5 -129t-131.5 -347v-336q0 -222 127 -348t360 -126h418q23 0 33 -10.5t10 -33.5v-41q0 -24 -10 -33.5t-33 -9.5h-418q-287 0 -456.5 160t-169.5 442zM638 369 q0 -135 123 -135q41 0 82 18l161 71q-1 9 -1 27v336q0 77 -31.5 106t-106.5 29h-82q-76 0 -110.5 -29t-34.5 -106v-317z" />
<glyph unicode="A" horiz-adv-x="1218" d="M75 42q0 8 3 15l402 1290q14 47 60 47h139q46 0 60 -47l401 -1287q3 -8 3 -18q0 -18 -12 -30t-34 -12h-67q-43 0 -58 48l-110 338h-506l-109 -339q-14 -47 -58 -47h-67q-22 0 -34.5 11.5t-12.5 30.5zM393 527h432l-115 360q-44 139 -101 345q-46 -171 -101 -345z" />
<glyph unicode="B" horiz-adv-x="1197" d="M176 51v1292q0 51 51 51h431q190 0 285.5 -87.5t95.5 -255.5v-47q0 -245 -196 -293q108 -17 163.5 -96t55.5 -200v-62q0 -169 -98.5 -261t-291.5 -92h-445q-27 0 -39 12t-12 39zM348 145h324q114 0 165.5 51.5t51.5 155.5v74q0 114 -51.5 162.5t-165.5 48.5h-324v-492z M348 778h302q111 0 164 51.5t53 162.5v60q0 103 -49 149.5t-160 46.5h-310v-470z" />
<glyph unicode="C" horiz-adv-x="1244" d="M152 360v674q0 183 103.5 278.5t294.5 95.5h145q191 0 294 -95.5t103 -278.5v-63q0 -27 -12 -39t-40 -12h-67q-28 0 -40 12t-12 39v63q0 223 -226 223h-145q-226 0 -226 -223v-674q0 -223 226 -223h145q226 0 226 223v63q0 27 12 39t40 12h67q28 0 40 -12t12 -39v-63 q0 -183 -103 -278.5t-294 -95.5h-145q-191 0 -294.5 95.5t-103.5 278.5z" />
<glyph unicode="D" horiz-adv-x="1232" d="M176 51v1292q0 27 12 39t39 12h456q192 0 294.5 -93t102.5 -276v-651q0 -183 -103 -278.5t-294 -95.5h-456q-27 0 -39 11.5t-12 39.5zM347 147h336q111 0 168.5 57.5t57.5 169.5v651q0 223 -226 223h-336v-1101z" />
<glyph unicode="E" horiz-adv-x="1093" d="M176 51v1293q0 50 51 50h666q52 0 52 -51v-44q0 -51 -52 -51h-545v-467h545q52 0 52 -51v-45q0 -52 -52 -52h-545v-486h545q52 0 52 -51v-45q0 -27 -12.5 -39t-39.5 -12h-666q-27 0 -39 12t-12 39z" />
<glyph unicode="F" horiz-adv-x="1041" d="M176 51v1293q0 50 51 50h666q52 0 52 -51v-44q0 -51 -52 -51h-545v-489h545q52 0 52 -51v-44q0 -52 -52 -52h-545v-561q0 -51 -52 -51h-69q-51 0 -51 51z" />
<glyph unicode="G" horiz-adv-x="1244" d="M152 360v674q0 183 103.5 278.5t294.5 95.5h145q191 0 294 -95.5t103 -278.5v-45q0 -27 -12 -39t-40 -12h-67q-28 0 -40 12t-12 39v45q0 223 -226 223h-145q-226 0 -226 -223v-674q0 -223 226 -223h145q226 0 226 223v178h-249q-52 0 -52 52v44q0 27 12 39t40 12h368 q28 0 40 -12t12 -39v-274q0 -183 -103 -278.5t-294 -95.5h-145q-191 0 -294.5 95.5t-103.5 278.5z" />
<glyph unicode="H" horiz-adv-x="1268" d="M175 51v1292q0 51 50 51h71q26 0 38 -12t12 -39v-562h575v562q0 27 12 39t40 12h68q52 0 52 -51v-1292q0 -27 -12.5 -39t-39.5 -12h-68q-28 0 -40 11.5t-12 39.5v582h-575v-582q0 -27 -12 -39t-38 -12h-71q-26 0 -38 12t-12 39z" />
<glyph unicode="I" horiz-adv-x="545" d="M187 51v1292q0 51 50 51h71q26 0 38 -12t12 -39v-1292q0 -27 -12 -39t-38 -12h-71q-26 0 -38 12t-12 39z" />
<glyph unicode="J" horiz-adv-x="737" d="M63 -111q0 51 51 51h63q105 0 155 47t50 152v1109h-234q-52 0 -52 51v44q0 51 52 51h363q18 0 30.5 -12t12.5 -30v-1213q0 -166 -96 -256t-280 -90h-64q-51 0 -51 52v44z" />
<glyph unicode="K" horiz-adv-x="1127" d="M164 51v1292q0 51 50 51h71q26 0 38 -12t12 -39v-560h153l370 559q19 29 34.5 40.5t45.5 11.5h60q24 0 36 -12t12 -29q0 -9 -6 -21l-406 -629l409 -639q7 -10 7 -23q0 -41 -46 -41h-62q-27 0 -44 11.5t-34 37.5l-381 582h-148v-580q0 -27 -11.5 -39t-38.5 -12h-71 q-26 0 -38 12t-12 39z" />
<glyph unicode="L" horiz-adv-x="948" d="M176 51v1292q0 51 50 51h71q26 0 38 -12t12 -39v-1196h505q27 0 39 -12t12 -39v-45q0 -27 -12 -39t-39 -12h-626q-50 0 -50 51z" />
<glyph unicode="M" horiz-adv-x="1555" d="M177 51v1287q0 56 54 56h92q27 0 41 -10.5t26 -35.5l239 -476q93 -185 149 -303q20 42 45 93t57 114t48 96l238 476q13 25 26.5 35.5t39.5 10.5h92q55 0 55 -56v-1287q0 -27 -11.5 -39t-38.5 -12h-63q-26 0 -38 12t-12 39v734q0 195 4 327q-11 -23 -45.5 -98.5 t-63 -134.5t-58.5 -112l-198 -360q-26 -48 -77 -48q-52 0 -77 48l-199 360q-30 54 -58 110.5t-64.5 137t-44.5 97.5q5 -163 5 -327v-734q0 -51 -51 -51h-63q-26 0 -37.5 12t-11.5 39z" />
<glyph unicode="N" horiz-adv-x="1281" d="M176 51v1288q0 55 56 55h85q40 0 58 -35l397 -725q109 -200 176 -342q-6 236 -6 330v721q0 27 12 39t39 12h63q26 0 38 -12t12 -39v-1288q0 -55 -56 -55h-85q-38 0 -56 34l-406 742q-111 204 -169 327q6 -179 6 -326v-726q0 -27 -12 -39t-39 -12h-62q-27 0 -39 12t-12 39 z" />
<glyph unicode="O" horiz-adv-x="1252" d="M152 360v674q0 183 103.5 278.5t294.5 95.5h153q191 0 294.5 -95.5t103.5 -278.5v-674q0 -183 -103.5 -278.5t-294.5 -95.5h-153q-191 0 -294.5 95.5t-103.5 278.5zM324 360q0 -223 226 -223h153q226 0 226 223v674q0 223 -226 223h-153q-226 0 -226 -223v-674z" />
<glyph unicode="P" horiz-adv-x="1099" d="M176 43v1310q0 17 12 29t30 12h399q189 0 285 -88.5t96 -259.5v-170q0 -171 -95.5 -258.5t-285.5 -87.5h-270v-487q0 -19 -12.5 -31t-29.5 -12h-87q-18 0 -30 12t-12 31zM347 684h270q110 0 159 46t49 146v170q0 107 -49 154.5t-159 47.5h-270v-564z" />
<glyph unicode="Q" horiz-adv-x="1252" d="M152 360v674q0 183 103.5 278.5t294.5 95.5h153q191 0 294.5 -95.5t103.5 -278.5v-674q0 -183 -103.5 -278.5t-294.5 -95.5h-3v-147q0 -46 -45 -46h-59q-24 0 -34 11t-10 35v147h-2q-191 0 -294.5 95.5t-103.5 278.5zM324 360q0 -223 226 -223h2v131q0 24 10 34.5 t34 10.5h59q24 0 34.5 -10.5t10.5 -34.5v-131h3q226 0 226 223v674q0 223 -226 223h-153q-226 0 -226 -223v-674z" />
<glyph unicode="R" horiz-adv-x="1173" d="M176 51v1292q0 27 12 39t39 12h431q190 0 285.5 -87.5t95.5 -255.5v-87q0 -113 -51 -187t-146 -99q197 -41 197 -291v-336q0 -27 -12.5 -39t-39.5 -12h-69q-27 0 -39 11.5t-12 39.5v345q0 107 -52.5 157t-164.5 50h-303v-552q0 -27 -11.5 -39t-38.5 -12h-70 q-27 0 -39 11.5t-12 39.5zM347 750h303q112 0 164.5 50t52.5 157v94q0 103 -49.5 150.5t-159.5 47.5h-311v-499z" />
<glyph unicode="S" horiz-adv-x="1229" d="M146 335v58q0 51 52 51h69q52 0 52 -51v-58q0 -104 56 -153t169 -49h144q113 0 168.5 48.5t55.5 153.5v33q0 77 -38.5 127.5t-125.5 78.5l-314 103q-144 47 -210 133.5t-66 220.5v30q0 162 105 254.5t293 92.5h125q189 0 292.5 -91t103.5 -257v-60q0 -51 -52 -51h-69 q-52 0 -52 51v59q0 201 -223 201h-125q-226 0 -226 -199v-30q0 -76 39 -126.5t126 -79.5l312 -102q148 -48 212.5 -134t64.5 -221v-33q0 -167 -100 -258t-288 -91h-160q-189 0 -289.5 91t-100.5 258z" />
<glyph unicode="T" horiz-adv-x="1008" d="M41 1299v44q0 27 12 39t39 12h824q27 0 39 -12t12 -39v-44q0 -27 -12 -39t-39 -12h-326v-1197q0 -51 -51 -51h-70q-27 0 -39 11.5t-12 39.5v1197h-326q-27 0 -39 12t-12 39z" />
<glyph unicode="U" horiz-adv-x="1255" d="M164 343v1000q0 51 52 51h69q27 0 39 -12t12 -39v-1000q0 -100 57.5 -153t167.5 -53h133q110 0 167.5 53.5t57.5 152.5v1000q0 51 52 51h69q27 0 39 -12t12 -39v-1000q0 -171 -103.5 -264t-293.5 -93h-133q-189 0 -293 93t-104 264z" />
<glyph unicode="V" horiz-adv-x="1188" d="M75 1352q0 42 47 42h73q27 0 40.5 -12t20.5 -37l247 -844q52 -180 91 -339q49 199 91 340l247 843q14 49 62 49h74q22 0 34 -11t12 -31q0 -9 -3 -16l-386 -1288q-8 -28 -20.5 -38t-37.5 -10h-146q-25 0 -37 10t-20 38l-385 1287q-4 10 -4 17z" />
<glyph unicode="W" horiz-adv-x="1670" d="M71 1352q0 42 49 42h70q23 0 34.5 -11t16.5 -36l171 -844q38 -192 62 -336q29 137 82 336l185 710q7 25 18.5 36t35.5 11h81q23 0 34.5 -11t18.5 -36l186 -710q48 -182 81 -336q24 144 62 336l172 844q9 47 51 47h70q49 0 49 -42q0 -6 -3 -18l-266 -1286 q-5 -25 -17 -36.5t-35 -11.5h-145q-23 0 -35.5 12t-19.5 40l-161 598q-30 110 -83 355q-40 -196 -83 -355l-161 -598q-7 -28 -19 -40t-36 -12h-145q-23 0 -34 11t-16 36l-268 1284q-2 8 -2 21z" />
<glyph unicode="X" horiz-adv-x="1193" d="M101 41q0 10 6 21l375 641l-369 629q-5 10 -5 21q0 17 12.5 29t30.5 12h76q39 0 59 -36l310 -525l313 525q21 36 58 36h77q18 0 29.5 -12t11.5 -29q0 -11 -4 -19l-370 -631l377 -641q6 -11 6 -20q0 -17 -12.5 -29.5t-30.5 -12.5h-76q-39 0 -59 37l-320 536l-318 -536 q-23 -37 -60 -37h-75q-18 0 -30 12t-12 29z" />
<glyph unicode="Y" horiz-adv-x="1088" d="M54 1353q0 16 12.5 28.5t34.5 12.5h65q45 0 60 -34l190 -409q112 -242 128 -279q20 46 42 94.5t47.5 103t38.5 81.5l186 401q21 42 64 42h67q21 0 33 -12.5t12 -28.5q0 -11 -6 -25l-397 -817v-460q0 -27 -12.5 -39t-39.5 -12h-70q-27 0 -38.5 12t-11.5 39v458l-400 822 q-5 11 -5 22z" />
<glyph unicode="Z" horiz-adv-x="1147" d="M109 51v53q0 34 12 51l711 1093h-662q-27 0 -39 12t-12 39v44q0 27 12 39t39 12h809q52 0 52 -51v-54q0 -28 -16 -53l-708 -1089h670q28 0 40 -12t12 -39v-45q0 -27 -12 -39t-40 -12h-817q-51 0 -51 51z" />
<glyph unicode="[" horiz-adv-x="552" d="M160 -234v1768q0 61 61 61h265q29 0 41.5 -11.5t12.5 -38.5v-24q0 -29 -13 -41.5t-41 -12.5h-168v-1628h168q54 0 54 -55v-19q0 -54 -54 -54h-265q-61 0 -61 55z" />
<glyph unicode="\" horiz-adv-x="756" d="M67 1512q0 15 10.5 24.5t27.5 9.5h38q38 0 49 -35l496 -1633q2 -5 2 -14q0 -15 -10 -24.5t-26 -9.5h-40q-38 0 -48 34l-497 1631q-2 7 -2 17z" />
<glyph unicode="]" horiz-adv-x="552" d="M12 -216q0 55 55 55h167v1628h-167q-55 0 -55 54v24q0 27 13 38.5t42 11.5h264q61 0 61 -61v-1768q0 -55 -61 -55h-264q-55 0 -55 54v19z" />
<glyph unicode="^" horiz-adv-x="943" d="M82 621q0 8 4 20l297 725q8 21 20 31.5t37 10.5h63q42 0 58 -42l297 -727q4 -9 4 -19q0 -15 -10.5 -25t-27.5 -10h-46q-33 0 -48 38l-258 630l-257 -630q-15 -38 -49 -38h-47q-17 0 -27 10.5t-10 25.5z" />
<glyph unicode="_" horiz-adv-x="1005" d="M97 -304q0 51 51 51h709q51 0 51 -51v-36q0 -51 -51 -51h-709q-51 0 -51 51v36z" />
<glyph unicode="`" horiz-adv-x="806" d="M253 1475q0 38 49 38h46q49 0 66 -32l120 -224q9 -16 9 -29q0 -38 -48 -38h-47q-48 0 -66 33l-119 223q-10 18 -10 29z" />
<glyph unicode="a" horiz-adv-x="1028" d="M103 269v51q0 274 354 274h261v160q0 90 -44.5 132t-136.5 42h-69q-172 0 -172 -140q0 -25 -11 -37t-38 -12h-68q-49 0 -49 49q0 131 87.5 205.5t250.5 74.5h69q170 0 258.5 -78.5t88.5 -235.5v-705q0 -49 -50 -49h-66q-26 0 -37.5 11.5t-11.5 37.5v35l-158 -64 q-83 -34 -174 -34q-123 0 -203.5 76.5t-80.5 206.5zM271 269q0 -71 40 -106.5t113 -35.5q49 0 101 16l193 64v257h-258q-99 0 -144 -34t-45 -110v-51z" />
<glyph unicode="b" horiz-adv-x="1063" d="M143 300v1134q0 26 12 37.5t38 11.5h66q26 0 38 -11.5t12 -37.5v-477l148 68q90 43 189 43q137 0 211.5 -78t74.5 -236v-454q0 -150 -92.5 -232t-255.5 -82h-94q-164 0 -255.5 82t-91.5 232zM309 300q0 -85 47.5 -127t133.5 -42h94q85 0 133 42t48 127v454q0 88 -37 125 t-113 37q-54 0 -116 -25l-190 -77v-514z" />
<glyph unicode="c" horiz-adv-x="1042" d="M132 300v454q0 150 92 232t256 82h83q163 0 255.5 -82t92.5 -232v-10q0 -27 -12 -38.5t-39 -11.5h-66q-26 0 -38 12t-12 38v10q0 85 -48 127.5t-133 42.5h-83q-85 0 -133 -43t-48 -127v-454q0 -85 47.5 -127t133.5 -42h83q85 0 133 42t48 127v11q0 50 49 50h67 q27 0 39 -12t12 -38v-11q0 -150 -92.5 -232t-255.5 -82h-83q-164 0 -256 82t-92 232z" />
<glyph unicode="d" horiz-adv-x="1070" d="M132 300v454q0 150 91.5 232t254.5 82h68q145 0 208 -67v432q0 26 12 38t38 12h66q27 0 39 -11.5t12 -38.5v-1384q0 -49 -50 -49h-64q-27 0 -38.5 11.5t-11.5 37.5v48l-161 -73q-85 -38 -177 -38q-135 0 -211 80.5t-76 233.5zM299 300q0 -85 36.5 -124t109.5 -39 q63 0 118 23l191 78v527q0 76 -49.5 117.5t-140.5 41.5h-85q-180 0 -180 -170v-454z" />
<glyph unicode="e" horiz-adv-x="1041" d="M132 300v454q0 150 92 232t256 82h82q163 0 255.5 -82t92.5 -232v-169q0 -42 -23.5 -65t-69.5 -23h-518v-197q0 -86 47.5 -129t133.5 -43h82q84 0 132.5 35t48.5 98v2q0 45 50 45h67q50 0 50 -45v-3q0 -123 -94 -198.5t-254 -75.5h-82q-164 0 -256 82t-92 232zM299 627 h444v127q0 86 -48 129.5t-133 43.5h-82q-85 0 -133 -44t-48 -129v-127z" />
<glyph unicode="f" horiz-adv-x="662" d="M60 961v45q0 49 49 49h122v150q0 278 314 278h80q26 0 37.5 -11.5t11.5 -37.5v-42q0 -26 -11.5 -37.5t-37.5 -11.5h-81q-77 0 -111.5 -33.5t-34.5 -104.5v-150h177q50 0 50 -49v-47q0 -26 -12 -37t-38 -11h-177v-862q0 -49 -51 -49h-66q-50 0 -50 49v862h-122 q-49 0 -49 50z" />
<glyph unicode="g" d="M132 329v425q0 150 92 232t256 82h93q163 0 255.5 -82t92.5 -232v-847q0 -148 -94.5 -229.5t-253.5 -81.5h-93q-166 0 -256 66.5t-90 184.5q0 21 11.5 33.5t29.5 12.5h84q19 0 30 -12.5t11 -33.5q0 -111 180 -111h93q181 0 181 162v225l-151 -67q-91 -41 -186 -41 q-136 0 -210.5 78t-74.5 236zM299 329q0 -88 35 -125t110 -37q60 0 118 24l192 79v484q0 85 -48 127.5t-133 42.5h-93q-85 0 -133 -43t-48 -127v-425z" />
<glyph unicode="h" horiz-adv-x="1081" d="M148 49v1385q0 49 51 49h66q50 0 50 -49v-477l148 68q95 43 189 43q137 0 211 -77.5t74 -236.5v-705q0 -26 -12 -37.5t-39 -11.5h-68q-26 0 -37 11.5t-11 37.5v705q0 88 -36.5 125t-112.5 37q-54 0 -116 -25l-190 -77v-765q0 -26 -11.5 -37.5t-37.5 -11.5h-67 q-51 0 -51 49z" />
<glyph unicode="i" horiz-adv-x="486" d="M160 49q0 -49 50 -49h67q26 0 38 11.5t12 37.5v957q0 49 -50 49h-67q-50 0 -50 -49v-957zM160 1260v173q0 50 50 50h67q26 0 38 -12t12 -38v-173q0 -50 -50 -50h-67q-50 0 -50 50z" />
<glyph unicode="j" horiz-adv-x="486" d="M-9 -303q0 49 47 49q57 0 89.5 32.5t32.5 98.5v1129q0 49 49 49h67q50 0 50 -49v-1129q0 -134 -76 -207.5t-212 -73.5q-47 0 -47 49v52zM160 1260v173q0 50 49 50h67q26 0 38 -12t12 -38v-173q0 -50 -50 -50h-67q-49 0 -49 50z" />
<glyph unicode="k" horiz-adv-x="997" d="M149 49v1384q0 50 50 50h67q26 0 38 -12t12 -38v-802h137l280 384q29 40 71 40h66q45 0 45 -40q0 -11 -7 -23l-308 -433l323 -496q7 -11 7 -23q0 -16 -11 -28t-31 -12h-70q-26 0 -41 10.5t-29 31.5l-297 450h-135v-443q0 -26 -12 -37.5t-38 -11.5h-67q-50 0 -50 49z" />
<glyph unicode="l" horiz-adv-x="486" d="M160 49v1384q0 50 50 50h67q26 0 38 -12t12 -38v-1384q0 -26 -12 -37.5t-38 -11.5h-67q-50 0 -50 49z" />
<glyph unicode="m" horiz-adv-x="1658" d="M149 49v957q0 49 51 49h64q26 0 37.5 -11.5t11.5 -37.5v-44l129 61q96 45 186 45q170 0 241 -117l168 76q89 41 190 41q136 0 211 -78.5t75 -235.5v-705q0 -26 -12 -37.5t-38 -11.5h-68q-26 0 -37 11.5t-11 37.5v705q0 87 -37.5 124.5t-113.5 37.5q-54 0 -117 -25 l-168 -70q4 -27 4 -67v-705q0 -49 -51 -49h-67q-26 0 -37.5 11.5t-11.5 37.5v705q0 87 -37.5 124.5t-112.5 37.5q-54 0 -116 -25l-166 -69v-773q0 -26 -11.5 -37.5t-37.5 -11.5h-67q-51 0 -51 49z" />
<glyph unicode="n" horiz-adv-x="1081" d="M149 49v957q0 49 51 49h64q26 0 37.5 -11.5t11.5 -37.5v-49l150 68q95 43 189 43q137 0 211 -77.5t74 -236.5v-705q0 -26 -12 -37.5t-39 -11.5h-67q-26 0 -37 11.5t-11 37.5v705q0 88 -37 124.5t-113 36.5q-57 0 -116 -24l-189 -77v-765q0 -26 -11.5 -37.5t-37.5 -11.5 h-67q-51 0 -51 49z" />
<glyph unicode="o" d="M132 300v454q0 150 92 232t256 82h93q163 0 255.5 -82t92.5 -232v-454q0 -150 -92.5 -232t-255.5 -82h-93q-164 0 -256 82t-92 232zM299 300q0 -85 47.5 -127t133.5 -42h93q85 0 133 42t48 127v454q0 85 -48 127.5t-133 42.5h-93q-85 0 -133 -43t-48 -127v-454z" />
<glyph unicode="p" horiz-adv-x="1069" d="M148 -340v1346q0 49 51 49h64q26 0 37.5 -11.5t11.5 -37.5v-50l151 68q97 44 190 44q137 0 211 -77.5t74 -236.5v-454q0 -150 -92 -232t-255 -82h-68q-146 0 -208 68v-394q0 -51 -50 -51h-66q-27 0 -39 12t-12 39zM315 290q0 -76 49.5 -117.5t140.5 -41.5h86 q180 0 180 169v454q0 88 -36.5 124.5t-112.5 36.5q-61 0 -118 -23l-189 -77v-525z" />
<glyph unicode="q" horiz-adv-x="1065" d="M132 300v454q0 150 92 232t256 82h93q163 0 255.5 -82t92.5 -232v-1104q0 -17 -12 -29t-29 -12h-84q-18 0 -30 12t-12 29v447l-142 -64q-108 -47 -194 -47q-137 0 -211.5 78t-74.5 236zM299 300q0 -89 35 -126t110 -37q64 0 118 23l192 79v515q0 85 -48 127.5t-133 42.5 h-93q-85 0 -133 -43t-48 -127v-454z" />
<glyph unicode="r" horiz-adv-x="695" d="M149 50v954q0 51 52 51h61q51 0 51 -51v-55l80 56q90 63 182 63h21q27 0 39 -12t12 -39v-67q0 -27 -12 -39t-39 -12h-17q-91 0 -172 -40l-91 -46v-763q0 -27 -12 -38.5t-39 -11.5h-64q-27 0 -39.5 11.5t-12.5 38.5z" />
<glyph unicode="s" horiz-adv-x="1016" d="M124 264v14q0 28 11.5 38.5t38.5 10.5h67q26 0 38 -10.5t12 -38.5v-14q0 -68 45 -104.5t127 -36.5h92q171 0 171 148v29q0 56 -33 89t-104 50l-195 49q-136 34 -199.5 101t-63.5 176v20q0 129 89 206t239 77h92q159 0 249 -75t90 -202v-9q0 -28 -11 -38.5t-38 -10.5h-67 q-27 0 -38.5 10.5t-11.5 38.5v9q0 68 -45.5 105t-127.5 37h-91q-76 0 -119 -39t-43 -109v-20q0 -104 130 -134l195 -46q144 -34 207 -100t63 -185v-29q0 -132 -90.5 -208.5t-247.5 -76.5h-92q-158 0 -248.5 76t-90.5 202z" />
<glyph unicode="t" horiz-adv-x="737" d="M44 959v47q0 26 11.5 37.5t37.5 11.5h122v286q0 50 50 50h66q51 0 51 -50v-286h221q52 0 52 -49v-47q0 -48 -52 -48h-221v-648q0 -115 118 -115h103q52 0 52 -48v-51q0 -49 -52 -49h-105q-144 0 -213.5 65t-69.5 198v648h-122q-26 0 -37.5 11t-11.5 37z" />
<glyph unicode="u" horiz-adv-x="1081" d="M145 300v705q0 26 12 38t39 12h67q25 0 36.5 -12t11.5 -38v-705q0 -88 37 -125t113 -37q58 0 116 23l189 77v767q0 50 49 50h67q51 0 51 -50v-956q0 -49 -51 -49h-64q-26 0 -37.5 11.5t-11.5 37.5v48l-150 -67q-97 -44 -189 -44q-137 0 -211 77.5t-74 236.5z" />
<glyph unicode="v" horiz-adv-x="991" d="M55 1014q0 18 12 29.5t35 11.5h70q43 0 56 -42l185 -595q49 -159 84 -291q32 130 82 291l185 595q7 21 19 31.5t37 10.5h69q23 0 35 -11.5t12 -29.5q0 -12 -3 -20l-307 -959q-14 -44 -58 -44h-145q-44 0 -58 44l-306 962q-4 11 -4 17z" />
<glyph unicode="w" horiz-adv-x="1547" d="M71 1015q0 18 12 29t36 11h64q43 0 56 -47l148 -586q0 -1 72 -299q30 152 68 299l151 588q6 24 18 34.5t36 10.5h84q43 0 55 -45l149 -584q49 -195 71 -303q26 127 70 302l148 583q13 47 55 47h64q24 0 36.5 -11t12.5 -29q0 -13 -2 -19l-258 -960q-12 -45 -53 -45h-128 q-46 0 -60 45l-138 503q-35 126 -64 313q-29 -187 -64 -313l-139 -503q-13 -45 -58 -45h-128q-43 0 -55 45l-257 962q-2 7 -2 17z" />
<glyph unicode="x" horiz-adv-x="965" d="M82 41q0 9 6 20l276 473l-277 461q-5 10 -5 20q0 16 12 28t31 12h73q32 0 54 -35l231 -371l231 371q22 35 53 35h75q19 0 30 -12t11 -28q0 -10 -6 -22l-275 -459l277 -475q4 -8 4 -18q0 -17 -11 -29t-30 -12h-74q-31 0 -53 35l-232 380l-232 -380q-22 -35 -54 -35h-72 q-19 0 -31 12t-12 29z" />
<glyph unicode="y" horiz-adv-x="1016" d="M55 1014q0 41 51 41h63q26 0 37.5 -9t19.5 -34l192 -602q57 -184 90 -314q37 147 89 310l192 606q14 43 58 43h64q50 0 50 -41q0 -6 -4 -17l-357 -1075q-51 -156 -161.5 -241t-266.5 -85q-50 0 -50 51v48q0 49 50 49q100 0 171.5 52.5t107.5 151.5l16 43h-36 q-42 0 -56 44l-316 961q-4 9 -4 18z" />
<glyph unicode="z" horiz-adv-x="940" d="M90 49v50q0 33 18 57l541 755h-501q-51 0 -51 49v46q0 49 51 49h643q50 0 50 -49v-50q0 -30 -19 -57l-540 -755h518q51 0 51 -49v-46q0 -49 -51 -49h-661q-26 0 -37.5 11.5t-11.5 37.5z" />
<glyph unicode="{" horiz-adv-x="656" d="M21 641v25q0 53 55 53h6q164 3 164 184v402q0 290 308 290h35q29 0 42 -11.5t13 -38.5v-24q0 -54 -55 -54h-35q-152 0 -152 -162v-399q0 -206 -169 -253q169 -44 169 -254v-400q0 -160 152 -160h35q55 0 55 -55v-19q0 -54 -55 -54h-35q-146 0 -227 72.5t-81 219.5v397 q0 49 -12 85t-28.5 54.5t-41.5 29.5t-42 13.5t-40 3.5h-6q-55 0 -55 55z" />
<glyph unicode="|" horiz-adv-x="418" d="M135 -335v1868q0 57 56 57h36q56 0 56 -57v-1868q0 -55 -56 -55h-36q-56 0 -56 55z" />
<glyph unicode="}" horiz-adv-x="656" d="M12 -216q0 55 55 55h35q152 0 152 160v400q0 210 169 254q-169 47 -169 253v399q0 162 -152 162h-35q-55 0 -55 54v24q0 27 13 38.5t42 11.5h35q308 0 308 -290v-402q0 -181 164 -184h6q55 0 55 -53v-25q0 -55 -55 -55h-6q-23 -1 -40 -3.5t-42 -13.5t-41.5 -29.5 t-28.5 -54.5t-12 -85v-397q0 -147 -81 -219.5t-227 -72.5h-35q-55 0 -55 54v19z" />
<glyph unicode="~" horiz-adv-x="936" d="M81 611v25q0 91 61 146t158 55q67 0 138 -44l126 -80q38 -24 68 -24q41 0 64 20.5t23 59.5v19q0 51 52 51h33q51 0 51 -51v-23q0 -92 -60.5 -147.5t-158.5 -55.5q-74 0 -138 42l-126 84q-34 24 -68 24q-41 0 -64 -21t-23 -60v-20q0 -50 -51 -50h-34q-27 0 -39 12t-12 38z " />
<glyph unicode="&#xa1;" horiz-adv-x="527" d="M153 928v71q0 64 64 64h93q64 0 64 -64v-71q0 -64 -64 -64h-93q-64 0 -64 64zM180 -294v976q0 49 50 49h68q26 0 37.5 -11.5t11.5 -37.5v-976q0 -26 -11.5 -37.5t-37.5 -11.5h-68q-50 0 -50 49z" />
<glyph unicode="&#xa2;" horiz-adv-x="1031" d="M127 279v497q0 137 85.5 214t235.5 78v141q0 51 49 51h35q50 0 50 -51v-141h2q150 0 235 -77.5t85 -214.5v-32q0 -17 -16.5 -33.5t-33.5 -16.5h-66q-18 0 -34 16.5t-16 33.5v33q0 158 -155 158h-1v-816h1q155 0 155 159v29q0 54 50 54h66q26 0 38 -12t12 -38v-32 q0 -137 -85 -215t-235 -78h-2v-156q0 -26 -12 -38t-38 -12h-35q-49 0 -49 50v156q-150 1 -235.5 78.5t-85.5 214.5zM294 278q0 -159 154 -159v816q-154 -2 -154 -158v-499z" />
<glyph unicode="&#xa3;" horiz-adv-x="1162" d="M103 51v45q0 27 12 39t39 12h119v465h-129q-22 0 -31.5 9t-9.5 32v46q0 22 9.5 31t31.5 9h129v320q0 165 95 257t263 92h65q168 0 263 -92t95 -257v-47q0 -18 -13 -30.5t-31 -12.5h-85q-18 0 -31 12.5t-13 30.5v48q0 97 -47.5 146.5t-137.5 49.5h-65q-90 0 -138 -49.5 t-48 -146.5v-321h341q22 0 31.5 -9t9.5 -31v-46q0 -23 -9.5 -32t-31.5 -9h-341v-465h557q52 0 52 -51v-45q0 -27 -12.5 -39t-39.5 -12h-848q-27 0 -39 11.5t-12 39.5z" />
<glyph unicode="&#xa4;" horiz-adv-x="1046" d="M132 374q0 15 12 27l118 117q-26 46 -26 115v124q0 69 27 117l-119 118q-12 10 -12 27q0 15 12 26l30 30q10 11 27 11t27 -11l118 -117q51 32 125 32h104q75 0 126 -32l118 117q11 11 27 11q17 0 27 -11l30 -30q11 -10 11 -26q0 -17 -11 -27l-119 -118q27 -51 27 -117 v-124q0 -66 -26 -115l118 -117q11 -11 11 -27q0 -15 -11 -26l-30 -31q-12 -12 -26 -12q-16 0 -28 12l-117 116q-49 -32 -127 -32h-104q-78 0 -127 32l-116 -116q-11 -12 -27 -12q-15 0 -27 12l-30 31q-12 12 -12 26zM361 633q0 -58 27.5 -84t83.5 -26h103q55 0 83 25.5 t28 84.5v124q0 59 -27.5 84.5t-83.5 25.5h-103q-56 0 -83.5 -25.5t-27.5 -84.5v-124z" />
<glyph unicode="&#xa5;" horiz-adv-x="1146" d="M124 1353q0 17 11.5 29t35.5 12h72q35 0 55 -39l275 -594l276 594q18 39 58 39h69q24 0 35 -12t11 -29q0 -9 -6 -23l-309 -614h257q22 0 31.5 -9t9.5 -32v-44q0 -22 -9 -31t-32 -9h-305v-140h305q22 0 31.5 -9.5t9.5 -31.5v-42q0 -23 -9 -32t-32 -9h-305v-276 q0 -51 -51 -51h-70q-51 0 -51 51v276h-306q-22 0 -31 9t-9 32v42q0 22 9 31.5t31 9.5h306v140h-306q-22 0 -31 9t-9 31v44q0 22 9 31.5t31 9.5h258l-310 614q-5 12 -5 23z" />
<glyph unicode="&#xa6;" horiz-adv-x="405" d="M137 -171q0 -49 51 -49h30q50 0 50 49v677q0 26 -12 38t-38 12h-30q-51 0 -51 -50v-677zM137 863v676q0 51 51 51h30q50 0 50 -51v-676q0 -50 -50 -50h-30q-51 0 -51 50z" />
<glyph unicode="&#xa7;" horiz-adv-x="1245" d="M158 7q0 51 52 51h69q52 0 52 -51v-62q0 -104 56 -153t169 -49h135q113 0 169 48.5t56 153.5v58q0 76 -39 127t-126 80l-513 167q-43 13 -43 64v49q0 24 12.5 36.5t32.5 12.5q13 0 25 -4l546 -178q148 -48 212 -133.5t64 -220.5v-58q0 -167 -99.5 -258t-287.5 -91h-152 q-189 0 -289.5 91t-100.5 258v62zM163 1002v59q0 162 105 254.5t293 92.5h125q189 0 292.5 -91t103.5 -257v-60q0 -51 -52 -51h-69q-52 0 -52 51v59q0 201 -223 201h-125q-226 0 -226 -199v-59q0 -76 39 -127t126 -80l512 -167q23 -7 33.5 -21.5t10.5 -42.5v-49 q0 -24 -13 -36.5t-33 -12.5q-13 0 -25 4l-546 178q-144 47 -210 133.5t-66 220.5z" />
<glyph unicode="&#xa8;" horiz-adv-x="827" d="M137 1311v45q0 81 81 81h49q80 0 80 -81v-45q0 -38 -20.5 -59t-59.5 -21h-49q-81 0 -81 80zM479 1311v45q0 81 82 81h48q80 0 80 -81v-45q0 -38 -20.5 -59t-59.5 -21h-48q-40 0 -61 21t-21 59z" />
<glyph unicode="&#xa9;" horiz-adv-x="1600" d="M132 571v252q0 170 78.5 304t217 207.5t311.5 73.5h115q270 0 442 -163t172 -422v-252q0 -259 -172 -422t-442 -163h-115q-173 0 -311.5 73.5t-217 207.5t-78.5 304zM271 571q0 -199 128 -328.5t340 -129.5h115q217 0 346 129.5t129 328.5v252q0 199 -129 328t-346 129 h-115q-212 0 -340 -129t-128 -328v-252zM492 580q0 -114 67 -179.5t189 -65.5h98q121 0 188 62t67 172v8q0 23 -9.5 31t-33.5 8h-48q-24 0 -33 -8t-9 -31v-7q0 -113 -126 -113h-91q-58 0 -92 31.5t-34 92.5v231q0 61 34 93t92 32h91q126 0 126 -114v-6q0 -24 9 -32t33 -8h48 q24 0 33.5 8.5t9.5 31.5v7q0 110 -66.5 172t-188.5 62h-98q-122 0 -189 -65.5t-67 -179.5v-233z" />
<glyph unicode="&#xaa;" horiz-adv-x="786" d="M119 866v37q0 86 58.5 135t178.5 49h181v114q0 50 -28 74.5t-76 24.5h-62q-46 0 -74.5 -23t-28.5 -64q0 -35 -32 -35h-68q-14 0 -22.5 9.5t-8.5 25.5q0 88 62.5 139.5t169.5 51.5h66q110 0 171.5 -53.5t61.5 -154.5v-479q0 -13 -9.5 -22.5t-22.5 -9.5h-64q-14 0 -23 9 t-9 22v20l-102 -37q-59 -22 -123 -22q-87 0 -141.5 50t-54.5 139zM252 867q0 -90 92 -90q31 0 62 9l131 41v166h-179q-106 0 -106 -86v-40z" />
<glyph unicode="&#xab;" horiz-adv-x="1014" d="M64 553q0 23 14 47l212 339q30 47 78 47h54q22 0 35.5 -14t13.5 -34q0 -12 -7 -24l-226 -361l226 -360q7 -12 7 -24q0 -20 -13.5 -34.5t-35.5 -14.5h-54q-49 0 -78 47l-213 340q-13 23 -13 46zM505 553q0 23 14 47l213 339q30 47 77 47h55q22 0 35 -14t13 -34 q0 -12 -7 -24l-226 -361l226 -360q7 -12 7 -24q0 -21 -13 -35t-35 -14h-55q-48 0 -77 47l-214 340q-13 23 -13 46z" />
<glyph unicode="&#xac;" horiz-adv-x="981" d="M79 837v32q0 50 51 50h721q51 0 51 -50v-359q0 -50 -50 -50h-32q-27 0 -39 12t-12 38v276h-639q-51 0 -51 51z" />
<glyph unicode="&#xad;" horiz-adv-x="653" d="M104 538v49q0 50 51 50h344q51 0 51 -50v-49q0 -52 -51 -52h-344q-51 0 -51 52z" />
<glyph unicode="&#xae;" horiz-adv-x="1061" d="M116 896v179q0 161 90.5 247t267.5 86h114q176 0 266.5 -85.5t90.5 -246.5v-179q0 -161 -90.5 -247t-266.5 -86h-114q-177 0 -267.5 86t-90.5 246zM196 897q0 -260 278 -260h114q277 0 277 260v179q0 259 -277 259h-114q-278 0 -278 -259v-179zM368 781v409q0 27 27 27 h172q69 0 109.5 -35.5t40.5 -98.5v-22q0 -38 -20.5 -65.5t-55.5 -38.5q76 -18 76 -105v-71q0 -24 -24 -24h-28q-24 0 -24 24v78q0 30 -20 46.5t-54 16.5h-123v-141q0 -24 -24 -24h-28q-24 0 -24 24zM444 991h123q34 0 54 16t20 46v32q0 29 -20 45t-54 16h-123v-155z" />
<glyph unicode="&#xaf;" horiz-adv-x="820" d="M135 1317v24q0 56 56 56h441q55 0 55 -56v-24q0 -55 -55 -55h-441q-56 0 -56 55z" />
<glyph unicode="&#xb0;" horiz-adv-x="617" d="M90 1103v98q0 98 58.5 152.5t165.5 54.5h81q107 0 165 -54.5t58 -152.5v-98q0 -100 -58.5 -157.5t-164.5 -57.5h-81q-107 0 -165.5 57.5t-58.5 157.5zM232 1103q0 -98 82 -98h80q82 0 82 98v98q0 89 -82 89h-80q-82 0 -82 -89v-98z" />
<glyph unicode="&#xb1;" horiz-adv-x="1003" d="M90 249v29q0 51 51 51h721q50 0 50 -51v-29q0 -28 -12 -40t-38 -12h-721q-51 0 -51 52zM90 841v29q0 52 51 52h294v294q0 50 51 50h29q28 0 40 -12t12 -38v-294h295q50 0 50 -52v-29q0 -28 -12 -40t-38 -12h-295v-294q0 -26 -12 -38t-40 -12h-29q-51 0 -51 50v294h-294 q-51 0 -51 52z" />
<glyph unicode="&#xb2;" horiz-adv-x="722" d="M82 826v115q0 82 36.5 133.5t124.5 93.5l200 94q52 25 52 104v25q0 43 -28.5 67t-79.5 24h-58q-47 0 -77.5 -23.5t-30.5 -67.5v-32q0 -39 -41 -39h-58q-40 0 -40 39v32q0 98 65.5 156.5t181.5 58.5h58q120 0 184 -59t64 -156v-29q0 -76 -37 -127t-118 -89l-192 -90 q-64 -31 -64 -116v-29h377q40 0 40 -39v-47q0 -38 -40 -38h-478q-41 0 -41 39z" />
<glyph unicode="&#xb3;" horiz-adv-x="727" d="M82 992v30q0 38 40 38h59q41 0 41 -38v-30q0 -41 25.5 -64.5t74.5 -23.5h84q50 0 79.5 23.5t29.5 64.5v37q0 57 -24 82t-85 25h-92q-40 0 -40 39v45q0 39 40 39h78q61 0 80.5 23.5t19.5 81.5v28q0 41 -25.5 65.5t-74.5 24.5h-68q-49 0 -74.5 -24.5t-25.5 -65.5v-28 q0 -37 -41 -37h-58q-41 0 -41 37v28q0 100 62.5 157t176.5 57h69q114 0 176.5 -57t62.5 -157v-23q0 -64 -31 -109t-90 -61q64 -15 99.5 -61.5t35.5 -113.5v-32q0 -100 -62 -157.5t-176 -57.5h-85q-114 0 -177 57.5t-63 157.5z" />
<glyph unicode="&#xb4;" horiz-adv-x="806" d="M270 1228q0 15 8 29l121 224q9 17 23 24.5t42 7.5h46q49 0 49 -38q0 -13 -9 -29l-120 -223q-18 -33 -66 -33h-47q-47 0 -47 38z" />
<glyph unicode="&#xb6;" horiz-adv-x="1344" d="M105 794v242q0 182 93 270t279 88h267q26 0 38 -12t12 -38v-1683q0 -27 -12 -39t-38 -12h-35q-28 0 -40 12t-12 39v767h-180q-372 0 -372 366zM276 794q0 -117 48 -168t153 -51h180v673h-180q-106 0 -153.5 -48t-47.5 -164v-242zM975 -339v1682q0 51 52 51h35 q52 0 52 -51v-1682q0 -51 -52 -51h-35q-52 0 -52 51z" />
<glyph unicode="&#xb7;" horiz-adv-x="507" d="M143 529v88q0 64 64 64h93q65 0 65 -64v-88q0 -64 -65 -64h-93q-64 0 -64 64z" />
<glyph unicode="&#xb8;" horiz-adv-x="792" d="M228 -340q0 49 54 49h140q23 0 23 22v52q0 22 -23 22h-85q-54 0 -54 48v18q0 49 54 49h86q62 0 100.5 -35t38.5 -102v-52q0 -67 -38.5 -102t-100.5 -35h-141q-54 0 -54 48v18z" />
<glyph unicode="&#xb9;" horiz-adv-x="651" d="M68 825v47q0 39 40 39h144v562h-144q-40 0 -40 38v47q0 39 40 39h256q36 0 36 -35v-651h143q41 0 41 -39v-47q0 -38 -41 -38h-435q-40 0 -40 38z" />
<glyph unicode="&#xba;" horiz-adv-x="791" d="M119 884v313q0 94 64 150.5t168 56.5h89q104 0 168 -57t64 -150v-313q0 -93 -64 -150t-168 -57h-89q-104 0 -168 56.5t-64 150.5zM250 881q0 -43 28.5 -70t73.5 -27h87q44 0 73 27t29 70v318q0 43 -29 70.5t-73 27.5h-87q-44 0 -73 -27.5t-29 -70.5v-318z" />
<glyph unicode="&#xbb;" horiz-adv-x="1014" d="M102 169q0 12 7 24l226 360l-226 361q-7 12 -7 24q0 20 13.5 34t35.5 14h55q46 0 76 -47l214 -339q13 -22 13 -47q0 -24 -12 -46l-215 -340q-29 -47 -76 -47h-55q-22 0 -35.5 14.5t-13.5 34.5zM544 169q0 13 6 24l227 360l-227 361q-6 10 -6 24q0 20 13 34t35 14h55 q47 0 77 -47l213 -339q14 -24 14 -47t-13 -46l-214 -340q-29 -47 -77 -47h-55q-22 0 -35 14t-13 35z" />
<glyph unicode="&#xbc;" horiz-adv-x="1717" d="M68 623v47q0 38 40 38h144v563h-144q-40 0 -40 38v47q0 38 40 38h256q36 0 36 -34v-652h143q41 0 41 -38v-47q0 -38 -41 -38h-435q-40 0 -40 38zM445 24q0 10 5 23l578 1325q16 36 57 36h48q17 0 29 -11t12 -27q0 -12 -7 -27l-576 -1321q-16 -36 -53 -36h-52 q-17 0 -29 11t-12 27zM1013 294q0 10 2 18l101 466q6 32 42 32h64q19 0 30.5 -9.5t11.5 -23.5q0 -9 -3 -19l-87 -394h230v406q0 19 11 29.5t31 10.5h63q20 0 31 -10.5t11 -29.5v-406h69q40 0 40 -38v-44q0 -39 -40 -39h-69v-205q0 -38 -41 -38h-66q-40 0 -40 38v205h-331 q-26 0 -43 15t-17 36z" />
<glyph unicode="&#xbd;" horiz-adv-x="1690" d="M68 623v47q0 38 40 38h144v563h-144q-40 0 -40 38v47q0 38 40 38h256q36 0 36 -34v-652h143q41 0 41 -38v-47q0 -38 -41 -38h-435q-40 0 -40 38zM445 24q0 10 5 23l578 1325q16 36 57 36h48q17 0 29 -11t12 -27q0 -12 -7 -27l-576 -1321q-16 -36 -53 -36h-52 q-17 0 -29 11t-12 27zM1050 39v115q0 82 36.5 133.5t124.5 93.5l200 94q52 25 52 104v25q0 43 -29 67t-80 24h-57q-47 0 -77.5 -23.5t-30.5 -67.5v-32q0 -39 -41 -39h-58q-40 0 -40 39v32q0 98 65.5 156.5t181.5 58.5h58q120 0 184 -59t64 -156v-29q0 -76 -37 -127t-118 -89 l-192 -90q-64 -31 -64 -115v-30h376q41 0 41 -39v-47q0 -38 -41 -38h-477q-41 0 -41 39z" />
<glyph unicode="&#xbe;" horiz-adv-x="1792" d="M82 789v31q0 38 40 38h59q41 0 41 -38v-31q0 -41 25.5 -64.5t74.5 -23.5h84q50 0 79.5 23.5t29.5 64.5v38q0 57 -24 82t-85 25h-92q-40 0 -40 39v45q0 38 40 38h78q61 0 80.5 23.5t19.5 81.5v29q0 41 -25.5 65.5t-74.5 24.5h-68q-49 0 -74.5 -24.5t-25.5 -65.5v-28 q0 -37 -41 -37h-58q-41 0 -41 37v28q0 100 62.5 157t176.5 57h69q114 0 176.5 -57t62.5 -157v-23q0 -64 -31 -109t-90 -61q64 -15 99.5 -61.5t35.5 -113.5v-33q0 -100 -62 -157t-176 -57h-85q-114 0 -177 57t-63 157zM521 24q0 12 4 23l578 1325q16 36 57 36h48q17 0 29 -11 t12 -27q0 -12 -7 -27l-576 -1321q-16 -36 -52 -36h-53q-17 0 -28.5 11t-11.5 27zM1088 294q0 6 3 18l100 466q6 32 42 32h64q19 0 30.5 -9.5t11.5 -23.5q0 -9 -3 -19l-87 -394h230v406q0 19 11 29.5t31 10.5h63q20 0 31 -10.5t11 -29.5v-406h69q40 0 40 -38v-44 q0 -39 -40 -39h-69v-205q0 -38 -41 -38h-66q-40 0 -40 38v205h-331q-26 0 -43 15t-17 36z" />
<glyph unicode="&#xbf;" horiz-adv-x="979" d="M129 -2q0 113 34 185.5t111 117.5l86 51q58 33 73 69t15 117v92q0 26 12 38t38 12h58q52 0 52 -50v-121q0 -105 -27.5 -164t-112.5 -109l-88 -52q-48 -28 -67.5 -71.5t-19.5 -114.5v-52q0 -97 51.5 -148t150.5 -51h63q101 0 152 51t51 148v69q0 51 51 51h62q51 0 51 -51 v-69q0 -165 -94 -253.5t-273 -88.5h-63q-178 0 -272 88.5t-94 253.5v52zM417 886v71q0 64 64 64h93q64 0 64 -64v-71q0 -64 -64 -64h-93q-64 0 -64 64z" />
<glyph unicode="&#xc0;" horiz-adv-x="1218" d="M75 42q0 -19 12.5 -30.5t34.5 -11.5h67q44 0 58 47l109 339h506l110 -338q15 -48 58 -48h67q22 0 34 12t12 30q0 10 -3 18l-401 1287q-14 47 -60 47h-139q-46 0 -60 -47l-402 -1290q-3 -7 -3 -15zM393 527l115 360q4 17 49.5 165.5t51.5 179.5q6 -31 51.5 -179.5 t49.5 -165.5l115 -360h-432zM397 1753q0 37 48 37h47q28 0 42 -7.5t23 -24.5l107 -199q8 -14 8 -29q0 -38 -47 -38h-47q-48 0 -66 33l-106 198q-9 16 -9 30z" />
<glyph unicode="&#xc1;" horiz-adv-x="1218" d="M75 42q0 -19 12.5 -30.5t34.5 -11.5h67q44 0 58 47l109 339h506l110 -338q15 -48 58 -48h67q22 0 34 12t12 30q0 10 -3 18l-401 1287q-14 47 -60 47h-139q-46 0 -60 -47l-402 -1290q-3 -7 -3 -15zM393 527l115 360q4 17 49.5 165.5t51.5 179.5q6 -31 51.5 -179.5 t49.5 -165.5l115 -360h-432zM548 1530q0 15 8 29l107 199q17 32 66 32h46q48 0 48 -37q0 -14 -9 -30l-106 -198q-18 -33 -65 -33h-47q-48 0 -48 38z" />
<glyph unicode="&#xc2;" horiz-adv-x="1218" d="M75 42q0 -19 12.5 -30.5t34.5 -11.5h67q44 0 58 47l109 339h506l110 -338q15 -48 58 -48h67q22 0 34 12t12 30q0 10 -3 18l-401 1287q-14 47 -60 47h-139q-46 0 -60 -47l-402 -1290q-3 -7 -3 -15zM313 1545v43q0 32 30 50l227 135q18 10 39 10q24 0 39 -9l228 -135 q29 -16 29 -51v-43q0 -44 -38 -44q-13 0 -25 6l-233 138l-233 -138q-12 -6 -24 -6q-18 0 -28.5 12t-10.5 32zM393 527l115 360q4 17 49.5 165.5t51.5 179.5q6 -31 51.5 -179.5t49.5 -165.5l115 -360h-432z" />
<glyph unicode="&#xc3;" horiz-adv-x="1218" d="M75 42q0 -19 12.5 -30.5t34.5 -11.5h67q44 0 58 47l109 339h506l110 -338q15 -48 58 -48h67q22 0 34 12t12 30q0 10 -3 18l-401 1287q-14 47 -60 47h-139q-46 0 -60 -47l-402 -1290q-3 -7 -3 -15zM268 1567v19q0 85 52 135.5t143 50.5q57 0 118 -38l120 -75 q23 -17 52 -17q37 0 53.5 16t16.5 51v17q0 25 11.5 36t36.5 11h32q26 0 37.5 -11t11.5 -36v-20q0 -85 -52.5 -134.5t-144.5 -49.5q-66 0 -117 34l-119 79q-23 16 -51 16q-37 0 -54 -16t-17 -52v-16q0 -48 -49 -48h-31q-49 0 -49 48zM393 527l115 360q4 17 49.5 165.5 t51.5 179.5q6 -31 51.5 -179.5t49.5 -165.5l115 -360h-432z" />
<glyph unicode="&#xc4;" horiz-adv-x="1218" d="M75 42q0 -19 12.5 -30.5t34.5 -11.5h67q44 0 58 47l109 339h506l110 -338q15 -48 58 -48h67q22 0 34 12t12 30q0 10 -3 18l-401 1287q-14 47 -60 47h-139q-46 0 -60 -47l-402 -1290q-3 -7 -3 -15zM332 1618v45q0 81 82 81h49q80 0 80 -81v-45q0 -38 -20.5 -58.5 t-59.5 -20.5h-49q-82 0 -82 79zM393 527l115 360q4 17 49.5 165.5t51.5 179.5q6 -31 51.5 -179.5t49.5 -165.5l115 -360h-432zM674 1618v45q0 81 82 81h49q80 0 80 -81v-45q0 -38 -20.5 -58.5t-59.5 -20.5h-49q-82 0 -82 79z" />
<glyph unicode="&#xc5;" horiz-adv-x="1218" d="M75 42q0 -19 12.5 -30.5t34.5 -11.5h67q44 0 58 47l109 339h506l110 -338q15 -48 58 -48h67q22 0 34 12t12 30q0 10 -3 18l-401 1287q-14 47 -60 47h-139q-46 0 -60 -47l-402 -1290q-3 -7 -3 -15zM393 527l115 360q4 17 49.5 165.5t51.5 179.5q6 -31 51.5 -179.5 t49.5 -165.5l115 -360h-432zM426 1630v37q0 74 40.5 113t120.5 39h44q80 0 121 -39.5t41 -112.5v-37q0 -73 -41 -112.5t-121 -39.5h-44q-80 0 -120.5 39.5t-40.5 112.5zM532 1630q0 -56 55 -56h44q56 0 56 56v37q0 58 -56 58h-44q-55 0 -55 -58v-37z" />
<glyph unicode="&#xc6;" horiz-adv-x="1666" d="M0 38q0 9 4 17l548 1292q19 47 62 47h855q52 0 52 -51v-44q0 -51 -52 -51h-544v-467h544q52 0 52 -51v-45q0 -52 -52 -52h-544v-486h544q52 0 52 -51v-45q0 -27 -12.5 -39t-39.5 -12h-665q-27 0 -39 12t-12 39v303h-437l-142 -316q-17 -38 -53 -38h-80q-18 0 -29.5 11 t-11.5 27zM364 495h389v753h-59z" />
<glyph unicode="&#xc7;" horiz-adv-x="1244" d="M152 360v674q0 183 103.5 278.5t294.5 95.5h145q191 0 294 -95.5t103 -278.5v-63q0 -27 -12 -39t-40 -12h-67q-28 0 -40 12t-12 39v63q0 223 -226 223h-145q-226 0 -226 -223v-674q0 -223 226 -223h145q226 0 226 223v63q0 27 12 39t40 12h67q28 0 40 -12t12 -39v-63 q0 -183 -103 -278.5t-294 -95.5h-145q-191 0 -294.5 95.5t-103.5 278.5zM455 -340q0 49 54 49h140q23 0 23 22v52q0 22 -23 22h-85q-54 0 -54 48v18q0 49 54 49h86q62 0 100.5 -35t38.5 -102v-52q0 -67 -38.5 -102t-100.5 -35h-141q-54 0 -54 48v18z" />
<glyph unicode="&#xc8;" horiz-adv-x="1093" d="M176 51v1293q0 50 51 50h666q52 0 52 -51v-44q0 -51 -52 -51h-545v-467h545q52 0 52 -51v-45q0 -52 -52 -52h-545v-486h545q52 0 52 -51v-45q0 -27 -12.5 -39t-39.5 -12h-666q-27 0 -39 12t-12 39zM347 1753q0 37 49 37h46q49 0 66 -32l106 -199q9 -16 9 -29 q0 -38 -48 -38h-47q-47 0 -65 33l-106 198q-10 18 -10 30z" />
<glyph unicode="&#xc9;" horiz-adv-x="1093" d="M176 51v1293q0 50 51 50h666q52 0 52 -51v-44q0 -51 -52 -51h-545v-467h545q52 0 52 -51v-45q0 -52 -52 -52h-545v-486h545q52 0 52 -51v-45q0 -27 -12.5 -39t-39.5 -12h-666q-27 0 -39 12t-12 39zM496 1530q0 15 8 29l107 199q17 32 66 32h46q48 0 48 -37q0 -14 -9 -30 l-106 -198q-18 -33 -65 -33h-47q-48 0 -48 38z" />
<glyph unicode="&#xca;" horiz-adv-x="1093" d="M176 51v1293q0 50 51 50h666q52 0 52 -51v-44q0 -51 -52 -51h-545v-467h545q52 0 52 -51v-45q0 -52 -52 -52h-545v-486h545q52 0 52 -51v-45q0 -27 -12.5 -39t-39.5 -12h-666q-27 0 -39 12t-12 39zM265 1545v43q0 33 29 50l227 135q18 10 40 10q23 0 38 -9l228 -135 q30 -17 30 -51v-43q0 -20 -10.5 -32t-28.5 -12q-12 0 -24 6l-233 138l-233 -138q-12 -6 -25 -6q-38 0 -38 44z" />
<glyph unicode="&#xcb;" horiz-adv-x="1093" d="M176 51v1293q0 50 51 50h666q52 0 52 -51v-44q0 -51 -52 -51h-545v-467h545q52 0 52 -51v-45q0 -52 -52 -52h-545v-486h545q52 0 52 -51v-45q0 -27 -12.5 -39t-39.5 -12h-666q-27 0 -39 12t-12 39zM283 1618v45q0 81 82 81h49q80 0 80 -81v-45q0 -38 -20.5 -58.5 t-59.5 -20.5h-49q-82 0 -82 79zM625 1618v45q0 81 82 81h49q80 0 80 -81v-45q0 -38 -20.5 -58.5t-59.5 -20.5h-49q-82 0 -82 79z" />
<glyph unicode="&#xcc;" horiz-adv-x="545" d="M58 1753q0 37 49 37h46q28 0 42 -7.5t23 -24.5l107 -199q9 -16 9 -29q0 -38 -48 -38h-47q-48 0 -66 33l-106 198q-9 16 -9 30zM187 51q0 -27 12 -39t38 -12h71q26 0 38 12t12 39v1292q0 27 -12 39t-38 12h-71q-50 0 -50 -51v-1292z" />
<glyph unicode="&#xcd;" horiz-adv-x="545" d="M187 51q0 -27 12 -39t38 -12h71q26 0 38 12t12 39v1292q0 27 -12 39t-38 12h-71q-50 0 -50 -51v-1292zM209 1530q0 13 9 29l106 199q17 32 66 32h46q49 0 49 -37q0 -12 -10 -30l-106 -198q-18 -33 -65 -33h-47q-48 0 -48 38z" />
<glyph unicode="&#xce;" horiz-adv-x="564" d="M-14 1545v43q0 32 30 50l227 135q18 10 39 10q24 0 39 -9l228 -135q30 -17 30 -51v-43q0 -20 -10.5 -32t-28.5 -12q-13 0 -25 6l-233 138l-233 -138q-12 -6 -24 -6q-18 0 -28.5 12t-10.5 32zM196 51q0 -51 51 -51h70q27 0 39 12t12 39v1292q0 51 -51 51h-70 q-51 0 -51 -51v-1292z" />
<glyph unicode="&#xcf;" horiz-adv-x="564" d="M5 1618v45q0 81 82 81h49q80 0 80 -81v-45q0 -38 -20.5 -58.5t-59.5 -20.5h-49q-82 0 -82 79zM196 51q0 -51 51 -51h70q27 0 39 12t12 39v1292q0 51 -51 51h-70q-51 0 -51 -51v-1292zM347 1618v45q0 81 82 81h49q80 0 80 -81v-45q0 -38 -20.5 -58.5t-59.5 -20.5h-49 q-82 0 -82 79z" />
<glyph unicode="&#xd0;" horiz-adv-x="1262" d="M36 687v43q0 26 10.5 36.5t37.5 10.5h123v566q0 27 12 39t39 12h455q192 0 295 -93.5t103 -275.5v-651q0 -183 -103.5 -278.5t-294.5 -95.5h-455q-27 0 -39 11.5t-12 39.5v588h-123q-27 0 -37.5 11t-10.5 37zM378 147h335q111 0 169 58t58 169v651q0 111 -58 167t-169 56 h-335v-471h229q27 0 37.5 -10.5t10.5 -36.5v-43q0 -26 -10.5 -37t-37.5 -11h-229v-492z" />
<glyph unicode="&#xd1;" horiz-adv-x="1281" d="M176 51v1288q0 55 56 55h85q40 0 58 -35l397 -725q109 -200 176 -342q-6 236 -6 330v721q0 27 12 39t39 12h63q26 0 38 -12t12 -39v-1288q0 -55 -56 -55h-85q-38 0 -56 34l-406 742q-111 204 -169 327q6 -179 6 -326v-726q0 -27 -12 -39t-39 -12h-62q-27 0 -39 12t-12 39 zM299 1567v19q0 85 52 135.5t143 50.5q57 0 118 -38l119 -75q23 -17 52 -17q37 0 54 16t17 51v17q0 25 11.5 36t36.5 11h32q26 0 37.5 -11t11.5 -36v-20q0 -85 -52.5 -134.5t-144.5 -49.5q-66 0 -117 34l-119 79q-23 16 -52 16q-37 0 -53.5 -16t-16.5 -52v-16q0 -48 -49 -48 h-32q-48 0 -48 48z" />
<glyph unicode="&#xd2;" horiz-adv-x="1252" d="M152 360v674q0 183 103.5 278.5t294.5 95.5h153q191 0 294.5 -95.5t103.5 -278.5v-674q0 -183 -103.5 -278.5t-294.5 -95.5h-153q-191 0 -294.5 95.5t-103.5 278.5zM324 360q0 -223 226 -223h153q226 0 226 223v674q0 223 -226 223h-153q-226 0 -226 -223v-674zM413 1753 q0 37 49 37h46q28 0 42 -7.5t23 -24.5l107 -199q9 -16 9 -29q0 -38 -48 -38h-47q-48 0 -66 33l-106 198q-9 16 -9 30z" />
<glyph unicode="&#xd3;" horiz-adv-x="1252" d="M152 360v674q0 183 103.5 278.5t294.5 95.5h153q191 0 294.5 -95.5t103.5 -278.5v-674q0 -183 -103.5 -278.5t-294.5 -95.5h-153q-191 0 -294.5 95.5t-103.5 278.5zM324 360q0 -223 226 -223h153q226 0 226 223v674q0 223 -226 223h-153q-226 0 -226 -223v-674zM564 1530 q0 13 9 29l106 199q17 32 66 32h46q49 0 49 -37q0 -12 -10 -30l-106 -198q-18 -33 -65 -33h-47q-48 0 -48 38z" />
<glyph unicode="&#xd4;" horiz-adv-x="1252" d="M152 360v674q0 183 103.5 278.5t294.5 95.5h153q191 0 294.5 -95.5t103.5 -278.5v-674q0 -183 -103.5 -278.5t-294.5 -95.5h-153q-191 0 -294.5 95.5t-103.5 278.5zM324 360q0 -223 226 -223h153q226 0 226 223v674q0 223 -226 223h-153q-226 0 -226 -223v-674zM330 1545 v43q0 32 30 50l227 135q17 10 39 10q24 0 39 -9l228 -135q29 -16 29 -51v-43q0 -44 -38 -44q-13 0 -25 6l-233 138l-233 -138q-12 -6 -24 -6q-18 0 -28.5 12t-10.5 32z" />
<glyph unicode="&#xd5;" horiz-adv-x="1252" d="M152 360v674q0 183 103.5 278.5t294.5 95.5h153q191 0 294.5 -95.5t103.5 -278.5v-674q0 -183 -103.5 -278.5t-294.5 -95.5h-153q-191 0 -294.5 95.5t-103.5 278.5zM284 1567v19q0 85 52.5 135.5t143.5 50.5q56 0 117 -38l120 -75q23 -17 52 -17q37 0 54 16t17 51v17 q0 25 11 36t36 11h32q26 0 38 -11t12 -36v-20q0 -85 -52.5 -134.5t-145.5 -49.5q-65 0 -116 34l-120 79q-23 16 -51 16q-37 0 -54 -16t-17 -52v-16q0 -48 -49 -48h-31q-49 0 -49 48zM324 360q0 -223 226 -223h153q226 0 226 223v674q0 223 -226 223h-153q-226 0 -226 -223 v-674z" />
<glyph unicode="&#xd6;" horiz-adv-x="1252" d="M152 360v674q0 183 103.5 278.5t294.5 95.5h153q191 0 294.5 -95.5t103.5 -278.5v-674q0 -183 -103.5 -278.5t-294.5 -95.5h-153q-191 0 -294.5 95.5t-103.5 278.5zM324 360q0 -223 226 -223h153q226 0 226 223v674q0 223 -226 223h-153q-226 0 -226 -223v-674zM349 1618 v45q0 81 82 81h49q80 0 80 -81v-45q0 -38 -20.5 -58.5t-59.5 -20.5h-49q-82 0 -82 79zM691 1618v45q0 81 82 81h49q80 0 80 -81v-45q0 -38 -20.5 -58.5t-59.5 -20.5h-49q-82 0 -82 79z" />
<glyph unicode="&#xd7;" horiz-adv-x="927" d="M143 454q0 17 18 35l208 207l-207 208q-19 19 -19 36t19 36l21 22q18 18 36 18q19 0 37 -18l207 -207l208 208q18 18 36 18q17 0 36 -19l22 -22q19 -19 19 -36q0 -16 -19 -35l-208 -209l208 -208q19 -21 19 -36q0 -17 -19 -36l-22 -22q-19 -19 -36 -19q-18 0 -36 19 l-208 208l-207 -208q-19 -19 -35 -19q-19 0 -38 21l-21 21q-19 19 -19 37z" />
<glyph unicode="&#xd8;" horiz-adv-x="1262" d="M157 343v708q0 171 104 264t294 93h153q41 0 92 -7l40 114q14 39 47 39h53q18 0 29 -12t11 -32q0 -9 -3 -18l-45 -130q174 -86 174 -311v-708q0 -171 -104 -264t-294 -93h-153q-41 0 -94 7l-39 -113q-14 -40 -48 -40h-53q-18 0 -28.5 12.5t-10.5 32.5q0 12 2 18l45 130 q-172 87 -172 310zM323 343q0 -101 60 -154l368 1065q-21 3 -43 3h-153q-113 0 -172.5 -53t-59.5 -153v-708zM511 139q28 -2 44 -2h153q113 0 172.5 53.5t59.5 152.5v708q0 102 -62 155z" />
<glyph unicode="&#xd9;" horiz-adv-x="1255" d="M164 343v1000q0 51 52 51h69q27 0 39 -12t12 -39v-1000q0 -100 57.5 -153t167.5 -53h133q110 0 167.5 53.5t57.5 152.5v1000q0 51 52 51h69q27 0 39 -12t12 -39v-1000q0 -171 -103.5 -264t-293.5 -93h-133q-189 0 -293 93t-104 264zM415 1753q0 37 48 37h46q49 0 66 -32 l107 -199q8 -14 8 -29q0 -38 -47 -38h-47q-48 0 -66 33l-106 198q-9 16 -9 30z" />
<glyph unicode="&#xda;" horiz-adv-x="1255" d="M164 343v1000q0 51 52 51h69q27 0 39 -12t12 -39v-1000q0 -100 57.5 -153t167.5 -53h133q110 0 167.5 53.5t57.5 152.5v1000q0 51 52 51h69q27 0 39 -12t12 -39v-1000q0 -171 -103.5 -264t-293.5 -93h-133q-189 0 -293 93t-104 264zM561 1530q0 13 9 29l107 199 q9 17 23 24.5t42 7.5h46q49 0 49 -37q0 -14 -9 -30l-106 -198q-18 -33 -66 -33h-47q-48 0 -48 38z" />
<glyph unicode="&#xdb;" horiz-adv-x="1255" d="M164 343v1000q0 51 52 51h69q27 0 39 -12t12 -39v-1000q0 -100 57.5 -153t167.5 -53h133q110 0 167.5 53.5t57.5 152.5v1000q0 51 52 51h69q27 0 39 -12t12 -39v-1000q0 -171 -103.5 -264t-293.5 -93h-133q-189 0 -293 93t-104 264zM331 1545v43q0 32 30 50l227 135 q18 10 39 10q24 0 39 -9l227 -135q30 -17 30 -51v-43q0 -44 -38 -44q-13 0 -25 6l-233 138l-233 -138q-12 -6 -25 -6q-38 0 -38 44z" />
<glyph unicode="&#xdc;" horiz-adv-x="1255" d="M164 343v1000q0 51 52 51h69q27 0 39 -12t12 -39v-1000q0 -100 57.5 -153t167.5 -53h133q110 0 167.5 53.5t57.5 152.5v1000q0 51 52 51h69q27 0 39 -12t12 -39v-1000q0 -171 -103.5 -264t-293.5 -93h-133q-189 0 -293 93t-104 264zM351 1618v45q0 81 82 81h48 q80 0 80 -81v-45q0 -38 -20.5 -58.5t-59.5 -20.5h-48q-82 0 -82 79zM693 1618v45q0 81 82 81h48q39 0 60 -21t21 -60v-45q0 -38 -21 -58.5t-60 -20.5h-48q-82 0 -82 79z" />
<glyph unicode="&#xdd;" horiz-adv-x="1088" d="M54 1353q0 16 12.5 28.5t34.5 12.5h65q45 0 60 -34l190 -409q112 -242 128 -279q20 46 42 94.5t47.5 103t38.5 81.5l186 401q21 42 64 42h67q21 0 33 -12.5t12 -28.5q0 -11 -6 -25l-397 -817v-460q0 -27 -12.5 -39t-39.5 -12h-70q-27 0 -38.5 12t-11.5 39v458l-400 822 q-5 11 -5 22zM480 1530q0 15 8 29l107 199q9 17 23 24.5t42 7.5h47q48 0 48 -37q0 -14 -9 -30l-106 -198q-18 -33 -66 -33h-47q-47 0 -47 38z" />
<glyph unicode="&#xde;" horiz-adv-x="1098" d="M176 52v1291q0 27 11.5 39t39.5 12h69q51 0 51 -51v-206h269q190 0 285.5 -89t95.5 -260v-152q0 -171 -95.5 -259.5t-285.5 -88.5h-269v-237q0 -27 -12 -39t-39 -12h-69q-28 0 -39.5 12t-11.5 40zM347 439h269q110 0 159.5 47t49.5 150v152q0 103 -49.5 150.5 t-159.5 47.5h-269v-547z" />
<glyph unicode="&#xdf;" horiz-adv-x="1073" d="M149 49v1110q0 150 94 237t266 87h70q172 0 266 -87t94 -237v-95q0 -105 -47.5 -178t-137.5 -105q90 -29 137.5 -103t47.5 -180v-177q0 -150 -94 -235.5t-266 -85.5h-42q-27 0 -39 12t-12 39v52q0 51 51 51h42q192 0 192 167v195q0 102 -42.5 146.5t-149.5 44.5h-42 q-51 0 -51 50v49q0 51 51 51h42q102 0 147 45t45 145v112q0 177 -192 177h-70q-193 0 -193 -177v-1110q0 -49 -50 -49h-66q-51 0 -51 49z" />
<glyph unicode="&#xe0;" horiz-adv-x="1028" d="M103 269v51q0 274 354 274h261v160q0 90 -44.5 132t-136.5 42h-69q-172 0 -172 -140q0 -25 -11 -37t-38 -12h-68q-49 0 -49 49q0 131 87.5 205.5t250.5 74.5h69q170 0 258.5 -78.5t88.5 -235.5v-705q0 -49 -50 -49h-66q-26 0 -37.5 11.5t-11.5 37.5v35l-158 -64 q-83 -34 -174 -34q-123 0 -203.5 76.5t-80.5 206.5zM271 269q0 -71 40 -106.5t113 -35.5q49 0 101 16l193 64v257h-258q-99 0 -144 -34t-45 -110v-51zM293 1475q0 38 48 38h46q49 0 66 -32l120 -224q9 -16 9 -29q0 -38 -48 -38h-47q-47 0 -65 33l-120 223q-9 16 -9 29z" />
<glyph unicode="&#xe1;" horiz-adv-x="1028" d="M103 269v51q0 274 354 274h261v160q0 90 -44.5 132t-136.5 42h-69q-172 0 -172 -140q0 -25 -11 -37t-38 -12h-68q-49 0 -49 49q0 131 87.5 205.5t250.5 74.5h69q170 0 258.5 -78.5t88.5 -235.5v-705q0 -49 -50 -49h-66q-26 0 -37.5 11.5t-11.5 37.5v35l-158 -64 q-83 -34 -174 -34q-123 0 -203.5 76.5t-80.5 206.5zM271 269q0 -71 40 -106.5t113 -35.5q49 0 101 16l193 64v257h-258q-99 0 -144 -34t-45 -110v-51zM448 1228q0 13 9 29l120 224q17 32 66 32h46q48 0 48 -38q0 -13 -9 -29l-120 -223q-18 -33 -65 -33h-47q-48 0 -48 38z " />
<glyph unicode="&#xe2;" horiz-adv-x="1028" d="M103 269v51q0 274 354 274h261v160q0 90 -44.5 132t-136.5 42h-69q-172 0 -172 -140q0 -25 -11 -37t-38 -12h-68q-49 0 -49 49q0 131 87.5 205.5t250.5 74.5h69q170 0 258.5 -78.5t88.5 -235.5v-705q0 -49 -50 -49h-66q-26 0 -37.5 11.5t-11.5 37.5v35l-158 -64 q-83 -34 -174 -34q-123 0 -203.5 76.5t-80.5 206.5zM216 1238v43q0 32 30 50l227 135q17 10 39 10q23 0 38 -9l228 -135q30 -17 30 -51v-43q0 -44 -38 -44q-13 0 -25 6l-233 138l-233 -138q-12 -6 -25 -6q-38 0 -38 44zM271 269q0 -71 40 -106.5t113 -35.5q49 0 101 16 l193 64v257h-258q-99 0 -144 -34t-45 -110v-51z" />
<glyph unicode="&#xe3;" horiz-adv-x="1028" d="M103 269v51q0 274 354 274h261v160q0 90 -44.5 132t-136.5 42h-69q-172 0 -172 -140q0 -25 -11 -37t-38 -12h-68q-49 0 -49 49q0 131 87.5 205.5t250.5 74.5h69q170 0 258.5 -78.5t88.5 -235.5v-705q0 -49 -50 -49h-66q-26 0 -37.5 11.5t-11.5 37.5v35l-158 -64 q-83 -34 -174 -34q-123 0 -203.5 76.5t-80.5 206.5zM171 1260v19q0 85 52 135t143 50q59 0 118 -37l119 -75q23 -17 52 -17q37 0 54 16t17 51v17q0 25 11.5 36t36.5 11h32q26 0 37.5 -11t11.5 -36v-20q0 -85 -52.5 -134.5t-144.5 -49.5q-66 0 -117 34l-119 79q-23 16 -52 16 q-37 0 -53.5 -16t-16.5 -52v-16q0 -48 -49 -48h-32q-48 0 -48 48zM271 269q0 -71 40 -106.5t113 -35.5q49 0 101 16l193 64v257h-258q-99 0 -144 -34t-45 -110v-51z" />
<glyph unicode="&#xe4;" horiz-adv-x="1028" d="M103 269v51q0 274 354 274h261v160q0 90 -44.5 132t-136.5 42h-69q-172 0 -172 -140q0 -25 -11 -37t-38 -12h-68q-49 0 -49 49q0 131 87.5 205.5t250.5 74.5h69q170 0 258.5 -78.5t88.5 -235.5v-705q0 -49 -50 -49h-66q-26 0 -37.5 11.5t-11.5 37.5v35l-158 -64 q-83 -34 -174 -34q-123 0 -203.5 76.5t-80.5 206.5zM242 1311v45q0 81 82 81h49q80 0 80 -81v-45q0 -38 -20.5 -59t-59.5 -21h-49q-40 0 -61 21t-21 59zM271 269q0 -71 40 -106.5t113 -35.5q49 0 101 16l193 64v257h-258q-99 0 -144 -34t-45 -110v-51zM585 1311v45 q0 81 81 81h49q80 0 80 -81v-45q0 -38 -20.5 -59t-59.5 -21h-49q-81 0 -81 80z" />
<glyph unicode="&#xe5;" horiz-adv-x="1028" d="M103 269v51q0 274 354 274h261v160q0 90 -44.5 132t-136.5 42h-69q-172 0 -172 -140q0 -25 -11 -37t-38 -12h-68q-49 0 -49 49q0 131 87.5 205.5t250.5 74.5h69q170 0 258.5 -78.5t88.5 -235.5v-705q0 -49 -50 -49h-66q-26 0 -37.5 11.5t-11.5 37.5v35l-158 -64 q-83 -34 -174 -34q-123 0 -203.5 76.5t-80.5 206.5zM271 269q0 -71 40 -106.5t113 -35.5q49 0 101 16l193 64v257h-258q-99 0 -144 -34t-45 -110v-51zM329 1323v36q0 74 40.5 113.5t120.5 39.5h44q80 0 120.5 -39.5t40.5 -112.5v-37q0 -73 -40.5 -112.5t-120.5 -39.5h-44 q-80 0 -120.5 39.5t-40.5 112.5zM434 1323q0 -57 56 -57h44q56 0 56 57v36q0 58 -56 58h-44q-56 0 -56 -58v-36z" />
<glyph unicode="&#xe6;" horiz-adv-x="1622" d="M103 269v60q0 274 354 274h256v151q0 90 -43.5 132t-132.5 42h-69q-172 0 -172 -140q0 -25 -11 -37t-38 -12h-68q-49 0 -49 49q0 131 87.5 205.5t250.5 74.5h65q171 0 264 -93q90 93 263 93h83q163 0 255 -82t92 -232v-193q0 -88 -92 -88h-519v-173q0 -86 47.5 -129 t133.5 -43h83q84 0 132.5 35t48.5 98v2q0 45 49 45h67q50 0 50 -45v-3q0 -123 -93.5 -198.5t-253.5 -75.5h-83q-198 0 -289 117l-210 -83q-83 -34 -174 -34q-123 0 -203.5 76.5t-80.5 206.5zM271 269q0 -71 40 -106.5t113 -35.5q50 0 103 17l195 67q-9 41 -9 89v173h-253 q-99 0 -144 -34t-45 -110v-60zM879 603h445v151q0 86 -48 129.5t-133 43.5h-83q-85 0 -133 -44t-48 -129v-151z" />
<glyph unicode="&#xe7;" horiz-adv-x="1042" d="M132 300v454q0 150 92 232t256 82h83q163 0 255.5 -82t92.5 -232v-10q0 -27 -12 -38.5t-39 -11.5h-66q-26 0 -38 12t-12 38v10q0 85 -48 127.5t-133 42.5h-83q-85 0 -133 -43t-48 -127v-454q0 -85 47.5 -127t133.5 -42h83q85 0 133 42t48 127v11q0 50 49 50h67 q27 0 39 -12t12 -38v-11q0 -150 -92.5 -232t-255.5 -82h-83q-164 0 -256 82t-92 232zM354 -340q0 49 54 49h141q22 0 22 22v52q0 22 -22 22h-86q-53 0 -53 48v18q0 49 53 49h87q62 0 100.5 -35t38.5 -102v-52q0 -67 -38.5 -102t-100.5 -35h-142q-54 0 -54 48v18z" />
<glyph unicode="&#xe8;" horiz-adv-x="1041" d="M132 300v454q0 150 92 232t256 82h82q163 0 255.5 -82t92.5 -232v-169q0 -42 -23.5 -65t-69.5 -23h-518v-197q0 -86 47.5 -129t133.5 -43h82q84 0 132.5 35t48.5 98v2q0 45 50 45h67q50 0 50 -45v-3q0 -123 -94 -198.5t-254 -75.5h-82q-164 0 -256 82t-92 232zM298 1475 q0 38 48 38h47q28 0 42 -7.5t23 -24.5l121 -224q8 -14 8 -29q0 -38 -48 -38h-47q-47 0 -65 33l-120 223q-9 16 -9 29zM299 627h444v127q0 86 -48 129.5t-133 43.5h-82q-85 0 -133 -44t-48 -129v-127z" />
<glyph unicode="&#xe9;" horiz-adv-x="1041" d="M132 300v454q0 150 92 232t256 82h82q163 0 255.5 -82t92.5 -232v-169q0 -42 -23.5 -65t-69.5 -23h-518v-197q0 -86 47.5 -129t133.5 -43h82q84 0 132.5 35t48.5 98v2q0 45 50 45h67q50 0 50 -45v-3q0 -123 -94 -198.5t-254 -75.5h-82q-164 0 -256 82t-92 232zM299 627 h444v127q0 86 -48 129.5t-133 43.5h-82q-85 0 -133 -44t-48 -129v-127zM458 1228q0 13 9 29l120 224q17 32 66 32h46q49 0 49 -38q0 -11 -10 -29l-119 -223q-18 -33 -66 -33h-47q-48 0 -48 38z" />
<glyph unicode="&#xea;" horiz-adv-x="1041" d="M132 300v454q0 150 92 232t256 82h82q163 0 255.5 -82t92.5 -232v-169q0 -42 -23.5 -65t-69.5 -23h-518v-197q0 -86 47.5 -129t133.5 -43h82q84 0 132.5 35t48.5 98v2q0 45 50 45h67q50 0 50 -45v-3q0 -123 -94 -198.5t-254 -75.5h-82q-164 0 -256 82t-92 232zM224 1238 v43q0 33 29 50l227 135q17 10 40 10t38 -9l228 -135q30 -17 30 -51v-43q0 -20 -10.5 -32t-28.5 -12q-12 0 -24 6l-233 138l-233 -138q-12 -6 -25 -6q-38 0 -38 44zM299 627h444v127q0 86 -48 129.5t-133 43.5h-82q-85 0 -133 -44t-48 -129v-127z" />
<glyph unicode="&#xeb;" horiz-adv-x="1041" d="M132 300v454q0 150 92 232t256 82h82q163 0 255.5 -82t92.5 -232v-169q0 -42 -23.5 -65t-69.5 -23h-518v-197q0 -86 47.5 -129t133.5 -43h82q84 0 132.5 35t48.5 98v2q0 45 50 45h67q50 0 50 -45v-3q0 -123 -94 -198.5t-254 -75.5h-82q-164 0 -256 82t-92 232zM241 1311 v45q0 81 82 81h49q80 0 80 -81v-45q0 -38 -20.5 -59t-59.5 -21h-49q-40 0 -61 21t-21 59zM299 627h444v127q0 86 -48 129.5t-133 43.5h-82q-85 0 -133 -44t-48 -129v-127zM584 1311v45q0 81 82 81h48q80 0 80 -81v-45q0 -38 -20.5 -59t-59.5 -21h-48q-40 0 -61 21t-21 59z " />
<glyph unicode="&#xec;" horiz-adv-x="486" d="M19 1475q0 38 48 38h46q49 0 66 -32l121 -224q8 -14 8 -29q0 -38 -48 -38h-47q-47 0 -65 33l-120 223q-9 16 -9 29zM160 49q0 -49 50 -49h67q26 0 38 11.5t12 37.5v957q0 49 -50 49h-67q-50 0 -50 -49v-957z" />
<glyph unicode="&#xed;" horiz-adv-x="486" d="M160 49q0 -49 50 -49h67q26 0 38 11.5t12 37.5v957q0 49 -50 49h-67q-50 0 -50 -49v-957zM178 1228q0 13 9 29l120 224q17 32 66 32h46q49 0 49 -38q0 -11 -10 -29l-119 -223q-18 -33 -66 -33h-47q-48 0 -48 38z" />
<glyph unicode="&#xee;" horiz-adv-x="502" d="M-29 1245v44q0 24 26 41l228 137q16 6 25 6q14 0 26 -6l228 -138q24 -13 24 -40v-44q0 -17 -11 -28t-27 -11q-9 0 -19 5l-221 133l-221 -133q-7 -5 -20 -5q-16 0 -27 11.5t-11 27.5zM167 49q0 -49 50 -49h67q26 0 38 11.5t12 37.5v957q0 49 -50 49h-67q-50 0 -50 -49 v-957z" />
<glyph unicode="&#xef;" horiz-adv-x="501" d="M-5 1313v40q0 75 76 75h34q74 0 74 -75v-40q0 -73 -74 -73h-34q-76 0 -76 73zM168 49q0 -49 50 -49h67q26 0 38 11.5t12 37.5v957q0 49 -50 49h-67q-50 0 -50 -49v-957zM323 1313v40q0 36 19.5 55.5t56.5 19.5h34q75 0 75 -75v-40q0 -73 -75 -73h-34q-76 0 -76 73z" />
<glyph unicode="&#xf0;" d="M132 300v454q0 150 92 232t256 82h70q72 0 116 -22l-61 161h-172q-24 0 -34.5 10t-10.5 33v23q0 23 10.5 33.5t34.5 10.5h130l-41 106q-4 8 -4 20q0 40 49 40h66q43 0 58 -41l49 -125h136q45 0 45 -44v-23q0 -43 -45 -43h-93l114 -296q24 -66 24 -157v-454 q0 -150 -92.5 -232t-255.5 -82h-93q-164 0 -256 82t-92 232zM299 300q0 -85 47.5 -127t133.5 -42h93q85 0 133 42t48 127v454q0 84 -49 127t-132 43h-93q-85 0 -133 -43t-48 -127v-454z" />
<glyph unicode="&#xf1;" horiz-adv-x="1081" d="M149 49v957q0 49 51 49h64q26 0 37.5 -11.5t11.5 -37.5v-49l150 68q95 43 189 43q137 0 211 -77.5t74 -236.5v-705q0 -26 -12 -37.5t-39 -11.5h-67q-26 0 -37 11.5t-11 37.5v705q0 88 -37 124.5t-113 36.5q-57 0 -116 -24l-189 -77v-765q0 -26 -11.5 -37.5t-37.5 -11.5 h-67q-51 0 -51 49zM201 1260v19q0 85 52 135t143 50q59 0 118 -37l119 -75q23 -17 52 -17q37 0 54 16t17 51v17q0 25 11.5 36t36.5 11h31q26 0 38 -11t12 -36v-20q0 -85 -52.5 -134.5t-144.5 -49.5q-66 0 -117 34l-120 79q-23 16 -51 16q-37 0 -54 -16t-17 -52v-16 q0 -48 -48 -48h-32q-48 0 -48 48z" />
<glyph unicode="&#xf2;" d="M132 300v454q0 150 92 232t256 82h93q163 0 255.5 -82t92.5 -232v-454q0 -150 -92.5 -232t-255.5 -82h-93q-164 0 -256 82t-92 232zM299 300q0 -85 47.5 -127t133.5 -42h93q85 0 133 42t48 127v454q0 85 -48 127.5t-133 42.5h-93q-85 0 -133 -43t-48 -127v-454zM302 1475 q0 38 49 38h46q49 0 66 -32l120 -224q8 -14 8 -29q0 -38 -47 -38h-47q-48 0 -66 33l-120 223q-9 16 -9 29z" />
<glyph unicode="&#xf3;" d="M132 300v454q0 150 92 232t256 82h93q163 0 255.5 -82t92.5 -232v-454q0 -150 -92.5 -232t-255.5 -82h-93q-164 0 -256 82t-92 232zM299 300q0 -85 47.5 -127t133.5 -42h93q85 0 133 42t48 127v454q0 85 -48 127.5t-133 42.5h-93q-85 0 -133 -43t-48 -127v-454zM457 1228 q0 13 9 29l120 224q17 32 66 32h46q49 0 49 -38q0 -11 -10 -29l-119 -223q-18 -33 -66 -33h-47q-48 0 -48 38z" />
<glyph unicode="&#xf4;" d="M132 300v454q0 150 92 232t256 82h93q163 0 255.5 -82t92.5 -232v-454q0 -150 -92.5 -232t-255.5 -82h-93q-164 0 -256 82t-92 232zM230 1238v43q0 33 29 50l227 135q18 10 40 10q23 0 38 -9l228 -135q30 -17 30 -51v-43q0 -20 -10.5 -32t-28.5 -12q-12 0 -24 6l-233 138 l-233 -138q-12 -6 -25 -6q-38 0 -38 44zM299 300q0 -85 47.5 -127t133.5 -42h93q85 0 133 42t48 127v454q0 85 -48 127.5t-133 42.5h-93q-85 0 -133 -43t-48 -127v-454z" />
<glyph unicode="&#xf5;" d="M132 300v454q0 150 92 232t256 82h93q163 0 255.5 -82t92.5 -232v-454q0 -150 -92.5 -232t-255.5 -82h-93q-164 0 -256 82t-92 232zM184 1260v19q0 85 52.5 135t143.5 50q58 0 117 -37l120 -75q23 -17 52 -17q37 0 54 16t17 51v17q0 25 11.5 36t36.5 11h31q26 0 38 -11 t12 -36v-20q0 -85 -52.5 -134.5t-144.5 -49.5q-66 0 -117 34l-120 79q-23 16 -51 16q-37 0 -54 -16t-17 -52v-16q0 -48 -48 -48h-32q-49 0 -49 48zM299 300q0 -85 47.5 -127t133.5 -42h93q85 0 133 42t48 127v454q0 85 -48 127.5t-133 42.5h-93q-85 0 -133 -43t-48 -127 v-454z" />
<glyph unicode="&#xf6;" d="M132 300v454q0 150 92 232t256 82h93q163 0 255.5 -82t92.5 -232v-454q0 -150 -92.5 -232t-255.5 -82h-93q-164 0 -256 82t-92 232zM250 1311v45q0 81 82 81h49q80 0 80 -81v-45q0 -38 -20.5 -59t-59.5 -21h-49q-40 0 -61 21t-21 59zM299 300q0 -85 47.5 -127t133.5 -42 h93q85 0 133 42t48 127v454q0 85 -48 127.5t-133 42.5h-93q-85 0 -133 -43t-48 -127v-454zM592 1311v45q0 81 82 81h49q80 0 80 -81v-45q0 -38 -20.5 -59t-59.5 -21h-49q-40 0 -61 21t-21 59z" />
<glyph unicode="&#xf7;" horiz-adv-x="980" d="M79 682v31q0 51 51 51h721q50 0 50 -51v-31q0 -28 -12 -40t-38 -12h-721q-51 0 -51 52zM403 358q0 -64 62 -64h50q63 0 63 64v49q0 62 -63 62h-50q-62 0 -62 -62v-49zM403 986v50q0 62 62 62h50q63 0 63 -62v-50q0 -63 -63 -63h-50q-62 0 -62 63z" />
<glyph unicode="&#xf8;" d="M132 300v454q0 150 92 232t256 82h93q53 0 101 -9l40 104q11 29 42 29h47q14 0 23.5 -9t9.5 -22q0 -10 -2 -15l-51 -128q138 -80 138 -264v-454q0 -150 -92.5 -232t-255.5 -82h-93q-47 0 -99 10l-41 -104q-12 -29 -46 -29h-43q-14 0 -23.5 9.5t-9.5 23.5q0 6 4 17l49 122 q-139 80 -139 265zM297 300q0 -69 33 -113l291 738q-20 4 -48 4h-93q-85 0 -134 -45t-49 -130v-454zM432 129q20 -4 48 -4h93q85 0 134 44.5t49 130.5v454q0 69 -33 113z" />
<glyph unicode="&#xf9;" horiz-adv-x="1081" d="M145 300v705q0 26 12 38t39 12h67q25 0 36.5 -12t11.5 -38v-705q0 -88 37 -125t113 -37q58 0 116 23l189 77v767q0 50 49 50h67q51 0 51 -50v-956q0 -49 -51 -49h-64q-26 0 -37.5 11.5t-11.5 37.5v48l-150 -67q-97 -44 -189 -44q-137 0 -211 77.5t-74 236.5zM320 1475 q0 38 49 38h46q28 0 42 -7.5t23 -24.5l121 -224q8 -14 8 -29q0 -38 -48 -38h-46q-48 0 -66 33l-120 223q-9 16 -9 29z" />
<glyph unicode="&#xfa;" horiz-adv-x="1081" d="M145 300v705q0 26 12 38t39 12h67q25 0 36.5 -12t11.5 -38v-705q0 -88 37 -125t113 -37q58 0 116 23l189 77v767q0 50 49 50h67q51 0 51 -50v-956q0 -49 -51 -49h-64q-26 0 -37.5 11.5t-11.5 37.5v48l-150 -67q-97 -44 -189 -44q-137 0 -211 77.5t-74 236.5zM477 1228 q0 13 9 29l120 224q17 32 66 32h46q48 0 48 -38q0 -13 -9 -29l-120 -223q-18 -33 -65 -33h-47q-48 0 -48 38z" />
<glyph unicode="&#xfb;" horiz-adv-x="1081" d="M145 300v705q0 26 12 38t39 12h67q25 0 36.5 -12t11.5 -38v-705q0 -88 37 -125t113 -37q58 0 116 23l189 77v767q0 50 49 50h67q51 0 51 -50v-956q0 -49 -51 -49h-64q-26 0 -37.5 11.5t-11.5 37.5v48l-150 -67q-97 -44 -189 -44q-137 0 -211 77.5t-74 236.5zM241 1238v43 q0 32 30 50l227 135q17 10 40 10t38 -9l228 -135q30 -17 30 -51v-43q0 -20 -10.5 -32t-28.5 -12q-12 0 -24 6l-233 138l-233 -138q-12 -6 -25 -6q-18 0 -28.5 12t-10.5 32z" />
<glyph unicode="&#xfc;" horiz-adv-x="1081" d="M145 300v705q0 26 12 38t39 12h67q25 0 36.5 -12t11.5 -38v-705q0 -88 37 -125t113 -37q58 0 116 23l189 77v767q0 50 49 50h67q51 0 51 -50v-956q0 -49 -51 -49h-64q-26 0 -37.5 11.5t-11.5 37.5v48l-150 -67q-97 -44 -189 -44q-137 0 -211 77.5t-74 236.5zM262 1311v45 q0 81 82 81h49q80 0 80 -81v-45q0 -38 -20.5 -59t-59.5 -21h-49q-40 0 -61 21t-21 59zM604 1311v45q0 81 82 81h49q80 0 80 -81v-45q0 -38 -20.5 -59t-59.5 -21h-49q-40 0 -61 21t-21 59z" />
<glyph unicode="&#xfd;" horiz-adv-x="1016" d="M55 1014q0 41 51 41h63q26 0 37.5 -9t19.5 -34l192 -602q57 -184 90 -314q37 147 89 310l192 606q14 43 58 43h64q50 0 50 -41q0 -6 -4 -17l-357 -1075q-51 -156 -161.5 -241t-266.5 -85q-50 0 -50 51v48q0 49 50 49q100 0 171.5 52.5t107.5 151.5l16 43h-36 q-42 0 -56 44l-316 961q-4 9 -4 18zM443 1228q0 15 8 29l121 224q9 17 23 24.5t42 7.5h47q48 0 48 -38q0 -13 -9 -29l-120 -223q-18 -33 -65 -33h-47q-48 0 -48 38z" />
<glyph unicode="&#xfe;" horiz-adv-x="1069" d="M148 -340v1774q0 49 51 49h66q50 0 50 -49v-477l148 67q97 44 190 44q137 0 211 -77.5t74 -236.5v-454q0 -150 -92 -232t-255 -82h-68q-146 0 -208 68v-394q0 -51 -50 -51h-66q-27 0 -39 12t-12 39zM315 290q0 -76 49.5 -117.5t140.5 -41.5h86q180 0 180 169v454 q0 88 -36.5 124.5t-112.5 36.5q-62 0 -118 -22l-189 -77v-526z" />
<glyph unicode="&#xff;" horiz-adv-x="1016" d="M55 1014q0 41 51 41h63q26 0 37.5 -9t19.5 -34l192 -602q57 -184 90 -314q37 147 89 310l192 606q14 43 58 43h64q50 0 50 -41q0 -6 -4 -17l-357 -1075q-51 -156 -161.5 -241t-266.5 -85q-50 0 -50 51v48q0 49 50 49q100 0 171.5 52.5t107.5 151.5l16 43h-36 q-42 0 -56 44l-316 961q-4 9 -4 18zM231 1311v45q0 81 82 81h49q80 0 80 -81v-45q0 -38 -20.5 -59t-59.5 -21h-49q-40 0 -61 21t-21 59zM573 1311v45q0 81 82 81h49q80 0 80 -81v-45q0 -38 -20.5 -59t-59.5 -21h-49q-40 0 -61 21t-21 59z" />
<glyph unicode="&#x152;" horiz-adv-x="1835" d="M152 360v674q0 183 103.5 278.5t294.5 95.5h153q167 0 243 -98v34q0 50 52 50h646q52 0 52 -51v-44q0 -51 -52 -51h-545v-467h545q52 0 52 -51v-45q0 -52 -52 -52h-545v-486h545q52 0 52 -51v-45q0 -27 -12.5 -39t-39.5 -12h-646q-52 0 -52 51v33q-43 -52 -100.5 -75 t-142.5 -23h-153q-191 0 -294.5 95.5t-103.5 278.5zM324 360q0 -223 226 -223h153q226 0 226 223v674q0 223 -226 223h-153q-226 0 -226 -223v-674z" />
<glyph unicode="&#x153;" horiz-adv-x="1664" d="M132 300v454q0 150 92 232t256 82h93q171 0 264 -93q90 93 263 93h84q163 0 255.5 -82t92.5 -232v-169q0 -88 -92 -88h-519v-197q0 -86 47.5 -129t133.5 -43h82q84 0 132.5 35t48.5 98v2q0 45 50 45h67q50 0 50 -45v-3q0 -123 -94 -198.5t-254 -75.5h-84q-172 0 -263 94 q-94 -94 -264 -94h-93q-164 0 -256 82t-92 232zM299 300q0 -85 47.5 -127t133.5 -42h93q85 0 133 42t48 127v454q0 85 -48 127.5t-133 42.5h-93q-85 0 -133 -43t-48 -127v-454zM921 627h444v127q0 86 -48 129.5t-133 43.5h-82q-85 0 -133 -44t-48 -129v-127z" />
<glyph unicode="&#x178;" horiz-adv-x="1088" d="M54 1353q0 16 12.5 28.5t34.5 12.5h65q45 0 60 -34l190 -409q112 -242 128 -279q20 46 42 94.5t47.5 103t38.5 81.5l186 401q21 42 64 42h67q21 0 33 -12.5t12 -28.5q0 -11 -6 -25l-397 -817v-460q0 -27 -12.5 -39t-39.5 -12h-70q-27 0 -38.5 12t-11.5 39v458l-400 822 q-5 11 -5 22zM267 1618v45q0 81 82 81h49q80 0 80 -81v-45q0 -38 -20.5 -58.5t-59.5 -20.5h-49q-82 0 -82 79zM609 1618v45q0 81 82 81h49q80 0 80 -81v-45q0 -38 -20.5 -58.5t-59.5 -20.5h-49q-82 0 -82 79z" />
<glyph unicode="&#x2c6;" horiz-adv-x="822" d="M114 1238v43q0 32 30 50l227 135q17 10 39 10q24 0 39 -9l228 -135q30 -17 30 -51v-43q0 -20 -10.5 -32t-28.5 -12q-13 0 -25 6l-233 138l-233 -138q-12 -6 -24 -6q-18 0 -28.5 12t-10.5 32z" />
<glyph unicode="&#x2dc;" horiz-adv-x="841" d="M79 1260v19q0 85 52 135t143 50q59 0 118 -37l119 -75q23 -17 52 -17q37 0 54 16t17 51v17q0 25 11.5 36t36.5 11h31q26 0 38 -11t12 -36v-20q0 -85 -52.5 -134.5t-144.5 -49.5q-66 0 -117 34l-120 79q-23 16 -51 16q-37 0 -54 -16t-17 -52v-16q0 -48 -48 -48h-32 q-48 0 -48 48z" />
<glyph unicode="&#x2000;" horiz-adv-x="909" />
<glyph unicode="&#x2001;" horiz-adv-x="1819" />
<glyph unicode="&#x2002;" horiz-adv-x="909" />
<glyph unicode="&#x2003;" horiz-adv-x="1819" />
<glyph unicode="&#x2004;" horiz-adv-x="606" />
<glyph unicode="&#x2005;" horiz-adv-x="454" />
<glyph unicode="&#x2006;" horiz-adv-x="303" />
<glyph unicode="&#x2007;" horiz-adv-x="303" />
<glyph unicode="&#x2008;" horiz-adv-x="227" />
<glyph unicode="&#x2009;" horiz-adv-x="363" />
<glyph unicode="&#x200a;" horiz-adv-x="101" />
<glyph unicode="&#x2010;" horiz-adv-x="653" d="M104 538v49q0 50 51 50h344q51 0 51 -50v-49q0 -52 -51 -52h-344q-51 0 -51 52z" />
<glyph unicode="&#x2011;" horiz-adv-x="653" d="M104 538v49q0 50 51 50h344q51 0 51 -50v-49q0 -52 -51 -52h-344q-51 0 -51 52z" />
<glyph unicode="&#x2012;" horiz-adv-x="653" d="M104 538v49q0 50 51 50h344q51 0 51 -50v-49q0 -52 -51 -52h-344q-51 0 -51 52z" />
<glyph unicode="&#x2013;" horiz-adv-x="782" d="M104 538v49q0 50 51 50h472q51 0 51 -50v-49q0 -52 -51 -52h-472q-51 0 -51 52z" />
<glyph unicode="&#x2014;" horiz-adv-x="1290" d="M112 538v49q0 50 51 50h965q26 0 38 -12t12 -38v-49q0 -52 -50 -52h-965q-51 0 -51 52z" />
<glyph unicode="&#x2018;" horiz-adv-x="427" d="M80 982q0 9 4 21l121 449q7 25 20 36.5t38 11.5h48q52 0 52 -48q0 -8 -3 -17l-120 -453q-7 -25 -20.5 -36.5t-39.5 -11.5h-49q-51 0 -51 48z" />
<glyph unicode="&#x2019;" horiz-adv-x="427" d="M65 982q0 12 3 21l121 449q7 25 20 36.5t38 11.5h49q51 0 51 -48q0 -11 -2 -17l-121 -453q-7 -25 -20.5 -36.5t-38.5 -11.5h-50q-50 0 -50 48z" />
<glyph unicode="&#x201a;" horiz-adv-x="427" d="M80 -284q0 8 4 20l121 450q7 25 20 36.5t38 11.5h48q52 0 52 -48q0 -8 -3 -17l-120 -453q-7 -25 -20.5 -36.5t-39.5 -11.5h-49q-51 0 -51 48z" />
<glyph unicode="&#x201c;" horiz-adv-x="783" d="M80 982q0 9 4 21l121 449q7 25 20 36.5t38 11.5h48q52 0 52 -48q0 -8 -3 -17l-120 -453q-7 -25 -20.5 -36.5t-39.5 -11.5h-49q-51 0 -51 48zM436 982q0 12 3 21l122 449q7 25 20 36.5t38 11.5h48q52 0 52 -48q0 -8 -3 -17l-120 -453q-7 -25 -20.5 -36.5t-39.5 -11.5h-50 q-50 0 -50 48z" />
<glyph unicode="&#x201d;" horiz-adv-x="783" d="M65 982q0 12 3 21l121 449q7 25 20 36.5t38 11.5h49q51 0 51 -48q0 -11 -2 -17l-121 -453q-7 -25 -20.5 -36.5t-38.5 -11.5h-50q-50 0 -50 48zM421 982q0 12 3 21l121 449q7 25 20 36.5t38 11.5h49q51 0 51 -48q0 -11 -2 -17l-121 -453q-7 -25 -20.5 -36.5t-38.5 -11.5 h-50q-50 0 -50 48z" />
<glyph unicode="&#x201e;" horiz-adv-x="783" d="M80 -284q0 8 4 20l121 450q7 25 20 36.5t38 11.5h48q52 0 52 -48q0 -8 -3 -17l-120 -453q-7 -25 -20.5 -36.5t-39.5 -11.5h-49q-51 0 -51 48zM436 -284q0 11 3 20l122 450q7 25 20 36.5t38 11.5h48q52 0 52 -48q0 -8 -3 -17l-120 -453q-7 -25 -20.5 -36.5t-39.5 -11.5 h-50q-50 0 -50 48z" />
<glyph unicode="&#x2022;" horiz-adv-x="671" d="M156 646v124q0 53 31 84t84 31h129q53 0 84 -31t31 -84v-124q0 -53 -31 -83.5t-84 -30.5h-129q-53 0 -84 30.5t-31 83.5z" />
<glyph unicode="&#x2026;" horiz-adv-x="1550" d="M143 55v88q0 64 64 64h93q65 0 65 -64v-88q0 -64 -65 -64h-93q-64 0 -64 64zM664 55v88q0 64 65 64h92q66 0 66 -64v-88q0 -64 -66 -64h-92q-65 0 -65 64zM1185 55v88q0 64 65 64h92q66 0 66 -64v-88q0 -64 -66 -64h-92q-65 0 -65 64z" />
<glyph unicode="&#x202f;" horiz-adv-x="363" />
<glyph unicode="&#x2039;" horiz-adv-x="573" d="M64 553q0 23 14 47l212 339q30 47 78 47h54q22 0 35.5 -14t13.5 -34q0 -12 -7 -24l-226 -361l226 -360q7 -12 7 -24q0 -20 -13.5 -34.5t-35.5 -14.5h-54q-49 0 -78 47l-213 340q-13 23 -13 46z" />
<glyph unicode="&#x203a;" horiz-adv-x="573" d="M102 169q0 12 7 24l226 360l-226 361q-7 12 -7 24q0 20 13.5 34t35.5 14h55q47 0 77 -47l213 -339q13 -22 13 -47q0 -24 -12 -46l-214 -340q-29 -47 -77 -47h-55q-22 0 -35.5 14.5t-13.5 34.5z" />
<glyph unicode="&#x205f;" horiz-adv-x="454" />
<glyph unicode="&#x20ac;" horiz-adv-x="1221" d="M68 532v44q0 22 9.5 31t31.5 9h132v162h-132q-23 0 -32 9t-9 32v44q0 22 9.5 31t31.5 9h132v157q0 165 95 256.5t263 91.5h139q168 0 262.5 -91.5t94.5 -256.5v-88q0 -17 -12.5 -29.5t-31.5 -12.5h-85q-18 0 -30.5 12.5t-12.5 29.5v99q0 93 -47.5 141t-137.5 48h-139 q-91 0 -138.5 -48t-47.5 -141v-168h302q22 0 31.5 -9t9.5 -31v-44q0 -23 -9 -32t-32 -9h-302v-162h302q22 0 31.5 -9t9.5 -31v-44q0 -22 -9 -31t-32 -9h-302v-168q0 -93 48 -141.5t138 -48.5h139q90 0 137.5 48.5t47.5 141.5v98q0 17 12.5 29.5t30.5 12.5h85 q19 0 31.5 -12.5t12.5 -29.5v-87q0 -165 -94.5 -257t-262.5 -92h-139q-168 0 -263 92t-95 257v157h-132q-23 0 -32 9t-9 31z" />
<glyph unicode="&#x2122;" horiz-adv-x="1194" d="M40 1324v32q0 17 10.5 27.5t27.5 10.5h396q17 0 27 -10.5t10 -27.5v-32q0 -17 -10 -27.5t-27 -10.5h-140v-422q0 -17 -11 -27.5t-28 -10.5h-38q-39 0 -39 38v422h-140q-17 0 -27.5 10.5t-10.5 27.5zM603 864v489q0 19 11 30t29 11h76q34 0 52 -38l68 -137q44 -88 60 -125 q38 90 58 126l71 138q10 19 20.5 27.5t30.5 8.5h76q19 0 29.5 -11t10.5 -30v-489q0 -18 -10 -28t-26 -10h-34q-17 0 -27 10t-10 28v218q0 83 4 172q-9 -21 -24 -51t-26.5 -52.5t-12.5 -25.5l-72 -141q-22 -40 -58 -40q-37 0 -58 40l-73 141q-43 82 -63 129q4 -89 4 -172 v-218q0 -18 -10 -28t-27 -10h-33q-36 0 -36 38z" />
<glyph unicode="&#x25fc;" d="M0 0v1054h1054v-1054h-1054z" />
</font>
</defs>
</svg>
