<?xml version="1.0" standalone="no"?>
<!DOCTYPE svg PUBLIC "-//W3C//DTD SVG 1.1//EN" "http://www.w3.org/Graphics/SVG/1.1/DTD/svg11.dtd" >
<svg xmlns="http://www.w3.org/2000/svg">
<metadata></metadata>
<defs>
<font id="centerbold" horiz-adv-x="1072" >
<font-face units-per-em="2048" ascent="1621" descent="-427" />
<missing-glyph horiz-adv-x="442" />
<glyph unicode="&#xfb01;" horiz-adv-x="1220" d="M29 932v77q0 78 79 78h71v102q0 145 89 219.5t255 74.5h85q79 0 79 -79v-66q0 -43 -19 -62.5t-60 -19.5h-79q-66 0 -66 -61v-108h153q39 0 55 -18.5t16 -59.5v-78q0 -41 -16 -60t-55 -19h-153v-774q0 -78 -78 -78h-126q-80 0 -80 78v774h-71q-79 0 -79 80zM818 79 q0 -79 81 -79h125q79 0 79 79v930q0 78 -79 78h-125q-81 0 -81 -78v-930zM818 1295v109q0 79 81 79h125q79 0 79 -79v-109q0 -80 -79 -80h-125q-81 0 -81 80z" />
<glyph unicode="&#xfb02;" horiz-adv-x="1225" d="M29 932v77q0 78 79 78h71v102q0 145 89 219.5t255 74.5h85q79 0 79 -79v-66q0 -43 -19 -62.5t-60 -19.5h-79q-66 0 -66 -61v-108h153q39 0 55 -18.5t16 -59.5v-78q0 -41 -16 -60t-55 -19h-153v-774q0 -78 -78 -78h-126q-80 0 -80 78v774h-71q-79 0 -79 80zM823 79v1325 q0 79 81 79h125q79 0 79 -79v-1325q0 -79 -79 -79h-125q-81 0 -81 79z" />
<glyph unicode="&#xfb03;" horiz-adv-x="1858" d="M29 932v77q0 78 79 78h71v102q0 145 89 219.5t255 74.5h85q79 0 79 -79v-66q0 -43 -19 -62.5t-60 -19.5h-79q-66 0 -66 -61v-108h153q39 0 55 -18.5t16 -59.5v-78q0 -41 -16 -60t-55 -19h-153v-774q0 -78 -78 -78h-126q-80 0 -80 78v774h-71q-79 0 -79 80zM818 78v1111 q0 145 89 219.5t255 74.5h85q79 0 79 -79v-66q0 -43 -19 -62.5t-60 -19.5h-79q-34 0 -49.5 -14.5t-15.5 -46.5v-108h152q38 0 54.5 -18.5t16.5 -59.5v-78q0 -41 -16.5 -60t-54.5 -19h-152v-774q0 -78 -80 -78h-126q-79 0 -79 78zM1457 79q0 -79 80 -79h125q80 0 80 79v930 q0 78 -80 78h-125q-80 0 -80 -78v-930zM1457 1295v109q0 79 80 79h125q80 0 80 -79v-109q0 -80 -80 -80h-125q-80 0 -80 80z" />
<glyph unicode="&#xfb04;" horiz-adv-x="1864" d="M29 932v77q0 78 79 78h71v102q0 145 89 219.5t255 74.5h85q79 0 79 -79v-66q0 -43 -19 -62.5t-60 -19.5h-79q-66 0 -66 -61v-108h153q39 0 55 -18.5t16 -59.5v-78q0 -41 -16 -60t-55 -19h-153v-774q0 -78 -78 -78h-126q-80 0 -80 78v774h-71q-79 0 -79 80zM818 78v1111 q0 145 89 219.5t255 74.5h85q79 0 79 -79v-66q0 -43 -19 -62.5t-60 -19.5h-79q-65 0 -65 -61v-108h152q38 0 54.5 -18.5t16.5 -59.5v-78q0 -41 -16.5 -60t-54.5 -19h-152v-774q0 -78 -80 -78h-125q-80 0 -80 78zM1463 79v1325q0 79 80 79h125q80 0 80 -79v-1325 q0 -79 -80 -79h-125q-80 0 -80 79z" />
<glyph horiz-adv-x="0" />
<glyph horiz-adv-x="0" />
<glyph horiz-adv-x="682" />
<glyph unicode="&#xd;" horiz-adv-x="442" />
<glyph unicode=" "  horiz-adv-x="442" />
<glyph unicode="&#x09;" horiz-adv-x="442" />
<glyph unicode="&#xa0;" horiz-adv-x="442" />
<glyph unicode="!" horiz-adv-x="615" d="M142 86v106q0 43 24 66t68 23h148q44 0 68 -23t24 -66v-106q0 -43 -24 -66t-68 -23h-148q-44 0 -68 23t-24 66zM166 473v851q0 78 81 78h122q82 0 82 -78v-851q0 -79 -82 -79h-122q-81 0 -81 79z" />
<glyph unicode="&#x22;" horiz-adv-x="758" d="M79 979v437q0 45 21 64.5t65 19.5h64q44 0 65 -20t21 -65v-436q0 -46 -21 -67.5t-65 -21.5h-64q-86 0 -86 89zM443 979v437q0 45 21 64.5t65 19.5h64q44 0 65 -20t21 -65v-436q0 -46 -21 -67.5t-65 -21.5h-64q-86 0 -86 89z" />
<glyph unicode="#" horiz-adv-x="1162" d="M76 444l7 47q5 32 24.5 49t50.5 17h112l41 282h-110q-67 0 -58 66l7 45q9 66 75 66h112l46 313q8 65 74 65h55q67 0 58 -66l-46 -312h185l46 313q8 65 75 65h55q32 0 47 -17t10 -49l-47 -312h133q66 0 57 -66l-6 -45q-9 -66 -75 -66h-134l-41 -282h133q65 0 56 -66 l-7 -47q-9 -66 -74 -66h-134l-46 -312q-5 -32 -24.5 -49t-50.5 -17h-54q-66 0 -58 67l46 311h-185l-46 -312q-4 -31 -24 -48.5t-52 -17.5h-54q-66 0 -57 67l46 311h-110q-32 0 -47.5 17t-10.5 49zM457 557h184l43 282h-186z" />
<glyph unicode="$" horiz-adv-x="1163" d="M101 363v27q0 80 82 80h119q82 0 82 -80v-54q0 -104 110 -104h176q110 0 110 104v62q0 50 -22 78.5t-72 45.5l-304 101q-143 47 -209 135t-66 234v39q0 168 89.5 261t262.5 105v88q0 78 78 78h89q78 0 78 -78v-88q173 -12 262.5 -104t89.5 -261v-31q0 -81 -82 -81h-121 q-82 0 -82 81v52q0 104 -109 104h-162q-110 0 -110 -103v-65q0 -50 22 -79t72 -46l303 -100q151 -49 213.5 -135.5t62.5 -234.5v-30q0 -172 -91 -264.5t-268 -102.5v-102q0 -78 -78 -78h-89q-78 0 -78 78v102q-358 20 -358 366z" />
<glyph unicode="%" horiz-adv-x="1721" d="M75 833v337q0 109 69 171.5t194 62.5h78q124 0 193 -62t69 -172v-337q0 -111 -69 -172.5t-193 -61.5h-78q-125 0 -194 62.5t-69 171.5zM282 829q0 -50 56 -50h78q56 0 56 50v345q0 50 -56 50h-78q-56 0 -56 -50v-345zM475 40q0 17 6 30l563 1277q15 33 31.5 45.5 t55.5 12.5h59q26 0 41 -14t15 -37q0 -14 -8 -31l-560 -1275q-14 -32 -32.5 -45.5t-53.5 -13.5h-58q-28 0 -43.5 14t-15.5 37zM1043 224v337q0 110 69 172t194 62h77q125 0 194 -62.5t69 -171.5v-337q0 -111 -69.5 -172t-193.5 -61h-77q-125 0 -194 62t-69 171zM1249 220 q0 -49 57 -49h77q57 0 57 49v346q0 49 -57 49h-77q-57 0 -57 -49v-346z" />
<glyph unicode="&#x26;" horiz-adv-x="1245" d="M85 367v47q0 242 213 287q-86 29 -131 103t-45 177v50q0 185 104.5 279.5t304.5 94.5h78q189 0 299.5 -96t110.5 -268v-21q0 -30 -22 -50t-59 -20h-132q-38 0 -59.5 20.5t-21.5 57.5v26q0 102 -105 102h-100q-106 0 -106 -102v-128q0 -105 89 -105h78q84 0 84 -81v-83 q0 -81 -84 -81h-104q-51 0 -74 -22.5t-23 -76.5v-133q0 -51 28.5 -78.5t81.5 -27.5h176q54 0 82.5 27.5t28.5 78.5v305v8v83q0 81 81 81h245q84 0 84 -81v-83q0 -81 -84 -81h-34v-209q0 -186 -106 -282t-308 -96h-154q-203 0 -309.5 96t-106.5 282z" />
<glyph unicode="'" horiz-adv-x="398" d="M79 979v437q0 45 21 64.5t65 19.5h70q86 0 86 -85v-436q0 -46 -21 -67.5t-65 -21.5h-70q-86 0 -86 89z" />
<glyph unicode="(" horiz-adv-x="590" d="M119 -13v1328q0 153 81 217.5t230 64.5h76q41 0 60.5 -17t19.5 -55v-38q0 -78 -80 -78h-64q-42 0 -66.5 -25t-24.5 -69v-1328q0 -44 24.5 -67t66.5 -23h64q80 0 80 -78v-31q0 -79 -80 -79h-76q-311 0 -311 278z" />
<glyph unicode=")" horiz-adv-x="590" d="M4 -181q0 78 80 78h64q42 0 67 23t25 67v1328q0 44 -25 69t-67 25h-64q-80 0 -80 78v38q0 38 19.5 55t60.5 17h76q149 0 230.5 -64.5t81.5 -217.5v-1328q0 -278 -312 -278h-76q-80 0 -80 79v31z" />
<glyph unicode="*" horiz-adv-x="794" d="M45 999q5 18 21 28l150 91l-150 91q-16 10 -21 28t4 34l36 64q10 16 28.5 20.5t33.5 -4.5l150 -91v194q0 19 13 32t32 13h74q18 0 32 -13.5t14 -31.5v-194l149 91q18 10 35.5 5t26.5 -21l37 -64q9 -17 4.5 -34.5t-20.5 -27.5l-151 -91l151 -91q15 -9 20 -27t-4 -35 l-37 -63q-9 -16 -26.5 -21t-35.5 5l-149 89v-192q0 -19 -14 -32.5t-32 -13.5h-74q-19 0 -32 13.5t-13 32.5v193l-150 -90q-16 -10 -34 -5t-28 21l-36 63q-9 16 -4 34z" />
<glyph unicode="+" horiz-adv-x="942" d="M49 669v56q0 81 78 81h236v235q0 79 80 79h56q80 0 80 -79v-235h236q79 0 79 -81v-56q0 -80 -79 -80h-236v-236q0 -79 -80 -79h-56q-80 0 -80 79v236h-236q-78 0 -78 80z" />
<glyph unicode="," horiz-adv-x="453" d="M24 -259q0 18 3 29l96 413q16 73 91 73h94q36 0 54.5 -18.5t18.5 -50.5q0 -15 -4 -27l-109 -419q-17 -67 -90 -67h-86q-32 0 -50 17.5t-18 49.5z" />
<glyph unicode="-" horiz-adv-x="644" d="M91 514v91q0 79 80 79h303q79 0 79 -79v-91q0 -80 -79 -80h-303q-80 0 -80 80z" />
<glyph unicode="." horiz-adv-x="548" d="M108 86v138q0 88 92 88h149q92 0 92 -88v-138q0 -89 -92 -89h-149q-44 0 -68 23t-24 66z" />
<glyph unicode="/" horiz-adv-x="721" d="M23 -115q0 14 3 23l480 1584q9 29 27 41.5t51 12.5h54q26 0 43 -15t17 -39q0 -15 -3 -24l-481 -1584q-8 -29 -25.5 -41.5t-50.5 -12.5h-56q-25 0 -42 15t-17 40z" />
<glyph unicode="0" horiz-adv-x="1172" d="M111 373v648q0 192 102.5 288t301.5 96h144q199 0 301 -96t102 -288v-648q0 -192 -102 -288t-301 -96h-144q-199 0 -301.5 96t-102.5 288zM395 349q0 -111 108 -111h167q108 0 108 111v696q0 111 -108 111h-167q-108 0 -108 -111v-696z" />
<glyph unicode="1" horiz-adv-x="930" d="M79 81v79q0 81 81 81h196v863l-181 -50q-15 -4 -28 -4q-29 0 -48.5 20t-19.5 60v93q0 65 63 81l358 94q19 5 38 5q46 0 73.5 -27.5t27.5 -79.5v-1055h166q82 0 82 -81v-79q0 -81 -82 -81h-645q-81 0 -81 81z" />
<glyph unicode="2" horiz-adv-x="1169" d="M113 970v51q0 192 102.5 288t301.5 96h127q199 0 301.5 -96t102.5 -288v-67q0 -146 -60 -232.5t-203 -151.5l-302 -138q-81 -38 -81 -123v-68h573q81 0 81 -81v-80q0 -80 -81 -80h-776q-81 0 -81 80v218q0 143 59.5 228.5t202.5 150.5l304 137q44 20 62 54t18 95v88 q0 111 -109 111h-149q-107 0 -107 -111v-81q0 -81 -82 -81h-122q-82 0 -82 81z" />
<glyph unicode="3" horiz-adv-x="1172" d="M111 367v28q0 81 81 81h122q81 0 81 -81v-58q0 -51 27.5 -79t80.5 -28h167q53 0 80.5 28t27.5 79v141q0 54 -26.5 80t-83.5 26h-147q-81 0 -81 82v79q0 82 81 82h122q57 0 83 26t26 81v123q0 51 -28 79t-81 28h-139q-105 0 -107 -104v-49q0 -80 -81 -80h-122 q-82 0 -82 80v19q1 186 103 280.5t300 94.5h117q199 0 301.5 -95t102.5 -283v-43q0 -109 -55 -182t-157 -95q117 -17 177.5 -93.5t60.5 -195.5v-51q0 -187 -102.5 -282.5t-300.5 -95.5h-145q-199 0 -301 95t-102 283z" />
<glyph unicode="4" horiz-adv-x="1188" d="M63 543q0 17 4 33l146 752q13 66 81 66h125q35 0 54 -19t19 -46q0 -11 -3 -25l-127 -649h319v659q0 80 79 80h126q78 0 78 -80v-659h80q79 0 79 -81v-79q0 -80 -79 -80h-80v-335q0 -80 -78 -80h-126q-79 0 -79 80v335h-483q-62 0 -98.5 37.5t-36.5 90.5z" />
<glyph unicode="5" horiz-adv-x="1172" d="M115 369v9q0 42 16 61.5t55 19.5h142q39 0 55 -19.5t16 -61.5v-38q0 -110 107 -110h159q108 0 108 114v177q0 112 -108 112h-436q-80 0 -80 80v600q0 81 80 81h701q79 0 79 -81v-79q0 -81 -79 -81h-497v-269h221q201 0 302 -92.5t101 -283.5v-135q0 -192 -102 -288 t-301 -96h-137q-198 0 -300 95.5t-102 284.5z" />
<glyph unicode="6" horiz-adv-x="1173" d="M111 373v648q0 192 102.5 288t301.5 96h143q195 0 299 -92t104 -264v-5q0 -31 -20 -50t-57 -19h-131q-76 0 -76 78v11q0 46 -28.5 72.5t-79.5 26.5h-166q-108 0 -108 -112v-277l188 50q84 23 170 23q147 0 228 -83t81 -235v-156q0 -192 -102 -288t-301 -96h-144 q-199 0 -301.5 96t-102.5 288zM395 343q0 -113 108 -113h167q108 0 108 113v178q0 93 -86 93q-30 0 -66 -9l-231 -60v-202z" />
<glyph unicode="7" horiz-adv-x="1104" d="M74 961v353q0 80 80 80h776q80 0 80 -80v-297q0 -150 -40 -240.5t-143 -170.5l-87 -68q-61 -47 -82 -95t-21 -131v-232q0 -80 -79 -80h-125q-80 0 -80 80v232q0 149 40 239t142 170l87 68q62 49 83 95.5t21 132.5v136h-368v-192q0 -80 -79 -80h-125q-80 0 -80 80z" />
<glyph unicode="8" horiz-adv-x="1172" d="M112 364v37q0 167 129 254l73 49l-73 49q-122 82 -122 254v26q0 185 102 278.5t300 93.5h130q198 0 300.5 -94t102.5 -278v-26q0 -171 -123 -254l-72 -49l73 -49q129 -87 129 -252v-39q0 -187 -102.5 -281t-300.5 -94h-143q-198 0 -300.5 94t-102.5 281zM396 335 q0 -104 107 -104h166q108 0 108 104v87q0 77 -73 113l-118 59l-117 -59q-73 -36 -73 -113v-87zM403 983q0 -42 16.5 -67.5t56.5 -45.5l110 -56l111 56q40 20 56.5 45.5t16.5 67.5v79q0 101 -108 101h-152q-107 0 -107 -101v-79z" />
<glyph unicode="9" horiz-adv-x="1173" d="M111 865v156q0 192 102.5 288t301.5 96h144q199 0 301 -96t102 -288v-648q0 -192 -102 -288t-301 -96h-144q-194 0 -297.5 92t-105.5 265v4q0 31 20 50.5t57 19.5h131q76 0 76 -79v-11q0 -46 28.5 -72.5t79.5 -26.5h166q107 0 107 112v277l-187 -50q-84 -23 -169 -23 q-147 0 -228.5 83t-81.5 235zM395 874q0 -94 86 -94q35 0 65 9l231 60v202q0 113 -107 113h-167q-108 0 -108 -113v-177z" />
<glyph unicode=":" horiz-adv-x="558" d="M113 86v138q0 88 92 88h149q92 0 92 -88v-138q0 -89 -92 -89h-149q-44 0 -68 23t-24 66zM113 864v138q0 43 24 66t68 23h149q92 0 92 -89v-138q0 -88 -92 -88h-149q-92 0 -92 88z" />
<glyph unicode=";" horiz-adv-x="540" d="M55 -259q0 18 3 29l96 413q16 73 91 73h94q36 0 54 -18.5t18 -50.5q0 -18 -3 -27l-109 -419q-17 -67 -90 -67h-85q-33 0 -51 17.5t-18 49.5zM117 864v138q0 43 24 66t68 23h149q93 0 93 -89v-138q0 -88 -93 -88h-149q-92 0 -92 88z" />
<glyph unicode="&#x3c;" horiz-adv-x="953" d="M48 647v101q0 63 72 89l690 259q16 6 31 6q23 0 37.5 -14.5t14.5 -44.5v-74q0 -33 -14.5 -51.5t-47.5 -30.5l-520 -190l520 -189q33 -12 47.5 -31t14.5 -51v-75q0 -58 -53 -58q-10 0 -31 7l-689 257q-72 27 -72 90z" />
<glyph unicode="=" horiz-adv-x="950" d="M52 490v55q0 80 79 80h688q80 0 80 -80v-55q0 -80 -80 -80h-688q-79 0 -79 80zM52 852v55q0 80 79 80h688q80 0 80 -80v-55q0 -81 -80 -81h-688q-79 0 -79 81z" />
<glyph unicode="&#x3e;" horiz-adv-x="953" d="M60 351v75q0 32 14.5 51t47.5 31l520 189l-520 190q-33 12 -47.5 30.5t-14.5 51.5v74q0 30 15 44.5t38 14.5q13 0 30 -6l690 -259q72 -26 72 -89v-101q0 -63 -72 -90l-689 -257q-21 -7 -31 -7q-53 0 -53 58z" />
<glyph unicode="?" horiz-adv-x="1005" d="M59 998v42q0 178 103 271.5t301 93.5h79q198 0 301 -93.5t103 -271.5v-77q0 -106 -36 -171t-112 -103l-95 -47q-38 -19 -49.5 -43.5t-11.5 -75.5v-47q0 -78 -81 -78h-119q-82 0 -82 78v89q0 102 34 162.5t113 101.5l88 45q36 18 48.5 44t12.5 74v76q0 103 -102 103h-102 q-103 0 -103 -103v-70q0 -80 -83 -80h-123q-84 0 -84 80zM335 86v106q0 43 24 66t68 23h149q91 0 91 -89v-106q0 -89 -91 -89h-149q-44 0 -68 23t-24 66z" />
<glyph unicode="@" horiz-adv-x="1640" d="M107 402v282q0 285 179 452.5t479 167.5h111q301 0 479 -167.5t178 -452.5v-251q0 -137 -83.5 -222.5t-214.5 -85.5q-149 0 -232 105l-150 -65q-92 -40 -148 -40q-107 0 -167.5 61t-60.5 181v315q0 139 72 205t219 66h105q147 0 217.5 -66t70.5 -205v-260 q0 -32 20.5 -52.5t53.5 -20.5t53.5 20.5t20.5 52.5v262q0 197 -111.5 306t-321.5 109h-111q-206 0 -320 -109.5t-114 -305.5v-282q0 -206 110.5 -310t321.5 -104h398q64 0 64 -65v-76q0 -64 -64 -64h-398q-303 0 -479.5 162t-176.5 457zM702 400q0 -60 57 -60q18 0 39 9 l140 57q-1 9 -1 27v258q0 32 -13.5 45t-45.5 13h-115q-32 0 -46.5 -13t-14.5 -45v-291z" />
<glyph unicode="A" horiz-adv-x="1257" d="M56 69q0 9 5 24l354 1227q23 74 94 74h242q72 0 93 -74l353 -1226q4 -12 4 -25q0 -29 -19.5 -49t-57.5 -20h-119q-70 0 -93 74l-65 224h-436l-65 -225q-22 -73 -93 -73h-118q-39 0 -59 19.5t-20 49.5zM469 529h319l-74 259q-57 196 -85 339q-32 -159 -85 -339z" />
<glyph unicode="B" horiz-adv-x="1203" d="M143 80v1233q0 81 81 81h448q205 0 304 -84.5t99 -265.5v-39q0 -256 -215 -298q243 -34 243 -298v-46q0 -185 -101 -274t-307 -89h-471q-81 0 -81 80zM436 241h265q109 0 109 105v135q0 57 -26.5 82.5t-82.5 25.5h-265v-348zM436 822h239q108 0 108 107v121q0 53 -25 78 t-80 25h-242v-331z" />
<glyph unicode="C" horiz-adv-x="1245" d="M122 373v648q0 191 106 287.5t310 96.5h169q205 0 310.5 -96.5t105.5 -287.5v-70q0 -81 -83 -81h-129q-82 0 -82 81v94q0 111 -110 111h-192q-111 0 -111 -111v-696q0 -111 111 -111h192q110 0 110 111v95q0 81 82 81h129q83 0 83 -81v-71q0 -191 -105.5 -287.5 t-310.5 -96.5h-169q-204 0 -310 96.5t-106 287.5z" />
<glyph unicode="D" horiz-adv-x="1227" d="M143 80v1233q0 81 81 81h465q415 0 415 -382v-629q0 -191 -105.5 -287t-309.5 -96h-465q-81 0 -81 80zM435 241h265q111 0 111 113v688q0 111 -111 111h-265v-912z" />
<glyph unicode="E" horiz-adv-x="1088" d="M143 80v1235q0 79 81 79h648q83 0 83 -81v-78q0 -82 -83 -82h-436v-327h436q83 0 83 -82v-78q0 -81 -83 -81h-436v-344h436q83 0 83 -81v-80q0 -80 -83 -80h-648q-81 0 -81 80z" />
<glyph unicode="F" horiz-adv-x="1050" d="M143 80v1235q0 79 81 79h648q83 0 83 -81v-78q0 -82 -83 -82h-436v-335h436q83 0 83 -81v-78q0 -82 -83 -82h-436v-497q0 -80 -83 -80h-129q-81 0 -81 80z" />
<glyph unicode="G" horiz-adv-x="1245" d="M123 373v648q0 191 105.5 287.5t309.5 96.5h169q205 0 310.5 -96.5t105.5 -287.5v-43q0 -81 -82 -81h-130q-82 0 -82 81v67q0 111 -110 111h-192q-111 0 -111 -111v-696q0 -111 111 -111h192q110 0 110 111v151h-148q-82 0 -82 82v78q0 82 82 82h360q82 0 82 -82v-287 q0 -191 -105.5 -287.5t-310.5 -96.5h-169q-204 0 -309.5 96.5t-105.5 287.5z" />
<glyph unicode="H" horiz-adv-x="1263" d="M142 80v1233q0 81 82 81h130q81 0 81 -81v-487h393v487q0 81 83 81h128q82 0 82 -81v-1233q0 -80 -82 -80h-128q-83 0 -83 80v505h-393v-505q0 -80 -81 -80h-130q-82 0 -82 80z" />
<glyph unicode="I" horiz-adv-x="585" d="M146 80v1233q0 81 82 81h130q81 0 81 -81v-1233q0 -80 -81 -80h-130q-82 0 -82 80z" />
<glyph unicode="J" horiz-adv-x="771" d="M49 -54q0 82 83 82h55q76 0 113 30t37 101v994h-183q-81 0 -81 81v79q0 81 81 81h397q38 0 58.5 -20.5t20.5 -57.5v-1124q0 -406 -453 -406h-45q-83 0 -83 82v78z" />
<glyph unicode="K" horiz-adv-x="1172" d="M138 80v1233q0 81 82 81h130q81 0 81 -81v-484h114l265 495q20 37 43.5 53.5t68.5 16.5h127q33 0 52 -19.5t19 -50.5q0 -18 -9 -34l-307 -584l310 -603q11 -20 11 -36q0 -30 -18 -48.5t-51 -18.5h-134q-40 0 -64.5 16.5t-43.5 52.5l-269 511h-114v-500q0 -80 -81 -80 h-130q-82 0 -82 80z" />
<glyph unicode="L" horiz-adv-x="920" d="M143 80v1233q0 81 81 81h130q81 0 81 -81v-1072h388q82 0 82 -81v-80q0 -80 -82 -80h-599q-81 0 -81 80z" />
<glyph unicode="M" horiz-adv-x="1547" d="M143 80v1232q0 82 81 82h171q42 0 65 -18.5t40 -56.5l170 -393q16 -36 33 -77t38.5 -91.5t33.5 -79.5q84 205 103 248l170 393q17 38 40 56.5t65 18.5h171q81 0 81 -82v-1232q0 -80 -79 -80h-110q-79 0 -79 80v538q0 193 6 306q-7 -19 -32.5 -85.5t-39 -99.5t-34.5 -82.5 t-38 -83.5l-91 -180q-45 -89 -134 -89q-85 0 -132 89l-93 180q-23 44 -46 98.5t-57 143t-42 109.5q8 -129 8 -306v-538q0 -80 -80 -80h-110q-79 0 -79 80z" />
<glyph unicode="N" horiz-adv-x="1273" d="M143 79v1234q0 81 83 81h156q58 0 81 -48l252 -501q89 -179 150 -329q-10 120 -10 307v492q0 79 83 79h112q81 0 81 -79v-1235q0 -80 -82 -80h-157q-56 0 -80 49l-261 523q-99 198 -142 306q10 -137 10 -306v-493q0 -79 -82 -79h-113q-81 0 -81 79z" />
<glyph unicode="O" horiz-adv-x="1248" d="M123 373v648q0 191 105.5 287.5t309.5 96.5h173q203 0 309 -96.5t106 -287.5v-648q0 -191 -106 -287.5t-309 -96.5h-173q-204 0 -309.5 96.5t-105.5 287.5zM416 349q0 -111 111 -111h195q110 0 110 111v696q0 111 -110 111h-195q-111 0 -111 -111v-696z" />
<glyph unicode="P" horiz-adv-x="1144" d="M143 78v1247q0 69 78 69h431q410 0 410 -375v-167q0 -185 -102 -272.5t-308 -87.5h-217v-414q0 -38 -20.5 -58t-57.5 -20h-136q-37 0 -57.5 20t-20.5 58zM435 736h228q55 0 80 24.5t25 76.5v212q0 54 -25 79t-80 25h-228v-417z" />
<glyph unicode="Q" horiz-adv-x="1248" d="M123 373v648q0 191 105.5 287.5t309.5 96.5h173q203 0 309 -96.5t106 -287.5v-648q0 -179 -93.5 -275t-274.5 -107v-133q0 -71 -73 -71h-123q-72 0 -72 71v133q-181 11 -274 107t-93 275zM416 349q0 -111 111 -111h195q110 0 110 111v696q0 111 -110 111h-195 q-111 0 -111 -111v-696z" />
<glyph unicode="R" horiz-adv-x="1181" d="M143 80v1233q0 81 81 81h448q204 0 304.5 -90.5t100.5 -276.5v-78q0 -123 -59.5 -203.5t-170.5 -95.5q119 -16 174.5 -85t55.5 -195v-290q0 -80 -82 -80h-131q-81 0 -81 80v340q0 106 -108 106h-240v-446q0 -80 -80 -80h-131q-81 0 -81 80zM435 769h240q108 0 108 106 v175q0 104 -105 104h-243v-385z" />
<glyph unicode="S" horiz-adv-x="1237" d="M120 363v26q0 81 82 81h138q40 0 57.5 -20t17.5 -61v-54q0 -105 111 -105h187q110 0 110 105v63q0 50 -21.5 78.5t-71.5 44.5l-318 100q-147 47 -215 136t-68 235v39q0 184 106 279t309 95h149q204 0 309.5 -93.5t105.5 -279.5v-31q0 -81 -81 -81h-130q-82 0 -82 81v59 q0 103 -110 103h-172q-111 0 -111 -103v-71q0 -51 21.5 -79t73.5 -44l317 -101q155 -49 218.5 -135.5t63.5 -235.5v-30q0 -186 -104 -280.5t-307 -94.5h-171q-204 0 -309 94t-105 280z" />
<glyph unicode="T" horiz-adv-x="963" d="M14 1235v78q0 81 82 81h772q82 0 82 -81v-78q0 -82 -82 -82h-240v-1073q0 -80 -81 -80h-130q-82 0 -82 80v1073h-239q-82 0 -82 82z" />
<glyph unicode="U" horiz-adv-x="1269" d="M138 367v946q0 81 82 81h130q81 0 81 -81v-969q0 -52 28.5 -79t82.5 -27h186q54 0 82.5 27t28.5 79v969q0 81 82 81h129q82 0 82 -81v-946q0 -187 -105.5 -282.5t-309.5 -95.5h-164q-204 0 -309.5 95.5t-105.5 282.5z" />
<glyph unicode="V" horiz-adv-x="1199" d="M50 1325q0 31 21 50t61 19h133q75 0 92 -74l172 -719q36 -152 71 -334q28 145 71 334l171 719q17 74 92 74h134q40 0 61 -19t21 -50q0 -13 -4 -25l-329 -1226q-20 -74 -92 -74h-250q-73 0 -93 74l-328 1226q-4 12 -4 25z" />
<glyph unicode="W" horiz-adv-x="1682" d="M49 1325q0 31 19.5 50t58.5 19h126q70 0 79 -73l111 -687q16 -112 49 -361q26 155 65 370l127 629q14 77 84 77h148q70 0 84 -77l132 -629q12 -56 62 -370q21 193 48 363l109 685q9 73 73 73h132q39 0 58 -19t19 -50q0 -15 -2 -25l-215 -1226q-14 -74 -79 -74h-249 q-71 0 -84 76l-103 501q-8 33 -31.5 181t-28.5 174q-5 -23 -28 -172.5t-31 -183.5l-102 -500q-13 -76 -86 -76h-248q-34 0 -52 18.5t-25 55.5l-217 1226q-3 14 -3 25z" />
<glyph unicode="X" horiz-adv-x="1180" d="M65 67q0 16 11 36l317 596l-315 592q-11 20 -11 36q0 31 20 49t60 18h118q71 0 104 -65l222 -419l221 419q34 65 104 65h118q40 0 59.5 -18t19.5 -49q0 -18 -10 -35l-315 -593l317 -596q10 -17 10 -36q0 -67 -78 -67h-119q-71 0 -104 65l-223 423l-224 -423 q-33 -65 -105 -65h-118q-40 0 -59.5 18t-19.5 49z" />
<glyph unicode="Y" horiz-adv-x="1116" d="M34 1329q0 27 19.5 46t58.5 19h126q67 0 91 -59l141 -330q54 -127 88 -221q46 126 88 221l141 328q26 61 92 61h126q39 0 58 -19t19 -46q0 -18 -10 -39l-367 -762v-448q0 -80 -81 -80h-130q-82 0 -82 80v447l-368 764q-10 22 -10 38z" />
<glyph unicode="Z" horiz-adv-x="1159" d="M94 80v101q0 47 24 84l595 888h-534q-82 0 -82 82v78q0 81 82 81h787q83 0 83 -81v-101q0 -46 -29 -90l-592 -881h552q82 0 82 -81v-80q0 -80 -82 -80h-804q-82 0 -82 80z" />
<glyph unicode="[" horiz-adv-x="589" d="M119 -212v1728q0 81 89 81h298q79 0 79 -78v-32q0 -78 -79 -78h-155v-1512h155q79 0 79 -79v-30q0 -79 -79 -79h-298q-89 0 -89 79z" />
<glyph unicode="\" horiz-adv-x="721" d="M23 1492q0 24 17 39t43 15h54q33 0 51 -12.5t27 -41.5l480 -1584q3 -9 3 -23q0 -25 -17 -40t-42 -15h-56q-33 0 -50.5 12.5t-25.5 41.5l-481 1584q-3 9 -3 24z" />
<glyph unicode="]" horiz-adv-x="589" d="M4 -182q0 79 80 79h155v1512h-155q-80 0 -80 78v32q0 78 80 78h297q90 0 90 -81v-1728q0 -79 -90 -79h-297q-80 0 -80 79v30z" />
<glyph unicode="^" horiz-adv-x="977" d="M84 613q0 12 6 30l258 689q27 73 90 73h101q62 0 89 -73l259 -689q6 -18 6 -30q0 -24 -14 -39t-44 -15h-76q-32 0 -50.5 14.5t-30.5 48.5l-190 519l-189 -519q-12 -34 -30.5 -48.5t-50.5 -14.5h-75q-30 0 -44.5 15.5t-14.5 38.5z" />
<glyph unicode="_" horiz-adv-x="1012" d="M79 -247q0 79 79 79h696q80 0 80 -79v-64q0 -80 -80 -80h-696q-79 0 -79 80v64z" />
<glyph unicode="`" horiz-adv-x="825" d="M228 1472q0 60 72 60h104q72 0 99 -59l76 -166q12 -27 12 -47q0 -28 -16.5 -44t-48.5 -16h-97q-68 0 -96 54l-91 169q-14 25 -14 49z" />
<glyph unicode="a" horiz-adv-x="1058" d="M79 286v70q0 280 354 280h231v165q0 75 -78 75h-123q-75 0 -75 -64q0 -44 -18 -63t-61 -19h-126q-79 0 -79 74q0 136 94 215t268 79h114q366 0 366 -329v-690q0 -79 -79 -79h-97q-80 0 -80 78l-124 -47q-107 -41 -196 -41q-134 0 -212.5 76.5t-78.5 219.5zM364 261 q0 -65 71 -65q20 0 50 8l179 55v186h-219q-81 0 -81 -64v-120z" />
<glyph unicode="b" horiz-adv-x="1076" d="M107 318v1086q0 79 80 79h125q80 0 80 -79v-383l92 38q97 39 191 39q144 0 221.5 -83.5t77.5 -245.5v-451q0 -163 -93.5 -246t-272.5 -83h-135q-180 0 -273 83t-93 246zM392 292q0 -73 76 -73h144q77 0 77 73v470q0 84 -80 84q-27 0 -64 -14l-153 -55v-485z" />
<glyph unicode="c" horiz-adv-x="1069" d="M103 318v451q0 164 93.5 246.5t272.5 82.5h131q177 0 271.5 -83.5t94.5 -245.5v-38q0 -79 -80 -79h-125q-79 0 -79 79v64q0 73 -78 73h-139q-78 0 -78 -73v-503q0 -73 78 -73h139q78 0 78 73v65q0 79 79 79h125q80 0 80 -79v-38q0 -162 -94.5 -246t-271.5 -84h-131 q-179 0 -272.5 83t-93.5 246z" />
<glyph unicode="d" horiz-adv-x="1084" d="M103 308v461q0 164 92.5 246.5t272.5 82.5h49q107 0 167 -35v341q0 79 80 79h125q80 0 80 -79v-1325q0 -79 -79 -79h-88q-80 0 -80 79v4l-113 -45q-122 -49 -206 -49q-144 0 -222 81.5t-78 237.5zM387 317q0 -83 76 -83q31 0 68 13l153 53v499q0 33 -21 51t-59 18h-139 q-78 0 -78 -73v-478z" />
<glyph unicode="e" horiz-adv-x="1069" d="M103 318v451q0 164 93 246.5t273 82.5h130q180 0 273 -82.5t93 -246.5v-164q0 -63 -39.5 -100.5t-110.5 -37.5h-428v-180q0 -74 77 -74h140q36 0 56.5 15.5t20.5 43.5v6q0 32 21.5 50t55.5 18h131q76 0 76 -67v-8q0 -126 -95 -204t-264 -78h-137q-180 0 -273 83t-93 246z M387 655h294v147q0 36 -20 55t-57 19h-140q-36 0 -56.5 -19t-20.5 -55v-147z" />
<glyph unicode="f" horiz-adv-x="686" d="M29 932v77q0 78 79 78h71v102q0 145 89 219.5t255 74.5h91q79 0 79 -79v-66q0 -43 -19 -62.5t-60 -19.5h-85q-66 0 -66 -61v-108h131q38 0 54.5 -18.5t16.5 -59.5v-78q0 -41 -16.5 -60t-54.5 -19h-131v-774q0 -78 -78 -78h-126q-80 0 -80 78v774h-71q-79 0 -79 80z" />
<glyph unicode="g" d="M103 356v413q0 164 93.5 246.5t272.5 82.5h134q180 0 273 -82.5t93 -246.5v-842q0 -328 -361 -328h-140q-174 0 -269 76.5t-95 208.5q0 73 77 73h130q41 0 59 -20.5t18 -68.5q0 -51 77 -51h143q76 0 76 69v232l-72 -31q-118 -49 -210 -49q-144 0 -221.5 80.5t-77.5 237.5 zM387 364q0 -43 18.5 -62.5t57.5 -19.5q28 0 68 14l153 54v445q0 73 -76 73h-144q-77 0 -77 -72v-432z" />
<glyph unicode="h" horiz-adv-x="1094" d="M114 79v1325q0 79 81 79h124q80 0 80 -79v-383l93 39q91 38 191 38q144 0 221 -83.5t77 -245.5v-690q0 -79 -80 -79h-125q-80 0 -80 79v683q0 45 -19.5 64.5t-58.5 19.5q-26 0 -65 -14l-154 -55v-698q0 -79 -79 -79h-125q-81 0 -81 79z" />
<glyph unicode="i" horiz-adv-x="522" d="M119 79q0 -79 80 -79h125q80 0 80 79v930q0 78 -80 78h-125q-80 0 -80 -78v-930zM119 1277v127q0 79 80 79h125q80 0 80 -79v-127q0 -80 -80 -80h-125q-80 0 -80 80z" />
<glyph unicode="j" horiz-adv-x="522" d="M-9 -236q0 38 19.5 58t50.5 20q58 0 58 59v1108q0 78 79 78h125q81 0 81 -78v-1099q0 -149 -89.5 -230t-253.5 -81q-31 0 -50.5 20t-19.5 58v87zM119 1277v127q0 79 79 79h125q81 0 81 -79v-127q0 -80 -81 -80h-125q-79 0 -79 80z" />
<glyph unicode="k" horiz-adv-x="1061" d="M115 79v1325q0 79 80 79h126q78 0 78 -79v-715h101l204 340q34 58 96 58h128q36 0 56 -19.5t20 -45.5q0 -19 -11 -37l-241 -409l248 -476q9 -18 9 -34q0 -27 -20.5 -46.5t-53.5 -19.5h-130q-63 0 -94 58l-211 399h-101v-378q0 -79 -78 -79h-126q-80 0 -80 79z" />
<glyph unicode="l" horiz-adv-x="520" d="M119 79v1325q0 79 78 79h126q79 0 79 -79v-1325q0 -79 -79 -79h-126q-78 0 -78 79z" />
<glyph unicode="m" horiz-adv-x="1651" d="M115 79v930q0 78 80 78h81q79 0 79 -78v-2l125 52q95 39 189 39q156 0 233 -98l146 61q89 37 191 37q143 0 221 -84t78 -245v-690q0 -79 -81 -79h-125q-79 0 -79 79v683q0 84 -80 84q-29 0 -65 -14l-139 -51v-12v-690q0 -79 -81 -79h-125q-79 0 -79 79v683q0 84 -80 84 q-27 0 -64 -14l-141 -51v-702q0 -79 -78 -79h-126q-80 0 -80 79z" />
<glyph unicode="n" horiz-adv-x="1094" d="M115 70v947q0 31 19.5 50.5t51.5 19.5h98q32 0 52 -19.5t20 -50.5v-13l136 56q94 38 191 38q144 0 221 -83.5t77 -245.5v-699q0 -31 -20 -50.5t-51 -19.5h-143q-31 0 -50.5 19.5t-19.5 50.5v692q0 84 -79 84q-31 0 -65 -14l-154 -55v-707q0 -31 -19.5 -50.5t-50.5 -19.5 h-143q-31 0 -51 19.5t-20 50.5z" />
<glyph unicode="o" d="M103 318v451q0 164 93 246.5t273 82.5h134q180 0 273 -82.5t93 -246.5v-451q0 -163 -93 -246t-273 -83h-134q-180 0 -273 83t-93 246zM387 292q0 -36 20.5 -54.5t56.5 -18.5h144q77 0 77 73v503q0 73 -77 73h-144q-36 0 -56.5 -18.5t-20.5 -54.5v-503z" />
<glyph unicode="p" horiz-adv-x="1084" d="M114 -310v1319q0 78 81 78h81q80 0 80 -78v-5l136 56q94 38 192 38q143 0 220 -83.5t77 -245.5v-451q0 -163 -93 -246t-273 -83h-48q-109 0 -168 34v-333q0 -81 -79 -81h-125q-81 0 -81 81zM399 288q0 -33 21.5 -51t59.5 -18h138q79 0 79 73v470q0 84 -79 84 q-33 0 -65 -13l-154 -56v-489z" />
<glyph unicode="q" horiz-adv-x="1082" d="M103 308v461q0 164 93.5 246.5t272.5 82.5h134q179 0 272.5 -82.5t93.5 -246.5v-1083q0 -37 -19.5 -57t-56.5 -20h-131q-37 0 -57.5 20t-20.5 57v385l-70 -30q-124 -52 -211 -52q-144 0 -222 80.5t-78 238.5zM387 317q0 -44 18.5 -63.5t57.5 -19.5q32 0 67 13l154 53v495 q0 73 -76 73h-144q-77 0 -77 -72v-479z" />
<glyph unicode="r" horiz-adv-x="740" d="M115 79v930q0 78 80 78h86q80 0 80 -78v-16l73 48q88 57 184 57h14q33 0 52.5 -20t19.5 -59v-107q0 -39 -19.5 -59t-52.5 -20h-10q-86 0 -150 -26l-73 -29v-699q0 -79 -80 -79h-124q-80 0 -80 79z" />
<glyph unicode="s" horiz-adv-x="1050" d="M101 282v12q0 70 71 70h142q32 0 52 -17.5t20 -52.5v-23q0 -64 76 -64h130q74 0 74 64v79q0 48 -61 62l-217 50q-148 33 -215.5 103t-67.5 195v19q0 155 93 237t267 82h124q178 0 267.5 -75.5t89.5 -210.5v-10q0 -70 -70 -70h-142q-32 0 -52 17.5t-20 52.5v15 q0 65 -76 65h-125q-34 0 -52.5 -17t-18.5 -48v-73q0 -43 58 -57l217 -48q151 -33 218 -105t67 -201v-25q0 -155 -93 -237t-270 -82h-129q-179 0 -268 76.5t-89 216.5z" />
<glyph unicode="t" horiz-adv-x="729" d="M23 930v79q0 78 80 78h69v237q0 80 79 80h124q81 0 81 -80v-237h148q81 0 81 -78v-79q0 -78 -81 -78h-148v-567q0 -53 55 -53h93q81 0 81 -79v-75q0 -78 -81 -78h-112q-320 0 -320 285v567h-69q-80 0 -80 78z" />
<glyph unicode="u" horiz-adv-x="1093" d="M113 308v701q0 78 81 78h125q79 0 79 -78v-692q0 -44 18.5 -63.5t57.5 -19.5q30 0 67 13l154 53v709q0 78 78 78h127q79 0 79 -78v-931q0 -78 -79 -78h-91q-79 0 -79 78v5l-107 -44q-122 -50 -211 -50q-143 0 -221 81t-78 238z" />
<glyph unicode="v" horiz-adv-x="1030" d="M37 1020q0 30 20 48.5t56 18.5h131q69 0 87 -73l125 -510q23 -94 60 -290q39 206 60 290l125 510q17 73 87 73h130q36 0 56.5 -18.5t20.5 -48.5q0 -14 -3 -26l-254 -928q-10 -37 -30.5 -53t-58.5 -16h-267q-37 0 -57 16t-31 53l-254 929q-3 9 -3 25z" />
<glyph unicode="w" horiz-adv-x="1568" d="M41 1021q0 30 19.5 48t58.5 18h118q71 0 85 -70l96 -507q48 -251 55 -293q21 145 50 293l99 508q14 69 86 69h153q71 0 85 -69l98 -501q33 -163 54 -300q32 188 54 300l96 500q14 70 82 70h119q39 0 58.5 -18t19.5 -48q0 -20 -2 -26l-214 -928q-16 -70 -84 -70h-230 q-68 0 -84 70l-74 330q-27 120 -54 344q-29 -222 -56 -344l-73 -330q-15 -70 -89 -70h-225q-69 0 -84 70l-214 929q-3 10 -3 25z" />
<glyph unicode="x" horiz-adv-x="1001" d="M57 66q0 14 9 34l225 457l-224 429q-10 19 -10 36q0 28 18 46.5t57 18.5h125q60 0 92 -61l152 -289l154 289q32 61 90 61h125q39 0 56.5 -18.5t17.5 -46.5q0 -17 -10 -36l-223 -429l224 -458q9 -18 9 -33q0 -28 -18 -47t-56 -19h-119q-65 0 -96 61l-154 301l-155 -301 q-31 -61 -96 -61h-118q-38 0 -56.5 19t-18.5 47z" />
<glyph unicode="y" horiz-adv-x="1050" d="M36 1021q0 30 16.5 48t50.5 18h138q38 0 58.5 -17.5t29.5 -54.5l130 -529q32 -130 67 -310q39 206 65 309l131 530q9 36 29 54t58 18h127q79 0 79 -66q0 -13 -4 -26l-287 -1002q-55 -189 -188.5 -291.5t-332.5 -102.5q-80 0 -80 78v87q0 77 80 77q184 0 260 159h-70 q-70 0 -89 64l-264 931q-4 12 -4 26z" />
<glyph unicode="z" horiz-adv-x="947" d="M73 79v92q0 48 23 79l439 596h-380q-77 0 -77 79v84q0 78 80 78h620q80 0 80 -78v-93q0 -48 -23 -79l-439 -596h398q81 0 81 -79v-83q0 -79 -81 -79h-642q-79 0 -79 79z" />
<glyph unicode="{" horiz-adv-x="704" d="M32 635v37q0 79 81 79h12q116 1 116 130v435q0 153 80.5 217t229.5 64h69q41 0 61 -17t20 -56v-37q0 -78 -81 -78h-64q-41 0 -62.5 -24t-21.5 -69v-429q0 -99 -39.5 -156.5t-125.5 -76.5q87 -19 126 -76.5t39 -161.5v-430q0 -89 84 -89h64q81 0 81 -79v-30q0 -79 -81 -79 h-69q-310 0 -310 285v425q0 73 -32.5 105t-83.5 32h-12q-81 0 -81 79z" />
<glyph unicode="|" horiz-adv-x="404" d="M96 -311v1821q0 80 80 80h54q79 0 79 -80v-1821q0 -79 -79 -79h-54q-80 0 -80 79z" />
<glyph unicode="}" horiz-adv-x="704" d="M4 -182q0 79 80 79h64q85 0 85 89v430q0 104 39 161.5t126 76.5q-86 19 -125.5 76.5t-39.5 156.5v429q0 44 -22 68.5t-63 24.5h-64q-80 0 -80 78v37q0 39 19.5 56t60.5 17h70q149 0 229.5 -64t80.5 -217v-435q0 -129 115 -130h12q81 0 81 -79v-37q0 -79 -81 -79h-12 q-51 0 -83 -32t-32 -105v-425q0 -285 -310 -285h-70q-80 0 -80 79v30z" />
<glyph unicode="~" horiz-adv-x="962" d="M73 607v24q0 102 68 165t180 63q73 0 149 -46l122 -72q24 -14 43 -14q46 0 46 44v14q0 75 77 75h55q77 0 77 -75v-24q0 -102 -68 -165.5t-180 -63.5q-82 0 -150 43l-122 77q-20 14 -42 14t-34.5 -12.5t-12.5 -33.5v-12q0 -76 -75 -76h-58q-75 0 -75 75z" />
<glyph unicode="&#xa1;" horiz-adv-x="615" d="M142 895v106q0 43 24 66t68 23h148q44 0 68 -23t24 -66v-106q0 -43 -24 -66t-68 -23h-148q-44 0 -68 23t-24 66zM166 -236v850q0 79 81 79h122q82 0 82 -79v-850q0 -79 -82 -79h-122q-81 0 -81 79z" />
<glyph unicode="&#xa2;" horiz-adv-x="1026" d="M94 311v466q0 143 74 223t216 95v110q0 78 77 78h104q78 0 78 -78v-110q141 -15 215.5 -96t74.5 -222v-46q0 -37 -21.5 -58t-58.5 -21h-115q-37 0 -58.5 21t-21.5 58v72q0 68 -69 68h-151q-69 0 -69 -68v-519q0 -68 69 -68h151q69 0 69 68v72q0 80 79 80h116q80 0 80 -79 v-46q0 -141 -74.5 -222.5t-215.5 -96.5v-123q0 -77 -78 -77h-104q-77 0 -77 77v123q-290 31 -290 319z" />
<glyph unicode="&#xa3;" horiz-adv-x="1131" d="M83 81v79q0 81 83 81h58v314h-64q-77 0 -77 76v52q0 76 77 76h64v282q0 172 101 268t280 96h61q178 0 278.5 -96t100.5 -268v-34q0 -37 -20.5 -57.5t-57.5 -20.5h-127q-38 0 -58.5 20.5t-20.5 57.5v47q0 102 -95 102h-61q-96 0 -96 -102v-295h254q76 0 76 -76v-52 q0 -76 -76 -76h-254v-314h455q81 0 81 -81v-79q0 -81 -81 -81h-798q-83 0 -83 81z" />
<glyph unicode="&#xa4;" horiz-adv-x="1036" d="M110 396q0 25 18 43l102 101q-17 42 -17 94v124q0 52 17 94l-102 103q-18 17 -18 42q0 24 18 42l49 49q16 16 41 16t42 -16l103 -102q40 18 97 18h118q56 0 96 -18l103 102q19 17 42 17q24 0 43 -17l49 -49q17 -19 17 -42t-17 -42l-104 -103q17 -42 17 -94v-124 q0 -52 -17 -94l104 -101q17 -19 17 -43q0 -25 -17 -42l-49 -49q-19 -17 -42 -17q-24 0 -43 17l-102 102q-43 -19 -97 -19h-118q-54 0 -98 19l-102 -102q-17 -17 -42 -17t-41 17l-49 49q-18 18 -18 42zM411 634q0 -49 50 -49h117q49 0 49 49v124q0 48 -49 48h-117 q-50 0 -50 -48v-124z" />
<glyph unicode="&#xa5;" horiz-adv-x="1148" d="M87 1327q0 26 20 46.5t55 20.5h123q62 0 87 -60l202 -498l203 498q24 60 88 60h121q35 0 55.5 -20.5t20.5 -46.5q0 -15 -10 -35l-267 -537h184q33 0 47.5 -14.5t14.5 -46.5v-45q0 -32 -14.5 -47t-47.5 -15h-253v-107h253q33 0 47.5 -14.5t14.5 -46.5v-45 q0 -32 -14.5 -46.5t-47.5 -14.5h-253v-233q0 -81 -81 -81h-121q-82 0 -82 81v233h-254q-32 0 -46 14.5t-14 46.5v45q0 32 14 46.5t46 14.5h254v107h-254q-32 0 -46 14.5t-14 47.5v45q0 32 14 46.5t46 14.5h185l-267 537q-9 17 -9 35z" />
<glyph unicode="&#xa6;" horiz-adv-x="400" d="M96 -143q0 -77 78 -77h52q78 0 78 77v622q0 77 -78 77h-52q-78 0 -78 -77v-622zM96 890v622q0 78 78 78h52q78 0 78 -78v-622q0 -77 -78 -77h-52q-78 0 -78 77z" />
<glyph unicode="&#xa7;" horiz-adv-x="1255" d="M139 9q0 81 82 81h129q81 0 81 -81v-64q0 -104 110 -104h174q110 0 110 104v69q0 50 -21.5 78t-72.5 45l-494 157q-34 12 -49.5 35.5t-15.5 68.5v79q0 40 19.5 60.5t52.5 20.5q17 0 38 -6l553 -177q150 -48 215.5 -135.5t65.5 -234.5v-31q0 -186 -104 -280.5t-305 -94.5 h-157q-201 0 -306 96.5t-105 282.5v31zM141 993v38q0 184 105.5 279t306.5 95h148q203 0 308 -93.5t105 -279.5v-37q0 -80 -81 -80h-129q-81 0 -81 80v63q0 104 -110 104h-170q-110 0 -110 -103v-68q0 -51 21.5 -79.5t71.5 -44.5l494 -157q34 -11 49.5 -34.5t15.5 -68.5v-80 q0 -39 -19.5 -60.5t-52.5 -21.5q-15 0 -39 7l-552 177q-146 46 -213.5 134t-67.5 230z" />
<glyph unicode="&#xa8;" horiz-adv-x="844" d="M81 1326v53q0 51 29 79.5t83 28.5h60q53 0 82 -28.5t29 -79.5v-53q0 -51 -29 -79t-82 -28h-60q-54 0 -83 28t-29 79zM480 1326v53q0 51 28.5 79.5t82.5 28.5h61q53 0 82 -28.5t29 -79.5v-53q0 -51 -29 -79t-82 -28h-61q-54 0 -82.5 28t-28.5 79z" />
<glyph unicode="&#xa9;" horiz-adv-x="1583" d="M102 602v190q0 278 178 445.5t471 167.5h79q295 0 473.5 -167t178.5 -446v-190q0 -279 -178.5 -446t-473.5 -167h-79q-293 0 -471 167.5t-178 445.5zM326 602q0 -191 112 -299.5t313 -108.5h79q203 0 315.5 108.5t112.5 299.5v190q0 190 -112.5 299t-315.5 109h-79 q-201 0 -313 -109t-112 -299v-190zM471 604q0 -264 282 -264h75q138 0 210 65t72 180v7q0 51 -65 51h-85q-64 0 -64 -51v-5q0 -55 -63 -55h-85q-28 0 -45.5 17t-17.5 47v202q0 29 17.5 46t45.5 17h85q63 0 63 -55v-4q0 -51 64 -51h85q65 0 65 51v6q0 116 -72 181.5 t-210 65.5h-75q-282 0 -282 -267v-184z" />
<glyph unicode="&#xaa;" horiz-adv-x="742" d="M80 864v60q0 82 58 129.5t173 47.5h160v109q0 44 -45 44h-94q-45 0 -45 -39q0 -54 -46 -54h-98q-20 0 -33 13.5t-13 35.5q0 89 62.5 141.5t167.5 52.5h104q108 0 169.5 -54.5t61.5 -153.5v-468q0 -19 -13.5 -31.5t-32.5 -12.5h-84q-20 0 -33 10t-13 27v9l-76 -27 q-71 -26 -131 -26q-92 0 -145.5 49.5t-53.5 137.5zM272 852q0 -39 44 -39q12 0 30 4l125 35v123h-153q-46 0 -46 -40v-83z" />
<glyph unicode="&#xab;" horiz-adv-x="1070" d="M61 571q0 35 16 70l141 297q33 75 105 75h95q39 0 59 -19.5t20 -52.5q0 -18 -9 -41l-145 -329l145 -330q9 -21 9 -41q0 -71 -79 -71h-95q-73 0 -105 74l-142 300q-15 36 -15 68zM538 571q0 31 16 70l142 297q33 75 104 75h95q39 0 59 -19.5t20 -52.5q0 -15 -8 -41 l-145 -329l145 -330q8 -22 8 -41q0 -71 -79 -71h-95q-73 0 -104 74l-142 300q-16 34 -16 68z" />
<glyph unicode="&#xac;" horiz-adv-x="942" d="M49 722v56q0 80 78 80h688q79 0 79 -80v-366q0 -78 -79 -78h-56q-81 0 -81 78v231h-551q-78 0 -78 79z" />
<glyph unicode="&#xad;" horiz-adv-x="644" d="M91 514v91q0 79 80 79h303q79 0 79 -79v-91q0 -80 -79 -80h-303q-80 0 -80 80z" />
<glyph unicode="&#xae;" horiz-adv-x="1024" d="M94 896v172q0 161 94.5 249t268.5 88h112q174 0 269 -88t95 -249v-172q0 -160 -95 -249t-269 -89h-112q-174 0 -268.5 89t-94.5 249zM216 896q0 -227 241 -227h112q241 0 241 227v172q0 227 -241 227h-112q-241 0 -241 -227v-172zM342 790v382q0 35 36 35h176 q67 0 107 -35t40 -97v-19q0 -41 -22 -69.5t-59 -36.5q81 -9 81 -109v-51q0 -34 -35 -34h-42q-34 0 -34 34v75q0 34 -36 34h-101v-109q0 -34 -34 -34h-43q-34 0 -34 34zM453 998h101q36 0 36 35v39q0 34 -36 34h-101v-108z" />
<glyph unicode="&#xaf;" horiz-adv-x="833" d="M110 1317v48q0 82 85 82h445q84 0 84 -82v-48q0 -81 -84 -81h-445q-85 0 -85 81z" />
<glyph unicode="&#xb0;" horiz-adv-x="663" d="M76 1053v123q0 104 64.5 166.5t182.5 62.5h94q117 0 181.5 -62.5t64.5 -166.5v-123q0 -105 -64.5 -168.5t-181.5 -63.5h-94q-118 0 -182.5 63.5t-64.5 168.5zM275 1041q0 -42 36 -42h117q37 0 37 42v146q0 38 -37 38h-117q-36 0 -36 -39v-145z" />
<glyph unicode="&#xb1;" horiz-adv-x="950" d="M52 210v55q0 81 79 81h688q80 0 80 -81v-55q0 -80 -80 -80h-688q-79 0 -79 80zM52 839v55q0 81 79 81h236v235q0 79 80 79h56q80 0 80 -79v-235h236q80 0 80 -81v-55q0 -80 -80 -80h-236v-237q0 -78 -80 -78h-56q-80 0 -80 78v237h-236q-79 0 -79 80z" />
<glyph unicode="&#xb2;" horiz-adv-x="732" d="M70 848v132q0 88 36 136t129 85l184 73q23 9 31.5 24.5t8.5 42.5v44q0 50 -56 50h-79q-56 0 -56 -50v-27q0 -59 -64 -59h-71q-63 0 -63 59v14q0 112 64.5 174t194.5 62h69q130 0 194.5 -62.5t64.5 -174.5v-34q0 -85 -38.5 -134.5t-128.5 -84.5l-183 -72q-37 -15 -37 -65 v-21h328q64 0 64 -59v-54q0 -59 -64 -59h-464q-64 0 -64 60z" />
<glyph unicode="&#xb3;" horiz-adv-x="734" d="M68 1012v15q0 59 63 59h71q64 0 64 -59v-26q0 -49 53 -49h97q56 0 56 49v59q0 29 -12.5 42t-43.5 13h-78q-63 0 -63 60v46q0 59 63 59h61q30 0 41.5 13t11.5 42v51q0 49 -53 49h-79q-53 0 -53 -49v-19q0 -59 -64 -59h-71q-30 0 -46.5 15t-16.5 38v14q0 233 257 233h68 q256 0 256 -222v-14q0 -142 -123 -172q67 -11 103.5 -56.5t36.5 -120.5v-16q0 -228 -257 -228h-85q-257 0 -257 233z" />
<glyph unicode="&#xb4;" horiz-adv-x="825" d="M236 1260q0 25 11 47l77 166q28 59 99 59h104q72 0 72 -60q0 -24 -14 -49l-91 -169q-28 -54 -96 -54h-96q-32 0 -49 16t-17 44z" />
<glyph unicode="&#xb6;" horiz-adv-x="1424" d="M93 783v232q0 379 404 379h286q82 0 82 -81v-1623q0 -80 -82 -80h-63q-82 0 -82 80v712h-141q-404 0 -404 381zM383 753q0 -58 25 -84t78 -26h152v510h-152q-53 0 -78 -25.5t-25 -82.5v-292zM1004 -310v1623q0 81 81 81h64q81 0 81 -81v-1623q0 -80 -81 -80h-64 q-81 0 -81 80z" />
<glyph unicode="&#xb7;" horiz-adv-x="548" d="M108 560v137q0 43 24 66t68 23h149q92 0 92 -89v-137q0 -89 -92 -89h-149q-44 0 -68 23t-24 66z" />
<glyph unicode="&#xb8;" horiz-adv-x="795" d="M201 -317q0 28 18.5 45.5t51.5 17.5h141q14 0 14 13v31q0 13 -14 13h-71q-34 0 -52.5 17t-18.5 45v26q0 29 18.5 46t52.5 17h71q94 0 138 -41.5t44 -124.5v-28q0 -83 -44 -124.5t-138 -41.5h-141q-33 0 -51.5 17.5t-18.5 45.5v26z" />
<glyph unicode="&#xb9;" horiz-adv-x="652" d="M55 847v54q0 59 63 59h105v467h-105q-63 0 -63 59v53q0 59 63 59h258q53 0 53 -49v-589h105q64 0 64 -59v-59q0 -54 -64 -54h-416q-63 0 -63 59z" />
<glyph unicode="&#xba;" horiz-adv-x="749" d="M80 884v312q0 98 62 153t169 55h127q107 0 168.5 -55t61.5 -153v-312q0 -97 -61.5 -152t-168.5 -55h-127q-106 0 -168.5 55t-62.5 152zM271 884q0 -19 12 -31t32 -12h118q20 0 32.5 12t12.5 31v312q0 19 -12.5 30.5t-32.5 11.5h-118q-20 0 -32 -11.5t-12 -30.5v-312z" />
<glyph unicode="&#xbb;" horiz-adv-x="1070" d="M96 200q0 19 8 41l145 330l-145 329q-8 26 -8 41q0 33 20 52.5t59 19.5h96q36 0 60.5 -17t42.5 -58l142 -297q16 -39 16 -70q0 -34 -16 -68l-142 -300q-31 -74 -103 -74h-96q-79 0 -79 71zM573 200q0 20 9 41l145 330l-145 329q-9 23 -9 41q0 33 20 52.5t59 19.5h96 q71 0 104 -75l141 -297q16 -35 16 -70q0 -32 -15 -68l-142 -300q-32 -74 -104 -74h-96q-79 0 -79 71z" />
<glyph unicode="&#xbc;" horiz-adv-x="1695" d="M55 643v54q0 59 63 59h105v467h-105q-63 0 -63 59v53q0 59 63 59h258q53 0 53 -49v-589h105q64 0 64 -59v-59q0 -53 -64 -53h-416q-63 0 -63 58zM415 40q0 14 6 30l562 1277q15 33 31.5 45.5t55.5 12.5h58q26 0 41 -14t15 -37q0 -13 -7 -31l-561 -1275q-15 -32 -32 -45.5 t-53 -13.5h-58q-28 0 -43 14t-15 37zM992 302q0 14 2 23l80 435q9 50 65 50h71q29 0 46 -15t17 -36q0 -11 -2 -19l-67 -353h155v363q0 60 63 60h73q64 0 64 -60v-363h35q64 0 64 -58v-46q0 -59 -64 -59h-35v-165q0 -59 -64 -59h-73q-63 0 -63 59v165h-274q-40 0 -66.5 22.5 t-26.5 55.5z" />
<glyph unicode="&#xbd;" horiz-adv-x="1678" d="M55 643v54q0 59 63 59h105v467h-105q-63 0 -63 59v53q0 59 63 59h258q53 0 53 -49v-589h105q64 0 64 -59v-59q0 -53 -64 -53h-416q-63 0 -63 58zM415 40q0 14 6 30l562 1277q15 33 31.5 45.5t55.5 12.5h58q26 0 41 -14t15 -37q0 -13 -7 -31l-561 -1275q-15 -32 -32 -45.5 t-53 -13.5h-58q-28 0 -43 14t-15 37zM1016 60v131q0 88 36 136.5t129 85.5l184 73q23 9 31.5 24t8.5 42v44q0 51 -56 51h-78q-26 0 -41.5 -13t-15.5 -38v-27q0 -59 -64 -59h-71q-63 0 -63 59v15q0 112 65 173.5t195 61.5h68q130 0 194.5 -62t64.5 -174v-34q0 -85 -38.5 -135 t-128.5 -85l-182 -71q-38 -15 -38 -65v-21h329q64 0 64 -59v-54q0 -59 -64 -59h-465q-64 0 -64 60z" />
<glyph unicode="&#xbe;" horiz-adv-x="1777" d="M68 808v15q0 59 63 59h71q64 0 64 -59v-26q0 -49 53 -49h97q56 0 56 49v59q0 29 -12.5 42t-43.5 13h-78q-63 0 -63 60v46q0 59 63 59h61q30 0 41.5 13t11.5 42v51q0 49 -53 49h-79q-53 0 -53 -49v-19q0 -59 -64 -59h-71q-30 0 -46.5 15t-16.5 38v14q0 233 257 233h68 q256 0 256 -222v-14q0 -142 -123 -172q67 -11 103.5 -56.5t36.5 -120.5v-16q0 -228 -257 -228h-85q-257 0 -257 233zM497 40q0 14 6 30l562 1277q15 33 31.5 45.5t55.5 12.5h58q26 0 41 -14t15 -37q0 -13 -7 -31l-561 -1275q-15 -32 -32 -45.5t-53 -13.5h-58q-28 0 -43 14 t-15 37zM1073 302q0 10 3 23l80 435q9 50 65 50h71q29 0 46 -15t17 -36q0 -11 -2 -19l-67 -353h154v363q0 60 64 60h73q64 0 64 -60v-363h35q64 0 64 -58v-46q0 -59 -64 -59h-35v-165q0 -59 -64 -59h-73q-64 0 -64 59v165h-273q-40 0 -67 22.5t-27 55.5z" />
<glyph unicode="&#xbf;" horiz-adv-x="1005" d="M72 -33v77q0 106 36 170.5t112 102.5l95 48q38 19 49.5 43.5t11.5 75.5v47q0 78 81 78h119q82 0 82 -78v-89q0 -102 -34 -162.5t-113 -101.5l-88 -45q-36 -18 -48.5 -44t-12.5 -74v-76q0 -103 102 -103h102q103 0 103 103v70q0 80 83 80h124q83 0 83 -80v-42 q0 -178 -103 -272t-301 -94h-79q-198 0 -301 94t-103 272zM351 815v106q0 88 91 88h149q92 0 92 -88v-106q0 -43 -24 -66t-68 -23h-149q-91 0 -91 89z" />
<glyph unicode="&#xc0;" horiz-adv-x="1257" d="M56 69q0 -30 20 -49.5t59 -19.5h118q71 0 93 73l65 225h436l65 -224q23 -74 93 -74h119q38 0 57.5 20t19.5 49q0 13 -4 25l-353 1226q-21 74 -93 74h-242q-71 0 -94 -74l-354 -1227q-5 -15 -5 -24zM384 1755q0 60 71 60h105q73 0 99 -59l71 -156q12 -27 12 -48 q0 -28 -16.5 -44t-48.5 -16h-97q-68 0 -96 53l-86 161q-14 25 -14 49zM469 529l75 259q53 180 85 339q28 -143 85 -339l74 -259h-319z" />
<glyph unicode="&#xc1;" horiz-adv-x="1257" d="M56 69q0 -30 20 -49.5t59 -19.5h118q71 0 93 73l65 225h436l65 -224q23 -74 93 -74h119q38 0 57.5 20t19.5 49q0 13 -4 25l-353 1226q-21 74 -93 74h-242q-71 0 -94 -74l-354 -1227q-5 -15 -5 -24zM469 529l75 259q53 180 85 339q28 -143 85 -339l74 -259h-319zM521 1552 q0 24 12 48l72 156q28 59 99 59h104q72 0 72 -60q0 -24 -14 -49l-86 -161q-28 -53 -97 -53h-96q-32 0 -49 16t-17 44z" />
<glyph unicode="&#xc2;" horiz-adv-x="1257" d="M56 69q0 -30 20 -49.5t59 -19.5h118q71 0 93 73l65 225h436l65 -224q23 -74 93 -74h119q38 0 57.5 20t19.5 49q0 13 -4 25l-353 1226q-21 74 -93 74h-242q-71 0 -94 -74l-354 -1227q-5 -15 -5 -24zM301 1566v54q0 35 12 52t38 30l219 105q26 12 58 12q31 0 57 -12 l221 -105q49 -23 49 -82v-54q0 -30 -16.5 -49.5t-46.5 -19.5q-16 0 -32 6l-232 107l-232 -107q-15 -6 -36 -6q-26 0 -42.5 20t-16.5 49zM469 529l75 259q53 180 85 339q28 -143 85 -339l74 -259h-319z" />
<glyph unicode="&#xc3;" horiz-adv-x="1257" d="M56 69q0 -30 20 -49.5t59 -19.5h118q71 0 93 73l65 225h436l65 -224q23 -74 93 -74h119q38 0 57.5 20t19.5 49q0 13 -4 25l-353 1226q-21 74 -93 74h-242q-71 0 -94 -74l-354 -1227q-5 -15 -5 -24zM244 1576v22q0 95 64 153.5t172 58.5q65 0 139 -42l117 -68 q18 -11 36 -11q40 0 40 39v13q0 70 75 70h53q75 0 75 -70v-22q0 -95 -64 -153.5t-172 -58.5q-77 0 -139 38l-118 72q-16 11 -36 11q-41 0 -41 -40v-11q0 -71 -73 -71h-55q-73 0 -73 70zM469 529l75 259q53 180 85 339q28 -143 85 -339l74 -259h-319z" />
<glyph unicode="&#xc4;" horiz-adv-x="1257" d="M56 69q0 -30 20 -49.5t59 -19.5h118q71 0 93 73l65 225h436l65 -224q23 -74 93 -74h119q38 0 57.5 20t19.5 49q0 13 -4 25l-353 1226q-21 74 -93 74h-242q-71 0 -94 -74l-354 -1227q-5 -15 -5 -24zM288 1633v53q0 51 28.5 79.5t82.5 28.5h61q53 0 82 -28.5t29 -79.5v-53 q0 -51 -29 -79t-82 -28h-61q-54 0 -82.5 28t-28.5 79zM469 529l75 259q53 180 85 339q28 -143 85 -339l74 -259h-319zM686 1633v53q0 51 29 79.5t83 28.5h60q53 0 82 -28.5t29 -79.5v-53q0 -51 -29 -79t-82 -28h-60q-54 0 -83 28t-29 79z" />
<glyph unicode="&#xc5;" horiz-adv-x="1257" d="M56 69q0 -30 20 -49.5t59 -19.5h118q71 0 93 73l65 225h436l65 -224q23 -74 93 -74h119q38 0 57.5 20t19.5 49q0 13 -4 25l-353 1226q-21 74 -93 74h-242q-71 0 -94 -74l-354 -1227q-5 -15 -5 -24zM415 1632v50q0 163 183 163h62q184 0 184 -163v-50q0 -163 -184 -163 h-62q-183 0 -183 163zM469 529l75 259q53 180 85 339q28 -143 85 -339l74 -259h-319zM566 1627q0 -26 26 -26h74q26 0 26 26v60q0 27 -26 27h-74q-26 0 -26 -27v-60z" />
<glyph unicode="&#xc6;" horiz-adv-x="1698" d="M0 65q0 13 5 28l432 1227q25 74 97 74h950q82 0 82 -81v-78q0 -82 -82 -82h-437v-327h437q82 0 82 -82v-78q0 -81 -82 -81h-437v-344h437q82 0 82 -81v-80q0 -80 -82 -80h-648q-83 0 -83 80v208h-378l-84 -223q-25 -65 -86 -65h-128q-37 0 -57 19t-20 46zM448 519h305 v634h-75z" />
<glyph unicode="&#xc7;" horiz-adv-x="1245" d="M122 373v648q0 191 106 287.5t310 96.5h169q205 0 310.5 -96.5t105.5 -287.5v-70q0 -81 -83 -81h-129q-82 0 -82 81v94q0 111 -110 111h-192q-111 0 -111 -111v-696q0 -111 111 -111h192q110 0 110 111v95q0 81 82 81h129q83 0 83 -81v-71q0 -191 -105.5 -287.5 t-310.5 -96.5h-169q-204 0 -310 96.5t-106 287.5zM417 -317q0 28 18.5 45.5t52.5 17.5h141q14 0 14 13v31q0 13 -14 13h-71q-34 0 -53 17t-19 45v26q0 29 19 46t53 17h71q94 0 138 -41.5t44 -124.5v-28q0 -83 -44 -124.5t-138 -41.5h-141q-34 0 -52.5 17.5t-18.5 45.5v26z " />
<glyph unicode="&#xc8;" horiz-adv-x="1088" d="M143 80v1235q0 79 81 79h648q83 0 83 -81v-78q0 -82 -83 -82h-436v-327h436q83 0 83 -82v-78q0 -81 -83 -81h-436v-344h436q83 0 83 -81v-80q0 -80 -83 -80h-648q-81 0 -81 80zM304 1755q0 60 71 60h105q73 0 99 -59l71 -156q12 -27 12 -48q0 -28 -17 -44t-49 -16h-96 q-68 0 -96 53l-87 161q-13 23 -13 49z" />
<glyph unicode="&#xc9;" horiz-adv-x="1088" d="M143 80v1235q0 79 81 79h648q83 0 83 -81v-78q0 -82 -83 -82h-436v-327h436q83 0 83 -82v-78q0 -81 -83 -81h-436v-344h436q83 0 83 -81v-80q0 -80 -83 -80h-648q-81 0 -81 80zM428 1552q0 24 12 48l72 156q28 59 99 59h104q72 0 72 -60q0 -24 -14 -49l-86 -161 q-28 -53 -97 -53h-96q-32 0 -49 16t-17 44z" />
<glyph unicode="&#xca;" horiz-adv-x="1088" d="M143 80v1235q0 79 81 79h648q83 0 83 -81v-78q0 -82 -83 -82h-436v-327h436q83 0 83 -82v-78q0 -81 -83 -81h-436v-344h436q83 0 83 -81v-80q0 -80 -83 -80h-648q-81 0 -81 80zM221 1566v54q0 35 12 52t38 30l219 105q26 12 58 12q31 0 57 -12l221 -105q49 -23 49 -82 v-54q0 -30 -16.5 -49.5t-46.5 -19.5q-16 0 -32 6l-232 107l-232 -107q-15 -6 -36 -6q-26 0 -42.5 20t-16.5 49z" />
<glyph unicode="&#xcb;" horiz-adv-x="1088" d="M143 80v1235q0 79 81 79h648q83 0 83 -81v-78q0 -82 -83 -82h-436v-327h436q83 0 83 -82v-78q0 -81 -83 -81h-436v-344h436q83 0 83 -81v-80q0 -80 -83 -80h-648q-81 0 -81 80zM207 1633v53q0 51 29 79.5t83 28.5h61q53 0 82 -28.5t29 -79.5v-53q0 -51 -29 -79t-82 -28 h-61q-54 0 -83 28t-29 79zM606 1633v53q0 51 29 79.5t83 28.5h60q53 0 82 -28.5t29 -79.5v-53q0 -51 -29 -79t-82 -28h-60q-54 0 -83 28t-29 79z" />
<glyph unicode="&#xcc;" horiz-adv-x="588" d="M49 1755q0 60 70 60h105q73 0 99 -59l72 -156q12 -27 12 -48q0 -28 -17 -44t-49 -16h-96q-69 0 -97 53l-86 161q-13 23 -13 49zM149 80q0 -80 82 -80h130q82 0 82 80v1233q0 81 -82 81h-130q-82 0 -82 -81v-1233z" />
<glyph unicode="&#xcd;" horiz-adv-x="588" d="M146 80q0 -80 82 -80h130q81 0 81 80v1233q0 81 -81 81h-130q-82 0 -82 -81v-1233zM177 1552q0 24 12 48l71 156q28 59 99 59h104q72 0 72 -60q0 -24 -14 -49l-86 -161q-28 -53 -97 -53h-96q-32 0 -48.5 16t-16.5 44z" />
<glyph unicode="&#xce;" horiz-adv-x="600" d="M-26 1566v54q0 35 12 52t37 30l219 105q26 12 58 12t58 -12l221 -105q48 -22 48 -82v-54q0 -30 -16.5 -49.5t-46.5 -19.5q-16 0 -32 6l-232 107l-232 -107q-15 -6 -36 -6q-26 0 -42 20t-16 49zM154 80q0 -80 82 -80h129q82 0 82 80v1233q0 81 -82 81h-129q-82 0 -82 -81 v-1233z" />
<glyph unicode="&#xcf;" horiz-adv-x="598" d="M-42 1633v53q0 51 29 79.5t83 28.5h61q53 0 81.5 -28.5t28.5 -79.5v-53q0 -51 -28.5 -79t-81.5 -28h-61q-54 0 -83 28t-29 79zM153 80q0 -80 82 -80h129q82 0 82 80v1233q0 81 -82 81h-129q-82 0 -82 -81v-1233zM357 1633v53q0 51 28.5 79.5t82.5 28.5h61q53 0 82 -28.5 t29 -79.5v-53q0 -51 -29 -79t-82 -28h-61q-54 0 -82.5 28t-28.5 79z" />
<glyph unicode="&#xd0;" horiz-adv-x="1251" d="M12 668v77q0 40 17 56t58 16h80v496q0 81 82 81h465q205 0 310.5 -95.5t105.5 -286.5v-629q0 -191 -105.5 -287t-310.5 -96h-465q-82 0 -82 80v515h-80q-41 0 -58 16.5t-17 56.5zM460 241h265q111 0 111 113v688q0 111 -111 111h-265v-336h140q41 0 57.5 -16t16.5 -56 v-77q0 -41 -16.5 -57t-57.5 -16h-140v-354z" />
<glyph unicode="&#xd1;" horiz-adv-x="1273" d="M143 79v1234q0 81 83 81h156q58 0 81 -48l252 -501q89 -179 150 -329q-10 120 -10 307v492q0 79 83 79h112q81 0 81 -79v-1235q0 -80 -82 -80h-157q-56 0 -80 49l-261 523q-99 198 -142 306q10 -137 10 -306v-493q0 -79 -82 -79h-113q-81 0 -81 79zM252 1576v22 q0 95 63.5 153.5t171.5 58.5q65 0 139 -42l117 -68q18 -11 37 -11q40 0 40 39v13q0 70 74 70h54q74 0 74 -70v-22q0 -95 -63.5 -153.5t-171.5 -58.5q-77 0 -139 38l-118 72q-17 11 -36 11q-41 0 -41 -40v-11q0 -71 -73 -71h-55q-73 0 -73 70z" />
<glyph unicode="&#xd2;" horiz-adv-x="1248" d="M123 373v648q0 191 105.5 287.5t309.5 96.5h173q203 0 309 -96.5t106 -287.5v-648q0 -191 -106 -287.5t-309 -96.5h-173q-204 0 -309.5 96.5t-105.5 287.5zM378 1755q0 60 71 60h105q73 0 99 -59l71 -156q12 -27 12 -48q0 -28 -16.5 -44t-48.5 -16h-97q-68 0 -96 53 l-86 161q-14 25 -14 49zM416 349q0 -111 111 -111h195q110 0 110 111v696q0 111 -110 111h-195q-111 0 -111 -111v-696z" />
<glyph unicode="&#xd3;" horiz-adv-x="1248" d="M123 373v648q0 191 105.5 287.5t309.5 96.5h173q203 0 309 -96.5t106 -287.5v-648q0 -191 -106 -287.5t-309 -96.5h-173q-204 0 -309.5 96.5t-105.5 287.5zM416 349q0 -111 111 -111h195q110 0 110 111v696q0 111 -110 111h-195q-111 0 -111 -111v-696zM522 1552 q0 24 12 48l72 156q28 59 99 59h104q72 0 72 -60q0 -24 -14 -49l-86 -161q-28 -53 -97 -53h-96q-32 0 -49 16t-17 44z" />
<glyph unicode="&#xd4;" horiz-adv-x="1248" d="M123 373v648q0 191 105.5 287.5t309.5 96.5h173q203 0 309 -96.5t106 -287.5v-648q0 -191 -106 -287.5t-309 -96.5h-173q-204 0 -309.5 96.5t-105.5 287.5zM297 1566v54q0 35 12 52t37 30l220 105q26 12 58 12q31 0 57 -12l221 -105q49 -23 49 -82v-54q0 -30 -17 -49.5 t-47 -19.5q-14 0 -31 6l-232 107l-232 -107q-15 -6 -36 -6q-26 0 -42.5 20t-16.5 49zM416 349q0 -111 111 -111h195q110 0 110 111v696q0 111 -110 111h-195q-111 0 -111 -111v-696z" />
<glyph unicode="&#xd5;" horiz-adv-x="1248" d="M123 373v648q0 191 105.5 287.5t309.5 96.5h173q203 0 309 -96.5t106 -287.5v-648q0 -191 -106 -287.5t-309 -96.5h-173q-204 0 -309.5 96.5t-105.5 287.5zM239 1576v22q0 95 63.5 153.5t171.5 58.5q66 0 140 -42l116 -68q18 -11 37 -11q40 0 40 39v13q0 70 74 70h54 q74 0 74 -70v-22q0 -95 -63.5 -153.5t-171.5 -58.5q-77 0 -139 38l-118 72q-17 11 -36 11q-41 0 -41 -40v-11q0 -71 -73 -71h-55q-73 0 -73 70zM416 349q0 -111 111 -111h195q110 0 110 111v696q0 111 -110 111h-195q-111 0 -111 -111v-696z" />
<glyph unicode="&#xd6;" horiz-adv-x="1248" d="M123 373v648q0 191 105.5 287.5t309.5 96.5h173q203 0 309 -96.5t106 -287.5v-648q0 -191 -106 -287.5t-309 -96.5h-173q-204 0 -309.5 96.5t-105.5 287.5zM282 1633v53q0 51 29 79.5t83 28.5h61q53 0 82 -28.5t29 -79.5v-53q0 -51 -29 -79t-82 -28h-61q-54 0 -83 28 t-29 79zM416 349q0 -111 111 -111h195q110 0 110 111v696q0 111 -110 111h-195q-111 0 -111 -111v-696zM681 1633v53q0 51 29 79.5t83 28.5h60q53 0 82 -28.5t29 -79.5v-53q0 -51 -29 -79t-82 -28h-60q-54 0 -83 28t-29 79z" />
<glyph unicode="&#xd7;" horiz-adv-x="906" d="M106 474q0 29 28 57l166 166l-166 166q-28 29 -28 57t28 56l40 39q29 29 56 29q29 0 57 -28l165 -166l168 166q28 28 56 28t56 -28l40 -40q28 -28 28 -56q0 -29 -27 -56l-167 -167l167 -167q27 -27 27 -56t-28 -57l-40 -40q-28 -28 -56 -28t-56 28l-168 167l-165 -167 q-27 -27 -56 -27t-57 29l-40 39q-28 28 -28 56z" />
<glyph unicode="&#xd8;" horiz-adv-x="1251" d="M125 367v660q0 187 105.5 282.5t309.5 95.5h172q42 0 85 -5l42 102q11 26 25.5 39t41.5 13h66q27 0 41.5 -14t14.5 -36q0 -10 -6 -25l-53 -132q158 -94 158 -320v-660q0 -187 -105.5 -282.5t-309.5 -95.5h-172q-45 0 -101 7l-42 -104q-12 -28 -28 -40t-47 -12h-57 q-29 0 -43.5 14.5t-14.5 36.5q0 13 5 25l56 139q-143 93 -143 312zM405 387l300 769h-184q-55 0 -85.5 -27.5t-30.5 -78.5v-663zM529 238h201q55 0 85.5 27.5t30.5 78.5v705z" />
<glyph unicode="&#xd9;" horiz-adv-x="1269" d="M138 367v946q0 81 82 81h130q81 0 81 -81v-969q0 -52 28.5 -79t82.5 -27h186q54 0 82.5 27t28.5 79v969q0 81 82 81h129q82 0 82 -81v-946q0 -187 -105.5 -282.5t-309.5 -95.5h-164q-204 0 -309.5 95.5t-105.5 282.5zM387 1755q0 60 71 60h105q73 0 99 -59l72 -156 q12 -27 12 -48q0 -28 -17 -44t-49 -16h-96q-69 0 -97 53l-86 161q-14 25 -14 49z" />
<glyph unicode="&#xda;" horiz-adv-x="1269" d="M138 367v946q0 81 82 81h130q81 0 81 -81v-969q0 -52 28.5 -79t82.5 -27h186q54 0 82.5 27t28.5 79v969q0 81 82 81h129q82 0 82 -81v-946q0 -187 -105.5 -282.5t-309.5 -95.5h-164q-204 0 -309.5 95.5t-105.5 282.5zM522 1552q0 24 12 48l72 156q28 59 99 59h104 q72 0 72 -60q0 -24 -14 -49l-86 -161q-28 -53 -97 -53h-96q-32 0 -49 16t-17 44z" />
<glyph unicode="&#xdb;" horiz-adv-x="1269" d="M138 367v946q0 81 82 81h130q81 0 81 -81v-969q0 -52 28.5 -79t82.5 -27h186q54 0 82.5 27t28.5 79v969q0 81 82 81h129q82 0 82 -81v-946q0 -187 -105.5 -282.5t-309.5 -95.5h-164q-204 0 -309.5 95.5t-105.5 282.5zM308 1566v54q0 35 12 52t38 30l219 105q26 12 58 12 q31 0 57 -12l221 -105q49 -23 49 -82v-54q0 -30 -16.5 -49.5t-46.5 -19.5q-15 0 -32 6l-232 107l-232 -107q-15 -6 -36 -6q-26 0 -42.5 20t-16.5 49z" />
<glyph unicode="&#xdc;" horiz-adv-x="1269" d="M138 367v946q0 81 82 81h130q81 0 81 -81v-969q0 -52 28.5 -79t82.5 -27h186q54 0 82.5 27t28.5 79v969q0 81 82 81h129q82 0 82 -81v-946q0 -187 -105.5 -282.5t-309.5 -95.5h-164q-204 0 -309.5 95.5t-105.5 282.5zM294 1633v53q0 51 28.5 79.5t82.5 28.5h61 q53 0 82 -28.5t29 -79.5v-53q0 -51 -29 -79t-82 -28h-61q-54 0 -82.5 28t-28.5 79zM692 1633v53q0 51 29 79.5t83 28.5h60q53 0 82 -28.5t29 -79.5v-53q0 -51 -29 -79t-82 -28h-60q-54 0 -83 28t-29 79z" />
<glyph unicode="&#xdd;" horiz-adv-x="1116" d="M34 1329q0 27 19.5 46t58.5 19h126q67 0 91 -59l141 -330q54 -127 88 -221q46 126 88 221l141 328q26 61 92 61h126q39 0 58 -19t19 -46q0 -18 -10 -39l-367 -762v-448q0 -80 -81 -80h-130q-82 0 -82 80v447l-368 764q-10 22 -10 38zM444 1552q0 24 12 48l71 156 q28 59 99 59h104q72 0 72 -60q0 -24 -14 -49l-86 -161q-28 -53 -97 -53h-96q-32 0 -48.5 16t-16.5 44z" />
<glyph unicode="&#xde;" horiz-adv-x="1136" d="M135 81v1233q0 80 81 80h130q82 0 82 -80v-148h217q409 0 409 -375v-149q0 -376 -409 -376h-217v-186q0 -80 -82 -80h-130q-81 0 -81 81zM428 509h228q54 0 79 24.5t25 78.5v209q0 53 -25 77.5t-79 24.5h-228v-414z" />
<glyph unicode="&#xdf;" horiz-adv-x="1090" d="M115 79v1071q0 164 94 248.5t276 84.5h126q182 0 276 -84.5t94 -248.5v-106q0 -217 -169 -269q169 -50 169 -268v-164q0 -167 -89.5 -255t-269.5 -88h-38q-73 0 -73 80v85q0 42 16.5 61t56.5 19h31q81 0 81 72v257q0 42 -18.5 61t-62.5 19h-23q-82 0 -82 81v82 q0 81 82 81h23q42 0 61.5 19t19.5 60v196q0 75 -81 75h-135q-81 0 -81 -75v-1094q0 -79 -79 -79h-126q-79 0 -79 79z" />
<glyph unicode="&#xe0;" horiz-adv-x="1058" d="M79 286v70q0 280 354 280h231v165q0 75 -78 75h-123q-75 0 -75 -64q0 -44 -18 -63t-61 -19h-126q-79 0 -79 74q0 136 94 215t268 79h114q366 0 366 -329v-690q0 -79 -79 -79h-97q-80 0 -80 78l-124 -47q-107 -41 -196 -41q-134 0 -212.5 76.5t-78.5 219.5zM284 1472 q0 60 72 60h104q73 0 100 -59l76 -166q12 -27 12 -47q0 -28 -17 -44t-49 -16h-96q-69 0 -97 54l-90 169q-15 27 -15 49zM364 261q0 -65 71 -65q20 0 50 8l179 55v186h-219q-81 0 -81 -64v-120z" />
<glyph unicode="&#xe1;" horiz-adv-x="1058" d="M79 286v70q0 280 354 280h231v165q0 75 -78 75h-123q-75 0 -75 -64q0 -44 -18 -63t-61 -19h-126q-79 0 -79 74q0 136 94 215t268 79h114q366 0 366 -329v-690q0 -79 -79 -79h-97q-80 0 -80 78l-124 -47q-107 -41 -196 -41q-134 0 -212.5 76.5t-78.5 219.5zM364 261 q0 -65 71 -65q20 0 50 8l179 55v186h-219q-81 0 -81 -64v-120zM424 1260q0 23 12 47l77 166q28 59 99 59h104q72 0 72 -60q0 -24 -14 -49l-91 -169q-28 -54 -97 -54h-95q-32 0 -49.5 16t-17.5 44z" />
<glyph unicode="&#xe2;" horiz-adv-x="1058" d="M79 286v70q0 280 354 280h231v165q0 75 -78 75h-123q-75 0 -75 -64q0 -44 -18 -63t-61 -19h-126q-79 0 -79 74q0 136 94 215t268 79h114q366 0 366 -329v-690q0 -79 -79 -79h-97q-80 0 -80 78l-124 -47q-107 -41 -196 -41q-134 0 -212.5 76.5t-78.5 219.5zM202 1259v54 q0 35 12 51.5t38 29.5l219 106q26 12 58 12q31 0 57 -12l221 -106q49 -23 49 -81v-54q0 -30 -16.5 -49.5t-46.5 -19.5q-15 0 -32 6l-232 107l-232 -107q-15 -6 -36 -6q-26 0 -42.5 20t-16.5 49zM364 261q0 -65 71 -65q20 0 50 8l179 55v186h-219q-81 0 -81 -64v-120z" />
<glyph unicode="&#xe3;" horiz-adv-x="1058" d="M79 286v70q0 280 354 280h231v165q0 75 -78 75h-123q-75 0 -75 -64q0 -44 -18 -63t-61 -19h-126q-79 0 -79 74q0 136 94 215t268 79h114q366 0 366 -329v-690q0 -79 -79 -79h-97q-80 0 -80 78l-124 -47q-107 -41 -196 -41q-134 0 -212.5 76.5t-78.5 219.5zM143 1269v22 q0 95 64 153.5t172 58.5q65 0 139 -42l117 -68q18 -11 37 -11q40 0 40 39v13q0 70 74 70h54q74 0 74 -70v-23q0 -95 -64 -153t-172 -58q-79 0 -139 37l-117 73q-17 11 -36 11q-41 0 -41 -40v-11q0 -71 -74 -71h-54q-74 0 -74 70zM364 261q0 -65 71 -65q20 0 50 8l179 55v186 h-219q-81 0 -81 -64v-120z" />
<glyph unicode="&#xe4;" horiz-adv-x="1058" d="M79 286v70q0 280 354 280h231v165q0 75 -78 75h-123q-75 0 -75 -64q0 -44 -18 -63t-61 -19h-126q-79 0 -79 74q0 136 94 215t268 79h114q366 0 366 -329v-690q0 -79 -79 -79h-97q-80 0 -80 78l-124 -47q-107 -41 -196 -41q-134 0 -212.5 76.5t-78.5 219.5zM189 1326v53 q0 51 28.5 79.5t82.5 28.5h61q53 0 82 -28.5t29 -79.5v-53q0 -51 -29 -79t-82 -28h-61q-54 0 -82.5 28t-28.5 79zM364 261q0 -65 71 -65q20 0 50 8l179 55v186h-219q-81 0 -81 -64v-120zM587 1326v53q0 51 29 79.5t83 28.5h60q53 0 82 -28.5t29 -79.5v-53q0 -51 -29 -79 t-82 -28h-60q-54 0 -83 28t-29 79z" />
<glyph unicode="&#xe5;" horiz-adv-x="1058" d="M79 286v70q0 280 354 280h231v165q0 75 -78 75h-123q-75 0 -75 -64q0 -44 -18 -63t-61 -19h-126q-79 0 -79 74q0 136 94 215t268 79h114q366 0 366 -329v-690q0 -79 -79 -79h-97q-80 0 -80 78l-124 -47q-107 -41 -196 -41q-134 0 -212.5 76.5t-78.5 219.5zM315 1325v50 q0 163 183 163h63q183 0 183 -163v-50q0 -163 -183 -163h-63q-183 0 -183 163zM364 261q0 -65 71 -65q20 0 50 8l179 55v186h-219q-81 0 -81 -64v-120zM466 1320q0 -26 26 -26h74q26 0 26 26v60q0 27 -26 27h-74q-26 0 -26 -27v-60z" />
<glyph unicode="&#xe6;" horiz-adv-x="1627" d="M79 286v73q0 282 354 282h229v160q0 75 -75 75h-124q-75 0 -75 -64q0 -44 -18 -63t-61 -19h-126q-79 0 -79 74q0 136 94 215t268 79h107q149 0 231 -77q79 77 230 77h123q180 0 273.5 -82.5t93.5 -246.5v-178q0 -64 -39.5 -101.5t-111.5 -37.5h-428v-165q0 -74 77 -74 h140q36 0 57 15.5t21 43.5v6q0 32 21 50t55 18h131q77 0 77 -67v-8q0 -126 -95.5 -204t-264.5 -78h-137q-201 0 -292 103l-169 -61q-112 -41 -196 -41q-134 0 -212.5 76.5t-78.5 219.5zM364 261q0 -65 71 -65q22 0 51 9l180 55q-4 24 -4 58v134h-217q-81 0 -81 -64v-127z M945 641h295v161q0 36 -20.5 55t-57.5 19h-140q-37 0 -57 -19t-20 -55v-161z" />
<glyph unicode="&#xe7;" horiz-adv-x="1069" d="M103 318v451q0 164 93.5 246.5t272.5 82.5h131q177 0 271.5 -83.5t94.5 -245.5v-38q0 -79 -80 -79h-125q-79 0 -79 79v64q0 73 -78 73h-139q-78 0 -78 -73v-503q0 -73 78 -73h139q78 0 78 73v65q0 79 79 79h125q80 0 80 -79v-38q0 -162 -94.5 -246t-271.5 -84h-131 q-179 0 -272.5 83t-93.5 246zM335 -317q0 28 18.5 45.5t51.5 17.5h141q14 0 14 13v31q0 13 -14 13h-71q-34 0 -52.5 17t-18.5 45v26q0 29 18.5 46t52.5 17h71q94 0 138 -41.5t44 -124.5v-28q0 -83 -44 -124.5t-138 -41.5h-141q-33 0 -51.5 17.5t-18.5 45.5v26z" />
<glyph unicode="&#xe8;" horiz-adv-x="1069" d="M103 318v451q0 164 93 246.5t273 82.5h130q180 0 273 -82.5t93 -246.5v-164q0 -63 -39.5 -100.5t-110.5 -37.5h-428v-180q0 -74 77 -74h140q36 0 56.5 15.5t20.5 43.5v6q0 32 21.5 50t55.5 18h131q76 0 76 -67v-8q0 -126 -95 -204t-264 -78h-137q-180 0 -273 83t-93 246z M277 1472q0 60 72 60h104q73 0 100 -59l76 -166q12 -27 12 -47q0 -28 -17 -44t-49 -16h-96q-69 0 -97 54l-90 169q-15 27 -15 49zM387 655h294v147q0 36 -20 55t-57 19h-140q-36 0 -56.5 -19t-20.5 -55v-147z" />
<glyph unicode="&#xe9;" horiz-adv-x="1069" d="M103 318v451q0 164 93 246.5t273 82.5h130q180 0 273 -82.5t93 -246.5v-164q0 -63 -39.5 -100.5t-110.5 -37.5h-428v-180q0 -74 77 -74h140q36 0 56.5 15.5t20.5 43.5v6q0 32 21.5 50t55.5 18h131q76 0 76 -67v-8q0 -126 -95 -204t-264 -78h-137q-180 0 -273 83t-93 246z M387 655h294v147q0 36 -20 55t-57 19h-140q-36 0 -56.5 -19t-20.5 -55v-147zM424 1260q0 23 12 47l77 166q28 59 99 59h104q72 0 72 -60q0 -24 -14 -49l-91 -169q-28 -54 -97 -54h-95q-32 0 -49.5 16t-17.5 44z" />
<glyph unicode="&#xea;" horiz-adv-x="1069" d="M103 318v451q0 164 93 246.5t273 82.5h130q180 0 273 -82.5t93 -246.5v-164q0 -63 -39.5 -100.5t-110.5 -37.5h-428v-180q0 -74 77 -74h140q36 0 56.5 15.5t20.5 43.5v6q0 32 21.5 50t55.5 18h131q76 0 76 -67v-8q0 -126 -95 -204t-264 -78h-137q-180 0 -273 83t-93 246z M207 1259v54q0 35 12 51.5t37 29.5l219 106q26 12 58 12t58 -12l221 -106q48 -22 48 -81v-54q0 -30 -16.5 -49.5t-46.5 -19.5q-15 0 -32 6l-232 107l-232 -107q-15 -6 -36 -6q-26 0 -42 20t-16 49zM387 655h294v147q0 36 -20 55t-57 19h-140q-36 0 -56.5 -19t-20.5 -55v-147 z" />
<glyph unicode="&#xeb;" horiz-adv-x="1069" d="M103 318v451q0 164 93 246.5t273 82.5h130q180 0 273 -82.5t93 -246.5v-164q0 -63 -39.5 -100.5t-110.5 -37.5h-428v-180q0 -74 77 -74h140q36 0 56.5 15.5t20.5 43.5v6q0 32 21.5 50t55.5 18h131q76 0 76 -67v-8q0 -126 -95 -204t-264 -78h-137q-180 0 -273 83t-93 246z M189 1326v53q0 51 28.5 79.5t82.5 28.5h61q53 0 82 -28.5t29 -79.5v-53q0 -51 -29 -79t-82 -28h-61q-54 0 -82.5 28t-28.5 79zM387 655h294v147q0 36 -20 55t-57 19h-140q-36 0 -56.5 -19t-20.5 -55v-147zM587 1326v53q0 51 29 79.5t83 28.5h60q53 0 82 -28.5t29 -79.5v-53 q0 -51 -29 -79t-82 -28h-60q-54 0 -83 28t-29 79z" />
<glyph unicode="&#xec;" horiz-adv-x="522" d="M12 1472q0 60 72 60h104q73 0 100 -59l76 -166q11 -25 11 -47q0 -28 -16.5 -44t-48.5 -16h-97q-68 0 -96 54l-91 169q-14 25 -14 49zM119 79q0 -79 80 -79h125q80 0 80 79v930q0 78 -80 78h-125q-80 0 -80 -78v-930z" />
<glyph unicode="&#xed;" horiz-adv-x="522" d="M119 79q0 -79 80 -79h125q80 0 80 79v930q0 78 -80 78h-125q-80 0 -80 -78v-930zM147 1260q0 23 12 47l77 166q28 59 99 59h104q71 0 71 -60q0 -26 -13 -49l-92 -169q-28 -54 -96 -54h-96q-32 0 -49 16t-17 44z" />
<glyph unicode="&#xee;" horiz-adv-x="527" d="M-35 1260v67q0 46 45 67l211 102q24 8 42 8q23 0 42 -8l212 -103q19 -8 31.5 -26t12.5 -40v-67q0 -28 -19 -45.5t-45 -17.5q-11 0 -29 7l-205 99l-205 -99q-16 -7 -32 -7q-26 0 -43.5 18t-17.5 45zM121 79q0 -79 80 -79h126q79 0 79 79v930q0 78 -79 78h-126 q-80 0 -80 -78v-930z" />
<glyph unicode="&#xef;" horiz-adv-x="527" d="M-53 1327v51q0 51 28 78t81 27h45q52 0 80.5 -27.5t28.5 -77.5v-51q0 -50 -28.5 -77.5t-80.5 -27.5h-45q-53 0 -81 27t-28 78zM121 79q0 -79 80 -79h126q79 0 79 79v930q0 78 -79 78h-126q-80 0 -80 -78v-930zM317 1327v51q0 50 28.5 77.5t81.5 27.5h45q52 0 80 -27.5 t28 -77.5v-51q0 -50 -28 -77.5t-80 -27.5h-45q-53 0 -81.5 27.5t-28.5 77.5z" />
<glyph unicode="&#xf0;" d="M103 317v452q0 163 93 246t272 83h69q24 0 37 -2l-38 97h-149q-30 0 -43 13t-13 42v29q0 29 13 42t43 13h94l-21 54q-8 20 -8 31q0 27 20 46.5t56 19.5h129q68 0 91 -61l35 -90h131q29 0 42 -13t13 -42v-29q0 -29 -13 -42t-42 -13h-76l102 -259q29 -73 29 -182v-435 q0 -162 -93.5 -245t-272.5 -83h-135q-179 0 -272 82.5t-93 245.5zM387 292q0 -73 78 -73h143q76 0 76 73v503q0 36 -20.5 54.5t-55.5 18.5h-143q-78 0 -78 -72v-504z" />
<glyph unicode="&#xf1;" horiz-adv-x="1094" d="M115 70v947q0 31 19.5 50.5t51.5 19.5h98q32 0 52 -19.5t20 -50.5v-13l136 56q94 38 191 38q144 0 221 -83.5t77 -245.5v-699q0 -31 -20 -50.5t-51 -19.5h-143q-31 0 -50.5 19.5t-19.5 50.5v692q0 84 -79 84q-31 0 -65 -14l-154 -55v-707q0 -31 -19.5 -50.5t-50.5 -19.5 h-143q-31 0 -51 19.5t-20 50.5zM162 1269v22q0 95 64 153.5t172 58.5q65 0 139 -42l117 -68q18 -11 36 -11q40 0 40 39v13q0 70 75 70h53q75 0 75 -70v-23q0 -95 -64 -153t-172 -58q-79 0 -139 37l-118 73q-17 11 -36 11q-40 0 -40 -40v-11q0 -71 -74 -71h-54q-74 0 -74 70z " />
<glyph unicode="&#xf2;" d="M103 318v451q0 164 93 246.5t273 82.5h134q180 0 273 -82.5t93 -246.5v-451q0 -163 -93 -246t-273 -83h-134q-180 0 -273 83t-93 246zM279 1472q0 60 72 60h104q73 0 100 -59l76 -166q12 -27 12 -47q0 -28 -17 -44t-49 -16h-97q-68 0 -96 54l-90 169q-15 27 -15 49z M387 292q0 -36 20.5 -54.5t56.5 -18.5h144q77 0 77 73v503q0 73 -77 73h-144q-36 0 -56.5 -18.5t-20.5 -54.5v-503z" />
<glyph unicode="&#xf3;" d="M103 318v451q0 164 93 246.5t273 82.5h134q180 0 273 -82.5t93 -246.5v-451q0 -163 -93 -246t-273 -83h-134q-180 0 -273 83t-93 246zM387 292q0 -36 20.5 -54.5t56.5 -18.5h144q77 0 77 73v503q0 73 -77 73h-144q-36 0 -56.5 -18.5t-20.5 -54.5v-503zM424 1260 q0 23 12 47l77 166q28 59 99 59h104q72 0 72 -60q0 -24 -14 -49l-91 -169q-28 -54 -97 -54h-95q-32 0 -49.5 16t-17.5 44z" />
<glyph unicode="&#xf4;" d="M103 318v451q0 164 93 246.5t273 82.5h134q180 0 273 -82.5t93 -246.5v-451q0 -163 -93 -246t-273 -83h-134q-180 0 -273 83t-93 246zM209 1259v54q0 35 12 51.5t38 29.5l219 106q26 12 58 12q31 0 57 -12l221 -106q49 -23 49 -81v-54q0 -30 -16.5 -49.5t-46.5 -19.5 q-16 0 -32 6l-232 107l-232 -107q-15 -6 -36 -6q-26 0 -42.5 20t-16.5 49zM387 292q0 -36 20.5 -54.5t56.5 -18.5h144q77 0 77 73v503q0 73 -77 73h-144q-36 0 -56.5 -18.5t-20.5 -54.5v-503z" />
<glyph unicode="&#xf5;" d="M103 318v451q0 164 93 246.5t273 82.5h134q180 0 273 -82.5t93 -246.5v-451q0 -163 -93 -246t-273 -83h-134q-180 0 -273 83t-93 246zM150 1269v22q0 95 64 153.5t172 58.5q65 0 139 -42l117 -68q18 -11 36 -11q41 0 41 39v13q0 70 74 70h54q74 0 74 -70v-23 q0 -95 -64 -153t-172 -58q-79 0 -139 37l-118 73q-17 11 -35 11q-41 0 -41 -40v-11q0 -71 -74 -71h-54q-74 0 -74 70zM387 292q0 -36 20.5 -54.5t56.5 -18.5h144q77 0 77 73v503q0 73 -77 73h-144q-36 0 -56.5 -18.5t-20.5 -54.5v-503z" />
<glyph unicode="&#xf6;" d="M103 318v451q0 164 93 246.5t273 82.5h134q180 0 273 -82.5t93 -246.5v-451q0 -163 -93 -246t-273 -83h-134q-180 0 -273 83t-93 246zM195 1326v53q0 51 29 79.5t83 28.5h61q53 0 82 -28.5t29 -79.5v-53q0 -51 -29 -79t-82 -28h-61q-54 0 -83 28t-29 79zM387 292 q0 -36 20.5 -54.5t56.5 -18.5h144q77 0 77 73v503q0 73 -77 73h-144q-36 0 -56.5 -18.5t-20.5 -54.5v-503zM594 1326v53q0 51 29 79.5t83 28.5h60q53 0 82 -28.5t29 -79.5v-53q0 -51 -29 -79t-82 -28h-60q-54 0 -83 28t-29 79z" />
<glyph unicode="&#xf7;" horiz-adv-x="942" d="M49 669v56q0 81 78 81h688q79 0 79 -81v-56q0 -80 -79 -80h-688q-78 0 -78 80zM353 329q0 -84 83 -84h70q85 0 85 84v69q0 84 -85 84h-70q-83 0 -83 -84v-69zM353 996v70q0 83 83 83h70q85 0 85 -83v-70q0 -84 -85 -84h-70q-83 0 -83 84z" />
<glyph unicode="&#xf8;" d="M103 318v451q0 164 93 246.5t273 82.5h134q38 0 81 -5l36 87q15 39 54 39h59q17 0 28.5 -11.5t11.5 -27.5q0 -8 -7 -25l-43 -103q146 -78 146 -283v-451q0 -163 -93 -246t-273 -83h-134q-38 0 -80 5l-36 -87q-8 -20 -20.5 -29t-38.5 -9h-48q-22 0 -33.5 11t-11.5 29 q0 7 6 21l42 105q-146 78 -146 283zM369 316l229 556h-150q-37 0 -58 -18.5t-21 -54.5v-483zM475 215h150q36 0 57.5 19t21.5 55v485z" />
<glyph unicode="&#xf9;" horiz-adv-x="1093" d="M113 308v701q0 78 81 78h125q79 0 79 -78v-692q0 -44 18.5 -63.5t57.5 -19.5q30 0 67 13l154 53v709q0 78 78 78h127q79 0 79 -78v-931q0 -78 -79 -78h-91q-79 0 -79 78v5l-107 -44q-122 -50 -211 -50q-143 0 -221 81t-78 238zM300 1472q0 60 72 60h104q73 0 100 -59 l76 -166q12 -27 12 -47q0 -28 -17 -44t-49 -16h-96q-69 0 -97 54l-90 169q-15 27 -15 49z" />
<glyph unicode="&#xfa;" horiz-adv-x="1093" d="M113 308v701q0 78 81 78h125q79 0 79 -78v-692q0 -44 18.5 -63.5t57.5 -19.5q30 0 67 13l154 53v709q0 78 78 78h127q79 0 79 -78v-931q0 -78 -79 -78h-91q-79 0 -79 78v5l-107 -44q-122 -50 -211 -50q-143 0 -221 81t-78 238zM438 1260q0 23 12 47l77 166q28 59 98 59 h105q71 0 71 -60q0 -26 -13 -49l-92 -169q-28 -54 -96 -54h-96q-32 0 -49 16t-17 44z" />
<glyph unicode="&#xfb;" horiz-adv-x="1093" d="M113 308v701q0 78 81 78h125q79 0 79 -78v-692q0 -44 18.5 -63.5t57.5 -19.5q30 0 67 13l154 53v709q0 78 78 78h127q79 0 79 -78v-931q0 -78 -79 -78h-91q-79 0 -79 78v5l-107 -44q-122 -50 -211 -50q-143 0 -221 81t-78 238zM218 1259v54q0 35 12 51.5t38 29.5l219 106 q26 12 58 12q31 0 57 -12l221 -106q49 -23 49 -81v-54q0 -30 -16.5 -49.5t-46.5 -19.5q-15 0 -32 6l-232 107l-232 -107q-15 -6 -36 -6q-26 0 -42.5 20t-16.5 49z" />
<glyph unicode="&#xfc;" horiz-adv-x="1093" d="M113 308v701q0 78 81 78h125q79 0 79 -78v-692q0 -44 18.5 -63.5t57.5 -19.5q30 0 67 13l154 53v709q0 78 78 78h127q79 0 79 -78v-931q0 -78 -79 -78h-91q-79 0 -79 78v5l-107 -44q-122 -50 -211 -50q-143 0 -221 81t-78 238zM205 1326v53q0 51 29 79.5t83 28.5h60 q53 0 82 -28.5t29 -79.5v-53q0 -51 -29 -79t-82 -28h-60q-54 0 -83 28t-29 79zM603 1326v53q0 51 29 79.5t83 28.5h61q53 0 82 -28.5t29 -79.5v-53q0 -51 -29 -79t-82 -28h-61q-54 0 -83 28t-29 79z" />
<glyph unicode="&#xfd;" horiz-adv-x="1050" d="M36 1021q0 30 16.5 48t50.5 18h138q38 0 58.5 -17.5t29.5 -54.5l130 -529q32 -130 67 -310q39 206 65 309l131 530q9 36 29 54t58 18h127q79 0 79 -66q0 -13 -4 -26l-287 -1002q-55 -189 -188.5 -291.5t-332.5 -102.5q-80 0 -80 78v87q0 77 80 77q184 0 260 159h-70 q-70 0 -89 64l-264 931q-4 12 -4 26zM413 1260q0 23 12 47l77 166q28 59 99 59h104q72 0 72 -60q0 -24 -14 -49l-91 -169q-28 -54 -97 -54h-95q-32 0 -49.5 16t-17.5 44z" />
<glyph unicode="&#xfe;" horiz-adv-x="1084" d="M114 -310v1714q0 79 80 79h125q80 0 80 -79v-383l92 39q91 38 192 38q143 0 220.5 -83.5t77.5 -245.5v-451q0 -163 -93 -246t-273 -83h-49q-108 0 -167 34v-333q0 -81 -80 -81h-125q-80 0 -80 81zM399 288q0 -33 21 -51t60 -18h138q78 0 78 73v470q0 45 -19.5 64.5 t-58.5 19.5q-30 0 -66 -13l-153 -55v-490z" />
<glyph unicode="&#xff;" horiz-adv-x="1050" d="M36 1021q0 30 16.5 48t50.5 18h138q38 0 58.5 -17.5t29.5 -54.5l130 -529q32 -130 67 -310q39 206 65 309l131 530q9 36 29 54t58 18h127q79 0 79 -66q0 -13 -4 -26l-287 -1002q-55 -189 -188.5 -291.5t-332.5 -102.5q-80 0 -80 78v87q0 77 80 77q184 0 260 159h-70 q-70 0 -89 64l-264 931q-4 12 -4 26zM185 1326v53q0 51 29 79.5t83 28.5h61q53 0 81.5 -28.5t28.5 -79.5v-53q0 -51 -28.5 -79t-81.5 -28h-61q-54 0 -83 28t-29 79zM584 1326v53q0 51 28.5 79.5t82.5 28.5h61q53 0 82 -28.5t29 -79.5v-53q0 -51 -29 -79t-82 -28h-61 q-54 0 -82.5 28t-28.5 79z" />
<glyph unicode="&#x152;" horiz-adv-x="1774" d="M123 373v648q0 191 106 287.5t309 96.5h133q133 0 205 -63q23 52 87 52h598q83 0 83 -81v-78q0 -82 -83 -82h-436v-327h436q83 0 83 -82v-78q0 -81 -83 -81h-436v-344h436q83 0 83 -81v-80q0 -80 -83 -80h-598q-66 0 -88 52q-72 -63 -204 -63h-133q-203 0 -309 96.5 t-106 287.5zM416 349q0 -111 111 -111h193q112 0 112 111v696q0 111 -112 111h-193q-111 0 -111 -111v-696z" />
<glyph unicode="&#x153;" horiz-adv-x="1651" d="M103 318v451q0 164 93.5 246.5t273.5 82.5h127q151 0 231 -77q79 77 230 77h124q180 0 273 -82.5t93 -246.5v-164q0 -63 -39.5 -100.5t-110.5 -37.5h-429v-181q0 -74 78 -74h140q36 0 56.5 16t20.5 44v6q0 68 77 68h130q77 0 77 -67v-8q0 -126 -97 -204t-266 -78h-127 q-151 0 -230 77q-80 -77 -231 -77h-127q-180 0 -273.5 83t-93.5 246zM388 286q0 -73 78 -73h142q77 0 77 73v516q0 73 -77 73h-142q-78 0 -78 -73v-516zM969 655h295v147q0 36 -20.5 55t-56.5 19h-141q-37 0 -57 -19t-20 -55v-147z" />
<glyph unicode="&#x178;" horiz-adv-x="1116" d="M34 1329q0 27 19.5 46t58.5 19h126q67 0 91 -59l141 -330q54 -127 88 -221q46 126 88 221l141 328q26 61 92 61h126q39 0 58 -19t19 -46q0 -18 -10 -39l-367 -762v-448q0 -80 -81 -80h-130q-82 0 -82 80v447l-368 764q-10 22 -10 38zM218 1633v53q0 51 28.5 79.5 t82.5 28.5h61q53 0 82 -28.5t29 -79.5v-53q0 -51 -29 -79t-82 -28h-61q-54 0 -82.5 28t-28.5 79zM616 1633v53q0 51 29 79.5t83 28.5h60q53 0 82 -28.5t29 -79.5v-53q0 -51 -29 -79t-82 -28h-60q-54 0 -83 28t-29 79z" />
<glyph unicode="&#x2c6;" horiz-adv-x="832" d="M89 1259v54q0 35 12 51.5t37 29.5l220 106q26 12 58 12q31 0 57 -12l221 -106q48 -22 48 -81v-54q0 -30 -16.5 -49.5t-46.5 -19.5q-15 0 -31 6l-232 107l-233 -107q-15 -6 -35 -6q-26 0 -42.5 20t-16.5 49z" />
<glyph unicode="&#x2dc;" horiz-adv-x="861" d="M45 1269v22q0 95 64 153.5t172 58.5q65 0 139 -42l117 -68q18 -11 36 -11q41 0 41 39v13q0 70 74 70h54q74 0 74 -70v-23q0 -95 -64 -153t-172 -58q-79 0 -139 37l-118 73q-17 11 -35 11q-41 0 -41 -40v-11q0 -71 -74 -71h-54q-74 0 -74 70z" />
<glyph unicode="&#x2000;" horiz-adv-x="922" />
<glyph unicode="&#x2001;" horiz-adv-x="1845" />
<glyph unicode="&#x2002;" horiz-adv-x="922" />
<glyph unicode="&#x2003;" horiz-adv-x="1845" />
<glyph unicode="&#x2004;" horiz-adv-x="615" />
<glyph unicode="&#x2005;" horiz-adv-x="461" />
<glyph unicode="&#x2006;" horiz-adv-x="307" />
<glyph unicode="&#x2007;" horiz-adv-x="307" />
<glyph unicode="&#x2008;" horiz-adv-x="230" />
<glyph unicode="&#x2009;" horiz-adv-x="369" />
<glyph unicode="&#x200a;" horiz-adv-x="102" />
<glyph unicode="&#x2010;" horiz-adv-x="644" d="M91 514v91q0 79 80 79h303q79 0 79 -79v-91q0 -80 -79 -80h-303q-80 0 -80 80z" />
<glyph unicode="&#x2011;" horiz-adv-x="644" d="M91 514v91q0 79 80 79h303q79 0 79 -79v-91q0 -80 -79 -80h-303q-80 0 -80 80z" />
<glyph unicode="&#x2012;" horiz-adv-x="644" d="M91 514v91q0 79 80 79h303q79 0 79 -79v-91q0 -80 -79 -80h-303q-80 0 -80 80z" />
<glyph unicode="&#x2013;" horiz-adv-x="775" d="M91 514v91q0 79 80 79h434q79 0 79 -79v-91q0 -80 -79 -80h-434q-80 0 -80 80z" />
<glyph unicode="&#x2014;" horiz-adv-x="1277" d="M106 514v91q0 79 79 79h908q79 0 79 -79v-91q0 -80 -79 -80h-908q-79 0 -79 80z" />
<glyph unicode="&#x2018;" horiz-adv-x="474" d="M58 960q0 17 3 27l117 446q17 67 89 67h86q33 0 51 -18t18 -49q0 -13 -3 -28l-102 -442q-16 -73 -93 -73h-93q-36 0 -54.5 19t-18.5 51z" />
<glyph unicode="&#x2019;" horiz-adv-x="474" d="M53 957q0 19 3 29l103 441q16 73 91 73h94q36 0 54 -18.5t18 -51.5q0 -16 -2 -25l-117 -448q-17 -67 -90 -67h-86q-32 0 -50 17.5t-18 49.5z" />
<glyph unicode="&#x201a;" horiz-adv-x="474" d="M58 -287q0 18 3 29l103 441q16 73 91 73h94q36 0 54.5 -18.5t18.5 -50.5q0 -13 -3 -27l-117 -447q-17 -67 -90 -67h-86q-32 0 -50 18t-18 49z" />
<glyph unicode="&#x201c;" horiz-adv-x="878" d="M58 960q0 17 3 27l117 446q17 67 89 67h86q33 0 51 -18t18 -49q0 -13 -3 -28l-102 -442q-16 -73 -93 -73h-93q-36 0 -54.5 19t-18.5 51zM462 960q0 17 3 27l117 446q17 67 89 67h86q33 0 50.5 -18t17.5 -49q0 -18 -2 -28l-103 -442q-16 -73 -92 -73h-94q-35 0 -53.5 19 t-18.5 51z" />
<glyph unicode="&#x201d;" horiz-adv-x="878" d="M53 957q0 19 3 29l103 441q16 73 91 73h94q36 0 54 -18.5t18 -51.5q0 -16 -2 -25l-117 -448q-17 -67 -90 -67h-86q-32 0 -50 17.5t-18 49.5zM457 957q0 19 3 29l102 441q16 73 92 73h94q36 0 54 -18.5t18 -51.5q0 -12 -3 -25l-116 -448q-17 -67 -90 -67h-86 q-32 0 -50 17.5t-18 49.5z" />
<glyph unicode="&#x201e;" horiz-adv-x="878" d="M58 -287q0 18 3 29l103 441q16 73 91 73h94q36 0 54.5 -18.5t18.5 -50.5q0 -13 -3 -27l-117 -447q-17 -67 -90 -67h-86q-32 0 -50 18t-18 49zM462 -287q0 18 3 29l103 441q15 73 92 73h93q36 0 54 -18.5t18 -50.5q0 -18 -2 -27l-117 -447q-17 -67 -90 -67h-86 q-32 0 -50 18t-18 49z" />
<glyph unicode="&#x2022;" horiz-adv-x="688" d="M117 645v159q0 66 38.5 104t103.5 38h169q66 0 104.5 -38t38.5 -104v-159q0 -65 -38.5 -103t-104.5 -38h-169q-65 0 -103.5 38t-38.5 103z" />
<glyph unicode="&#x2026;" horiz-adv-x="1655" d="M108 86v138q0 88 92 88h149q92 0 92 -88v-138q0 -89 -92 -89h-149q-44 0 -68 23t-24 66zM661 86v138q0 88 92 88h150q92 0 92 -88v-138q0 -43 -24 -66t-68 -23h-150q-44 0 -68 23t-24 66zM1214 86v138q0 88 92 88h150q92 0 92 -88v-138q0 -89 -92 -89h-150q-44 0 -68 23 t-24 66z" />
<glyph unicode="&#x202f;" horiz-adv-x="369" />
<glyph unicode="&#x2039;" horiz-adv-x="593" d="M61 571q0 35 16 70l141 297q33 75 105 75h95q39 0 59 -19.5t20 -52.5q0 -18 -9 -41l-145 -329l145 -330q9 -21 9 -41q0 -71 -79 -71h-95q-73 0 -105 74l-142 300q-15 36 -15 68z" />
<glyph unicode="&#x203a;" horiz-adv-x="593" d="M96 200q0 20 9 41l145 330l-145 329q-9 23 -9 41q0 33 20 52.5t59 19.5h96q71 0 104 -75l141 -297q16 -35 16 -70q0 -32 -15 -68l-142 -300q-32 -74 -104 -74h-96q-79 0 -79 71z" />
<glyph unicode="&#x205f;" horiz-adv-x="461" />
<glyph unicode="&#x20ac;" horiz-adv-x="1201" d="M42 523v54q0 32 14 46t46 14h87v120h-87q-32 0 -46 14.5t-14 45.5v53q0 32 14 46t46 14h87v101q0 184 99.5 279t290.5 95h139q191 0 290.5 -95t99.5 -279v-82q0 -37 -20.5 -57.5t-58.5 -20.5h-127q-37 0 -57.5 20.5t-20.5 57.5v114q0 100 -95 100h-161q-96 0 -96 -100 v-133h186q32 0 46.5 -14t14.5 -46v-64q0 -49 -61 -49h-186v-120h186q32 0 46.5 -14t14.5 -46v-65q0 -49 -61 -49h-186v-130q0 -100 96 -100h161q95 0 95 100v112q0 37 20.5 57.5t57.5 20.5h127q38 0 58.5 -20.5t20.5 -57.5v-81q0 -185 -100 -280t-290 -95h-139 q-190 0 -290 95t-100 280v99h-87q-32 0 -46 14.5t-14 45.5z" />
<glyph unicode="&#x2122;" horiz-adv-x="1309" d="M36 1289v46q0 28 15.5 44t43.5 16h384q58 0 58 -60v-46q0 -58 -58 -58h-105v-390q0 -58 -60 -58h-55q-58 0 -58 58v390h-106q-28 0 -43.5 15t-15.5 43zM625 841v494q0 28 15.5 44t43.5 16h119q28 0 44.5 -13t29.5 -41l42 -93q20 -43 49 -135q27 87 48 135l43 93 q25 54 71 54h123q57 0 57 -60v-494q0 -58 -56 -58h-47q-56 0 -56 58v161q0 54 7 198q-22 -68 -57 -147l-46 -105q-28 -63 -87 -63q-58 0 -87 63l-46 105q-38 85 -57 147q6 -164 6 -198v-161q0 -58 -56 -58h-46q-57 0 -57 58z" />
<glyph unicode="&#x25fc;" horiz-adv-x="1088" d="M0 0v1088h1088v-1088h-1088z" />
</font>
</defs>
</svg>
